<?xml version="1.0" encoding="utf-8" standalone="no"?>
<!DOCTYPE svg PUBLIC "-//W3C//DTD SVG 1.1//EN"
  "http://www.w3.org/Graphics/SVG/1.1/DTD/svg11.dtd">
<svg xmlns:xlink="http://www.w3.org/1999/xlink" width="620.097099pt" height="281.634375pt" viewBox="0 0 620.097099 281.634375" xmlns="http://www.w3.org/2000/svg" version="1.1">
 <metadata>
  <rdf:RDF xmlns:dc="http://purl.org/dc/elements/1.1/" xmlns:cc="http://creativecommons.org/ns#" xmlns:rdf="http://www.w3.org/1999/02/22-rdf-syntax-ns#">
   <cc:Work>
    <dc:type rdf:resource="http://purl.org/dc/dcmitype/StillImage"/>
    <dc:date>2025-08-09T11:15:32.309264</dc:date>
    <dc:format>image/svg+xml</dc:format>
    <dc:creator>
     <cc:Agent>
      <dc:title>Matplotlib v3.7.5, https://matplotlib.org/</dc:title>
     </cc:Agent>
    </dc:creator>
   </cc:Work>
  </rdf:RDF>
 </metadata>
 <defs>
  <style type="text/css">*{stroke-linejoin: round; stroke-linecap: butt}</style>
 </defs>
 <g id="figure_1">
  <g id="patch_1">
   <path d="M 0 281.634375 
L 620.097099 281.634375 
L 620.097099 0 
L 0 0 
z
" style="fill: #ffffff"/>
  </g>
  <g id="axes_1">
   <g id="patch_2">
    <path d="M 50.573438 244.078125 
L 608.573437 244.078125 
L 608.573437 22.318125 
L 50.573438 22.318125 
z
" style="fill: #ffffff"/>
   </g>
   <g id="matplotlib.axis_1">
    <g id="xtick_1">
     <g id="line2d_1">
      <defs>
       <path id="m1028c4d2a0" d="M 0 0 
L 0 3.5 
" style="stroke: #000000; stroke-width: 0.8"/>
      </defs>
      <g>
       <use xlink:href="#m1028c4d2a0" x="76.027805" y="244.078125" style="stroke: #000000; stroke-width: 0.8"/>
      </g>
     </g>
     <g id="text_1">
      <!-- 2025-03-01 -->
      <g transform="translate(46.969993 258.676562) scale(0.1 -0.1)">
       <defs>
        <path id="DejaVuSans-32" d="M 1228 531 
L 3431 531 
L 3431 0 
L 469 0 
L 469 531 
Q 828 903 1448 1529 
Q 2069 2156 2228 2338 
Q 2531 2678 2651 2914 
Q 2772 3150 2772 3378 
Q 2772 3750 2511 3984 
Q 2250 4219 1831 4219 
Q 1534 4219 1204 4116 
Q 875 4013 500 3803 
L 500 4441 
Q 881 4594 1212 4672 
Q 1544 4750 1819 4750 
Q 2544 4750 2975 4387 
Q 3406 4025 3406 3419 
Q 3406 3131 3298 2873 
Q 3191 2616 2906 2266 
Q 2828 2175 2409 1742 
Q 1991 1309 1228 531 
z
" transform="scale(0.015625)"/>
        <path id="DejaVuSans-30" d="M 2034 4250 
Q 1547 4250 1301 3770 
Q 1056 3291 1056 2328 
Q 1056 1369 1301 889 
Q 1547 409 2034 409 
Q 2525 409 2770 889 
Q 3016 1369 3016 2328 
Q 3016 3291 2770 3770 
Q 2525 4250 2034 4250 
z
M 2034 4750 
Q 2819 4750 3233 4129 
Q 3647 3509 3647 2328 
Q 3647 1150 3233 529 
Q 2819 -91 2034 -91 
Q 1250 -91 836 529 
Q 422 1150 422 2328 
Q 422 3509 836 4129 
Q 1250 4750 2034 4750 
z
" transform="scale(0.015625)"/>
        <path id="DejaVuSans-35" d="M 691 4666 
L 3169 4666 
L 3169 4134 
L 1269 4134 
L 1269 2991 
Q 1406 3038 1543 3061 
Q 1681 3084 1819 3084 
Q 2600 3084 3056 2656 
Q 3513 2228 3513 1497 
Q 3513 744 3044 326 
Q 2575 -91 1722 -91 
Q 1428 -91 1123 -41 
Q 819 9 494 109 
L 494 744 
Q 775 591 1075 516 
Q 1375 441 1709 441 
Q 2250 441 2565 725 
Q 2881 1009 2881 1497 
Q 2881 1984 2565 2268 
Q 2250 2553 1709 2553 
Q 1456 2553 1204 2497 
Q 953 2441 691 2322 
L 691 4666 
z
" transform="scale(0.015625)"/>
        <path id="DejaVuSans-2d" d="M 313 2009 
L 1997 2009 
L 1997 1497 
L 313 1497 
L 313 2009 
z
" transform="scale(0.015625)"/>
        <path id="DejaVuSans-33" d="M 2597 2516 
Q 3050 2419 3304 2112 
Q 3559 1806 3559 1356 
Q 3559 666 3084 287 
Q 2609 -91 1734 -91 
Q 1441 -91 1130 -33 
Q 819 25 488 141 
L 488 750 
Q 750 597 1062 519 
Q 1375 441 1716 441 
Q 2309 441 2620 675 
Q 2931 909 2931 1356 
Q 2931 1769 2642 2001 
Q 2353 2234 1838 2234 
L 1294 2234 
L 1294 2753 
L 1863 2753 
Q 2328 2753 2575 2939 
Q 2822 3125 2822 3475 
Q 2822 3834 2567 4026 
Q 2313 4219 1838 4219 
Q 1578 4219 1281 4162 
Q 984 4106 628 3988 
L 628 4550 
Q 988 4650 1302 4700 
Q 1616 4750 1894 4750 
Q 2613 4750 3031 4423 
Q 3450 4097 3450 3541 
Q 3450 3153 3228 2886 
Q 3006 2619 2597 2516 
z
" transform="scale(0.015625)"/>
        <path id="DejaVuSans-31" d="M 794 531 
L 1825 531 
L 1825 4091 
L 703 3866 
L 703 4441 
L 1819 4666 
L 2450 4666 
L 2450 531 
L 3481 531 
L 3481 0 
L 794 0 
L 794 531 
z
" transform="scale(0.015625)"/>
       </defs>
       <use xlink:href="#DejaVuSans-32"/>
       <use xlink:href="#DejaVuSans-30" x="63.623047"/>
       <use xlink:href="#DejaVuSans-32" x="127.246094"/>
       <use xlink:href="#DejaVuSans-35" x="190.869141"/>
       <use xlink:href="#DejaVuSans-2d" x="254.492188"/>
       <use xlink:href="#DejaVuSans-30" x="290.576172"/>
       <use xlink:href="#DejaVuSans-33" x="354.199219"/>
       <use xlink:href="#DejaVuSans-2d" x="417.822266"/>
       <use xlink:href="#DejaVuSans-30" x="453.90625"/>
       <use xlink:href="#DejaVuSans-31" x="517.529297"/>
      </g>
     </g>
    </g>
    <g id="xtick_2">
     <g id="line2d_2">
      <g>
       <use xlink:href="#m1028c4d2a0" x="141.551867" y="244.078125" style="stroke: #000000; stroke-width: 0.8"/>
      </g>
     </g>
     <g id="text_2">
      <!-- 2025-03-05 -->
      <g transform="translate(112.494055 258.676562) scale(0.1 -0.1)">
       <use xlink:href="#DejaVuSans-32"/>
       <use xlink:href="#DejaVuSans-30" x="63.623047"/>
       <use xlink:href="#DejaVuSans-32" x="127.246094"/>
       <use xlink:href="#DejaVuSans-35" x="190.869141"/>
       <use xlink:href="#DejaVuSans-2d" x="254.492188"/>
       <use xlink:href="#DejaVuSans-30" x="290.576172"/>
       <use xlink:href="#DejaVuSans-33" x="354.199219"/>
       <use xlink:href="#DejaVuSans-2d" x="417.822266"/>
       <use xlink:href="#DejaVuSans-30" x="453.90625"/>
       <use xlink:href="#DejaVuSans-35" x="517.529297"/>
      </g>
     </g>
    </g>
    <g id="xtick_3">
     <g id="line2d_3">
      <g>
       <use xlink:href="#m1028c4d2a0" x="207.07593" y="244.078125" style="stroke: #000000; stroke-width: 0.8"/>
      </g>
     </g>
     <g id="text_3">
      <!-- 2025-03-09 -->
      <g transform="translate(178.018117 258.676562) scale(0.1 -0.1)">
       <defs>
        <path id="DejaVuSans-39" d="M 703 97 
L 703 672 
Q 941 559 1184 500 
Q 1428 441 1663 441 
Q 2288 441 2617 861 
Q 2947 1281 2994 2138 
Q 2813 1869 2534 1725 
Q 2256 1581 1919 1581 
Q 1219 1581 811 2004 
Q 403 2428 403 3163 
Q 403 3881 828 4315 
Q 1253 4750 1959 4750 
Q 2769 4750 3195 4129 
Q 3622 3509 3622 2328 
Q 3622 1225 3098 567 
Q 2575 -91 1691 -91 
Q 1453 -91 1209 -44 
Q 966 3 703 97 
z
M 1959 2075 
Q 2384 2075 2632 2365 
Q 2881 2656 2881 3163 
Q 2881 3666 2632 3958 
Q 2384 4250 1959 4250 
Q 1534 4250 1286 3958 
Q 1038 3666 1038 3163 
Q 1038 2656 1286 2365 
Q 1534 2075 1959 2075 
z
" transform="scale(0.015625)"/>
       </defs>
       <use xlink:href="#DejaVuSans-32"/>
       <use xlink:href="#DejaVuSans-30" x="63.623047"/>
       <use xlink:href="#DejaVuSans-32" x="127.246094"/>
       <use xlink:href="#DejaVuSans-35" x="190.869141"/>
       <use xlink:href="#DejaVuSans-2d" x="254.492188"/>
       <use xlink:href="#DejaVuSans-30" x="290.576172"/>
       <use xlink:href="#DejaVuSans-33" x="354.199219"/>
       <use xlink:href="#DejaVuSans-2d" x="417.822266"/>
       <use xlink:href="#DejaVuSans-30" x="453.90625"/>
       <use xlink:href="#DejaVuSans-39" x="517.529297"/>
      </g>
     </g>
    </g>
    <g id="xtick_4">
     <g id="line2d_4">
      <g>
       <use xlink:href="#m1028c4d2a0" x="272.599992" y="244.078125" style="stroke: #000000; stroke-width: 0.8"/>
      </g>
     </g>
     <g id="text_4">
      <!-- 2025-03-13 -->
      <g transform="translate(243.542179 258.676562) scale(0.1 -0.1)">
       <use xlink:href="#DejaVuSans-32"/>
       <use xlink:href="#DejaVuSans-30" x="63.623047"/>
       <use xlink:href="#DejaVuSans-32" x="127.246094"/>
       <use xlink:href="#DejaVuSans-35" x="190.869141"/>
       <use xlink:href="#DejaVuSans-2d" x="254.492188"/>
       <use xlink:href="#DejaVuSans-30" x="290.576172"/>
       <use xlink:href="#DejaVuSans-33" x="354.199219"/>
       <use xlink:href="#DejaVuSans-2d" x="417.822266"/>
       <use xlink:href="#DejaVuSans-31" x="453.90625"/>
       <use xlink:href="#DejaVuSans-33" x="517.529297"/>
      </g>
     </g>
    </g>
    <g id="xtick_5">
     <g id="line2d_5">
      <g>
       <use xlink:href="#m1028c4d2a0" x="338.124054" y="244.078125" style="stroke: #000000; stroke-width: 0.8"/>
      </g>
     </g>
     <g id="text_5">
      <!-- 2025-03-17 -->
      <g transform="translate(309.066241 258.676562) scale(0.1 -0.1)">
       <defs>
        <path id="DejaVuSans-37" d="M 525 4666 
L 3525 4666 
L 3525 4397 
L 1831 0 
L 1172 0 
L 2766 4134 
L 525 4134 
L 525 4666 
z
" transform="scale(0.015625)"/>
       </defs>
       <use xlink:href="#DejaVuSans-32"/>
       <use xlink:href="#DejaVuSans-30" x="63.623047"/>
       <use xlink:href="#DejaVuSans-32" x="127.246094"/>
       <use xlink:href="#DejaVuSans-35" x="190.869141"/>
       <use xlink:href="#DejaVuSans-2d" x="254.492188"/>
       <use xlink:href="#DejaVuSans-30" x="290.576172"/>
       <use xlink:href="#DejaVuSans-33" x="354.199219"/>
       <use xlink:href="#DejaVuSans-2d" x="417.822266"/>
       <use xlink:href="#DejaVuSans-31" x="453.90625"/>
       <use xlink:href="#DejaVuSans-37" x="517.529297"/>
      </g>
     </g>
    </g>
    <g id="xtick_6">
     <g id="line2d_6">
      <g>
       <use xlink:href="#m1028c4d2a0" x="403.648116" y="244.078125" style="stroke: #000000; stroke-width: 0.8"/>
      </g>
     </g>
     <g id="text_6">
      <!-- 2025-03-21 -->
      <g transform="translate(374.590303 258.676562) scale(0.1 -0.1)">
       <use xlink:href="#DejaVuSans-32"/>
       <use xlink:href="#DejaVuSans-30" x="63.623047"/>
       <use xlink:href="#DejaVuSans-32" x="127.246094"/>
       <use xlink:href="#DejaVuSans-35" x="190.869141"/>
       <use xlink:href="#DejaVuSans-2d" x="254.492188"/>
       <use xlink:href="#DejaVuSans-30" x="290.576172"/>
       <use xlink:href="#DejaVuSans-33" x="354.199219"/>
       <use xlink:href="#DejaVuSans-2d" x="417.822266"/>
       <use xlink:href="#DejaVuSans-32" x="453.90625"/>
       <use xlink:href="#DejaVuSans-31" x="517.529297"/>
      </g>
     </g>
    </g>
    <g id="xtick_7">
     <g id="line2d_7">
      <g>
       <use xlink:href="#m1028c4d2a0" x="469.172178" y="244.078125" style="stroke: #000000; stroke-width: 0.8"/>
      </g>
     </g>
     <g id="text_7">
      <!-- 2025-03-25 -->
      <g transform="translate(440.114365 258.676562) scale(0.1 -0.1)">
       <use xlink:href="#DejaVuSans-32"/>
       <use xlink:href="#DejaVuSans-30" x="63.623047"/>
       <use xlink:href="#DejaVuSans-32" x="127.246094"/>
       <use xlink:href="#DejaVuSans-35" x="190.869141"/>
       <use xlink:href="#DejaVuSans-2d" x="254.492188"/>
       <use xlink:href="#DejaVuSans-30" x="290.576172"/>
       <use xlink:href="#DejaVuSans-33" x="354.199219"/>
       <use xlink:href="#DejaVuSans-2d" x="417.822266"/>
       <use xlink:href="#DejaVuSans-32" x="453.90625"/>
       <use xlink:href="#DejaVuSans-35" x="517.529297"/>
      </g>
     </g>
    </g>
    <g id="xtick_8">
     <g id="line2d_8">
      <g>
       <use xlink:href="#m1028c4d2a0" x="534.69624" y="244.078125" style="stroke: #000000; stroke-width: 0.8"/>
      </g>
     </g>
     <g id="text_8">
      <!-- 2025-03-29 -->
      <g transform="translate(505.638428 258.676562) scale(0.1 -0.1)">
       <use xlink:href="#DejaVuSans-32"/>
       <use xlink:href="#DejaVuSans-30" x="63.623047"/>
       <use xlink:href="#DejaVuSans-32" x="127.246094"/>
       <use xlink:href="#DejaVuSans-35" x="190.869141"/>
       <use xlink:href="#DejaVuSans-2d" x="254.492188"/>
       <use xlink:href="#DejaVuSans-30" x="290.576172"/>
       <use xlink:href="#DejaVuSans-33" x="354.199219"/>
       <use xlink:href="#DejaVuSans-2d" x="417.822266"/>
       <use xlink:href="#DejaVuSans-32" x="453.90625"/>
       <use xlink:href="#DejaVuSans-39" x="517.529297"/>
      </g>
     </g>
    </g>
    <g id="xtick_9">
     <g id="line2d_9">
      <g>
       <use xlink:href="#m1028c4d2a0" x="583.839287" y="244.078125" style="stroke: #000000; stroke-width: 0.8"/>
      </g>
     </g>
     <g id="text_9">
      <!-- 2025-04-01 -->
      <g transform="translate(554.781474 258.676562) scale(0.1 -0.1)">
       <defs>
        <path id="DejaVuSans-34" d="M 2419 4116 
L 825 1625 
L 2419 1625 
L 2419 4116 
z
M 2253 4666 
L 3047 4666 
L 3047 1625 
L 3713 1625 
L 3713 1100 
L 3047 1100 
L 3047 0 
L 2419 0 
L 2419 1100 
L 313 1100 
L 313 1709 
L 2253 4666 
z
" transform="scale(0.015625)"/>
       </defs>
       <use xlink:href="#DejaVuSans-32"/>
       <use xlink:href="#DejaVuSans-30" x="63.623047"/>
       <use xlink:href="#DejaVuSans-32" x="127.246094"/>
       <use xlink:href="#DejaVuSans-35" x="190.869141"/>
       <use xlink:href="#DejaVuSans-2d" x="254.492188"/>
       <use xlink:href="#DejaVuSans-30" x="290.576172"/>
       <use xlink:href="#DejaVuSans-34" x="354.199219"/>
       <use xlink:href="#DejaVuSans-2d" x="417.822266"/>
       <use xlink:href="#DejaVuSans-30" x="453.90625"/>
       <use xlink:href="#DejaVuSans-31" x="517.529297"/>
      </g>
     </g>
    </g>
    <g id="text_10">
     <!-- Time -->
     <g transform="translate(317.339844 272.354687) scale(0.1 -0.1)">
      <defs>
       <path id="DejaVuSans-54" d="M -19 4666 
L 3928 4666 
L 3928 4134 
L 2272 4134 
L 2272 0 
L 1638 0 
L 1638 4134 
L -19 4134 
L -19 4666 
z
" transform="scale(0.015625)"/>
       <path id="DejaVuSans-69" d="M 603 3500 
L 1178 3500 
L 1178 0 
L 603 0 
L 603 3500 
z
M 603 4863 
L 1178 4863 
L 1178 4134 
L 603 4134 
L 603 4863 
z
" transform="scale(0.015625)"/>
       <path id="DejaVuSans-6d" d="M 3328 2828 
Q 3544 3216 3844 3400 
Q 4144 3584 4550 3584 
Q 5097 3584 5394 3201 
Q 5691 2819 5691 2113 
L 5691 0 
L 5113 0 
L 5113 2094 
Q 5113 2597 4934 2840 
Q 4756 3084 4391 3084 
Q 3944 3084 3684 2787 
Q 3425 2491 3425 1978 
L 3425 0 
L 2847 0 
L 2847 2094 
Q 2847 2600 2669 2842 
Q 2491 3084 2119 3084 
Q 1678 3084 1418 2786 
Q 1159 2488 1159 1978 
L 1159 0 
L 581 0 
L 581 3500 
L 1159 3500 
L 1159 2956 
Q 1356 3278 1631 3431 
Q 1906 3584 2284 3584 
Q 2666 3584 2933 3390 
Q 3200 3197 3328 2828 
z
" transform="scale(0.015625)"/>
       <path id="DejaVuSans-65" d="M 3597 1894 
L 3597 1613 
L 953 1613 
Q 991 1019 1311 708 
Q 1631 397 2203 397 
Q 2534 397 2845 478 
Q 3156 559 3463 722 
L 3463 178 
Q 3153 47 2828 -22 
Q 2503 -91 2169 -91 
Q 1331 -91 842 396 
Q 353 884 353 1716 
Q 353 2575 817 3079 
Q 1281 3584 2069 3584 
Q 2775 3584 3186 3129 
Q 3597 2675 3597 1894 
z
M 3022 2063 
Q 3016 2534 2758 2815 
Q 2500 3097 2075 3097 
Q 1594 3097 1305 2825 
Q 1016 2553 972 2059 
L 3022 2063 
z
" transform="scale(0.015625)"/>
      </defs>
      <use xlink:href="#DejaVuSans-54"/>
      <use xlink:href="#DejaVuSans-69" x="57.958984"/>
      <use xlink:href="#DejaVuSans-6d" x="85.742188"/>
      <use xlink:href="#DejaVuSans-65" x="183.154297"/>
     </g>
    </g>
   </g>
   <g id="matplotlib.axis_2">
    <g id="ytick_1">
     <g id="line2d_10">
      <defs>
       <path id="mba8272bbd7" d="M 0 0 
L -3.5 0 
" style="stroke: #000000; stroke-width: 0.8"/>
      </defs>
      <g>
       <use xlink:href="#mba8272bbd7" x="50.573438" y="217.321654" style="stroke: #000000; stroke-width: 0.8"/>
      </g>
     </g>
     <g id="text_11">
      <!-- -500 -->
      <g transform="translate(20.878125 221.120873) scale(0.1 -0.1)">
       <use xlink:href="#DejaVuSans-2d"/>
       <use xlink:href="#DejaVuSans-35" x="36.083984"/>
       <use xlink:href="#DejaVuSans-30" x="99.707031"/>
       <use xlink:href="#DejaVuSans-30" x="163.330078"/>
      </g>
     </g>
    </g>
    <g id="ytick_2">
     <g id="line2d_11">
      <g>
       <use xlink:href="#mba8272bbd7" x="50.573438" y="180.262831" style="stroke: #000000; stroke-width: 0.8"/>
      </g>
     </g>
     <g id="text_12">
      <!-- -400 -->
      <g transform="translate(20.878125 184.06205) scale(0.1 -0.1)">
       <use xlink:href="#DejaVuSans-2d"/>
       <use xlink:href="#DejaVuSans-34" x="36.083984"/>
       <use xlink:href="#DejaVuSans-30" x="99.707031"/>
       <use xlink:href="#DejaVuSans-30" x="163.330078"/>
      </g>
     </g>
    </g>
    <g id="ytick_3">
     <g id="line2d_12">
      <g>
       <use xlink:href="#mba8272bbd7" x="50.573438" y="143.204007" style="stroke: #000000; stroke-width: 0.8"/>
      </g>
     </g>
     <g id="text_13">
      <!-- -300 -->
      <g transform="translate(20.878125 147.003226) scale(0.1 -0.1)">
       <use xlink:href="#DejaVuSans-2d"/>
       <use xlink:href="#DejaVuSans-33" x="36.083984"/>
       <use xlink:href="#DejaVuSans-30" x="99.707031"/>
       <use xlink:href="#DejaVuSans-30" x="163.330078"/>
      </g>
     </g>
    </g>
    <g id="ytick_4">
     <g id="line2d_13">
      <g>
       <use xlink:href="#mba8272bbd7" x="50.573438" y="106.145184" style="stroke: #000000; stroke-width: 0.8"/>
      </g>
     </g>
     <g id="text_14">
      <!-- -200 -->
      <g transform="translate(20.878125 109.944403) scale(0.1 -0.1)">
       <use xlink:href="#DejaVuSans-2d"/>
       <use xlink:href="#DejaVuSans-32" x="36.083984"/>
       <use xlink:href="#DejaVuSans-30" x="99.707031"/>
       <use xlink:href="#DejaVuSans-30" x="163.330078"/>
      </g>
     </g>
    </g>
    <g id="ytick_5">
     <g id="line2d_14">
      <g>
       <use xlink:href="#mba8272bbd7" x="50.573438" y="69.08636" style="stroke: #000000; stroke-width: 0.8"/>
      </g>
     </g>
     <g id="text_15">
      <!-- -100 -->
      <g transform="translate(20.878125 72.885579) scale(0.1 -0.1)">
       <use xlink:href="#DejaVuSans-2d"/>
       <use xlink:href="#DejaVuSans-31" x="36.083984"/>
       <use xlink:href="#DejaVuSans-30" x="99.707031"/>
       <use xlink:href="#DejaVuSans-30" x="163.330078"/>
      </g>
     </g>
    </g>
    <g id="ytick_6">
     <g id="line2d_15">
      <g>
       <use xlink:href="#mba8272bbd7" x="50.573438" y="32.027537" style="stroke: #000000; stroke-width: 0.8"/>
      </g>
     </g>
     <g id="text_16">
      <!-- 0 -->
      <g transform="translate(37.210938 35.826756) scale(0.1 -0.1)">
       <use xlink:href="#DejaVuSans-30"/>
      </g>
     </g>
    </g>
    <g id="text_17">
     <!-- Cumulative Net Bikes (relative) -->
     <g transform="translate(14.798437 211.254375) rotate(-90) scale(0.1 -0.1)">
      <defs>
       <path id="DejaVuSans-43" d="M 4122 4306 
L 4122 3641 
Q 3803 3938 3442 4084 
Q 3081 4231 2675 4231 
Q 1875 4231 1450 3742 
Q 1025 3253 1025 2328 
Q 1025 1406 1450 917 
Q 1875 428 2675 428 
Q 3081 428 3442 575 
Q 3803 722 4122 1019 
L 4122 359 
Q 3791 134 3420 21 
Q 3050 -91 2638 -91 
Q 1578 -91 968 557 
Q 359 1206 359 2328 
Q 359 3453 968 4101 
Q 1578 4750 2638 4750 
Q 3056 4750 3426 4639 
Q 3797 4528 4122 4306 
z
" transform="scale(0.015625)"/>
       <path id="DejaVuSans-75" d="M 544 1381 
L 544 3500 
L 1119 3500 
L 1119 1403 
Q 1119 906 1312 657 
Q 1506 409 1894 409 
Q 2359 409 2629 706 
Q 2900 1003 2900 1516 
L 2900 3500 
L 3475 3500 
L 3475 0 
L 2900 0 
L 2900 538 
Q 2691 219 2414 64 
Q 2138 -91 1772 -91 
Q 1169 -91 856 284 
Q 544 659 544 1381 
z
M 1991 3584 
L 1991 3584 
z
" transform="scale(0.015625)"/>
       <path id="DejaVuSans-6c" d="M 603 4863 
L 1178 4863 
L 1178 0 
L 603 0 
L 603 4863 
z
" transform="scale(0.015625)"/>
       <path id="DejaVuSans-61" d="M 2194 1759 
Q 1497 1759 1228 1600 
Q 959 1441 959 1056 
Q 959 750 1161 570 
Q 1363 391 1709 391 
Q 2188 391 2477 730 
Q 2766 1069 2766 1631 
L 2766 1759 
L 2194 1759 
z
M 3341 1997 
L 3341 0 
L 2766 0 
L 2766 531 
Q 2569 213 2275 61 
Q 1981 -91 1556 -91 
Q 1019 -91 701 211 
Q 384 513 384 1019 
Q 384 1609 779 1909 
Q 1175 2209 1959 2209 
L 2766 2209 
L 2766 2266 
Q 2766 2663 2505 2880 
Q 2244 3097 1772 3097 
Q 1472 3097 1187 3025 
Q 903 2953 641 2809 
L 641 3341 
Q 956 3463 1253 3523 
Q 1550 3584 1831 3584 
Q 2591 3584 2966 3190 
Q 3341 2797 3341 1997 
z
" transform="scale(0.015625)"/>
       <path id="DejaVuSans-74" d="M 1172 4494 
L 1172 3500 
L 2356 3500 
L 2356 3053 
L 1172 3053 
L 1172 1153 
Q 1172 725 1289 603 
Q 1406 481 1766 481 
L 2356 481 
L 2356 0 
L 1766 0 
Q 1100 0 847 248 
Q 594 497 594 1153 
L 594 3053 
L 172 3053 
L 172 3500 
L 594 3500 
L 594 4494 
L 1172 4494 
z
" transform="scale(0.015625)"/>
       <path id="DejaVuSans-76" d="M 191 3500 
L 800 3500 
L 1894 563 
L 2988 3500 
L 3597 3500 
L 2284 0 
L 1503 0 
L 191 3500 
z
" transform="scale(0.015625)"/>
       <path id="DejaVuSans-20" transform="scale(0.015625)"/>
       <path id="DejaVuSans-4e" d="M 628 4666 
L 1478 4666 
L 3547 763 
L 3547 4666 
L 4159 4666 
L 4159 0 
L 3309 0 
L 1241 3903 
L 1241 0 
L 628 0 
L 628 4666 
z
" transform="scale(0.015625)"/>
       <path id="DejaVuSans-42" d="M 1259 2228 
L 1259 519 
L 2272 519 
Q 2781 519 3026 730 
Q 3272 941 3272 1375 
Q 3272 1813 3026 2020 
Q 2781 2228 2272 2228 
L 1259 2228 
z
M 1259 4147 
L 1259 2741 
L 2194 2741 
Q 2656 2741 2882 2914 
Q 3109 3088 3109 3444 
Q 3109 3797 2882 3972 
Q 2656 4147 2194 4147 
L 1259 4147 
z
M 628 4666 
L 2241 4666 
Q 2963 4666 3353 4366 
Q 3744 4066 3744 3513 
Q 3744 3084 3544 2831 
Q 3344 2578 2956 2516 
Q 3422 2416 3680 2098 
Q 3938 1781 3938 1306 
Q 3938 681 3513 340 
Q 3088 0 2303 0 
L 628 0 
L 628 4666 
z
" transform="scale(0.015625)"/>
       <path id="DejaVuSans-6b" d="M 581 4863 
L 1159 4863 
L 1159 1991 
L 2875 3500 
L 3609 3500 
L 1753 1863 
L 3688 0 
L 2938 0 
L 1159 1709 
L 1159 0 
L 581 0 
L 581 4863 
z
" transform="scale(0.015625)"/>
       <path id="DejaVuSans-73" d="M 2834 3397 
L 2834 2853 
Q 2591 2978 2328 3040 
Q 2066 3103 1784 3103 
Q 1356 3103 1142 2972 
Q 928 2841 928 2578 
Q 928 2378 1081 2264 
Q 1234 2150 1697 2047 
L 1894 2003 
Q 2506 1872 2764 1633 
Q 3022 1394 3022 966 
Q 3022 478 2636 193 
Q 2250 -91 1575 -91 
Q 1294 -91 989 -36 
Q 684 19 347 128 
L 347 722 
Q 666 556 975 473 
Q 1284 391 1588 391 
Q 1994 391 2212 530 
Q 2431 669 2431 922 
Q 2431 1156 2273 1281 
Q 2116 1406 1581 1522 
L 1381 1569 
Q 847 1681 609 1914 
Q 372 2147 372 2553 
Q 372 3047 722 3315 
Q 1072 3584 1716 3584 
Q 2034 3584 2315 3537 
Q 2597 3491 2834 3397 
z
" transform="scale(0.015625)"/>
       <path id="DejaVuSans-28" d="M 1984 4856 
Q 1566 4138 1362 3434 
Q 1159 2731 1159 2009 
Q 1159 1288 1364 580 
Q 1569 -128 1984 -844 
L 1484 -844 
Q 1016 -109 783 600 
Q 550 1309 550 2009 
Q 550 2706 781 3412 
Q 1013 4119 1484 4856 
L 1984 4856 
z
" transform="scale(0.015625)"/>
       <path id="DejaVuSans-72" d="M 2631 2963 
Q 2534 3019 2420 3045 
Q 2306 3072 2169 3072 
Q 1681 3072 1420 2755 
Q 1159 2438 1159 1844 
L 1159 0 
L 581 0 
L 581 3500 
L 1159 3500 
L 1159 2956 
Q 1341 3275 1631 3429 
Q 1922 3584 2338 3584 
Q 2397 3584 2469 3576 
Q 2541 3569 2628 3553 
L 2631 2963 
z
" transform="scale(0.015625)"/>
       <path id="DejaVuSans-29" d="M 513 4856 
L 1013 4856 
Q 1481 4119 1714 3412 
Q 1947 2706 1947 2009 
Q 1947 1309 1714 600 
Q 1481 -109 1013 -844 
L 513 -844 
Q 928 -128 1133 580 
Q 1338 1288 1338 2009 
Q 1338 2731 1133 3434 
Q 928 4138 513 4856 
z
" transform="scale(0.015625)"/>
      </defs>
      <use xlink:href="#DejaVuSans-43"/>
      <use xlink:href="#DejaVuSans-75" x="69.824219"/>
      <use xlink:href="#DejaVuSans-6d" x="133.203125"/>
      <use xlink:href="#DejaVuSans-75" x="230.615234"/>
      <use xlink:href="#DejaVuSans-6c" x="293.994141"/>
      <use xlink:href="#DejaVuSans-61" x="321.777344"/>
      <use xlink:href="#DejaVuSans-74" x="383.056641"/>
      <use xlink:href="#DejaVuSans-69" x="422.265625"/>
      <use xlink:href="#DejaVuSans-76" x="450.048828"/>
      <use xlink:href="#DejaVuSans-65" x="509.228516"/>
      <use xlink:href="#DejaVuSans-20" x="570.751953"/>
      <use xlink:href="#DejaVuSans-4e" x="602.539062"/>
      <use xlink:href="#DejaVuSans-65" x="677.34375"/>
      <use xlink:href="#DejaVuSans-74" x="738.867188"/>
      <use xlink:href="#DejaVuSans-20" x="778.076172"/>
      <use xlink:href="#DejaVuSans-42" x="809.863281"/>
      <use xlink:href="#DejaVuSans-69" x="878.466797"/>
      <use xlink:href="#DejaVuSans-6b" x="906.25"/>
      <use xlink:href="#DejaVuSans-65" x="960.535156"/>
      <use xlink:href="#DejaVuSans-73" x="1022.058594"/>
      <use xlink:href="#DejaVuSans-20" x="1074.158203"/>
      <use xlink:href="#DejaVuSans-28" x="1105.945312"/>
      <use xlink:href="#DejaVuSans-72" x="1144.958984"/>
      <use xlink:href="#DejaVuSans-65" x="1183.822266"/>
      <use xlink:href="#DejaVuSans-6c" x="1245.345703"/>
      <use xlink:href="#DejaVuSans-61" x="1273.128906"/>
      <use xlink:href="#DejaVuSans-74" x="1334.408203"/>
      <use xlink:href="#DejaVuSans-69" x="1373.617188"/>
      <use xlink:href="#DejaVuSans-76" x="1401.400391"/>
      <use xlink:href="#DejaVuSans-65" x="1460.580078"/>
      <use xlink:href="#DejaVuSans-29" x="1522.103516"/>
     </g>
    </g>
   </g>
   <g id="line2d_16">
    <path d="M 75.937074 32.398125 
L 75.955882 33.139301 
L 76.144168 33.50989 
L 76.301297 33.139301 
L 76.403102 33.50989 
L 76.413789 33.139301 
L 76.455051 33.50989 
L 76.541972 34.251066 
L 76.557522 35.362831 
L 76.79612 34.621654 
L 76.859205 35.362831 
L 77.320144 35.733419 
L 77.320412 36.104007 
L 77.436807 35.733419 
L 77.573443 36.104007 
L 81.059793 36.474596 
L 81.513208 37.215772 
L 81.51847 36.845184 
L 82.204829 37.215772 
L 82.206489 37.58636 
L 82.555409 37.956949 
L 82.700443 38.327537 
L 83.722551 38.698125 
L 83.823945 39.068713 
L 83.940787 38.698125 
L 84.07118 39.439301 
L 84.154068 40.180478 
L 84.293005 39.80989 
L 84.29515 40.180478 
L 84.706972 40.921654 
L 84.762233 42.033419 
L 85.097976 40.921654 
L 85.204459 42.404007 
L 85.61926 42.774596 
L 85.71521 43.88636 
L 85.772654 43.515772 
L 85.792518 43.88636 
L 85.857875 44.627537 
L 86.311288 44.998125 
L 86.655414 44.627537 
L 86.660829 44.998125 
L 86.874866 44.627537 
L 86.897109 44.998125 
L 87.402434 44.627537 
L 87.417412 44.998125 
L 87.450614 44.627537 
L 87.540862 44.998125 
L 87.805601 45.368713 
L 88.071622 44.627537 
L 88.163105 43.88636 
L 88.211025 44.256949 
L 88.389378 43.88636 
L 88.390966 43.515772 
L 88.659433 43.145184 
L 88.66299 43.515772 
L 88.68801 43.145184 
L 89.147615 42.774596 
L 89.249258 43.145184 
L 89.682089 42.774596 
L 90.270145 43.145184 
L 90.305678 43.515772 
L 90.839353 43.88636 
L 91.156781 43.145184 
L 92.413572 43.515772 
L 92.703814 43.145184 
L 92.791099 43.515772 
L 93.265302 43.88636 
L 93.293541 44.627537 
L 93.407486 44.256949 
L 93.560205 44.627537 
L 93.912514 44.998125 
L 93.980937 45.368713 
L 97.352922 44.998125 
L 97.960945 45.368713 
L 99.1866 44.998125 
L 99.227042 45.368713 
L 99.435378 44.998125 
L 99.681695 45.368713 
L 100.446531 44.998125 
L 100.477589 45.368713 
L 100.696704 44.998125 
L 100.766869 45.368713 
L 102.384294 44.998125 
L 102.496159 44.627537 
L 102.703435 44.998125 
L 102.826066 44.256949 
L 103.166235 45.368713 
L 103.184553 45.739301 
L 103.595475 46.480478 
L 104.316156 44.998125 
L 104.423832 44.627537 
L 104.675194 45.739301 
L 104.745619 45.368713 
L 104.749044 45.739301 
L 104.762471 46.480478 
L 104.966447 47.221654 
L 105.06467 47.962831 
L 105.128203 47.592243 
L 105.334601 47.962831 
L 105.578294 47.592243 
L 105.599262 47.221654 
L 106.049304 46.10989 
L 106.297472 46.480478 
L 106.886486 46.851066 
L 106.979991 46.480478 
L 107.542891 46.10989 
L 107.633168 45.739301 
L 107.717753 46.10989 
L 108.143341 46.480478 
L 108.273554 46.10989 
L 113.311629 45.739301 
L 113.320488 46.10989 
L 113.76386 46.480478 
L 113.962226 46.851066 
L 114.11448 47.962831 
L 114.330326 49.074596 
L 115.011291 52.40989 
L 115.509348 52.780478 
L 115.540465 53.151066 
L 116.337565 53.521654 
L 116.343618 53.892243 
L 116.480062 54.262831 
L 116.625702 53.892243 
L 116.730165 54.262831 
L 117.395404 54.633419 
L 117.568126 55.004007 
L 117.610637 55.374596 
L 117.724428 55.004007 
L 117.868827 55.374596 
L 118.365267 55.745184 
L 118.422219 56.115772 
L 118.508555 55.745184 
L 118.792265 56.115772 
L 119.385749 55.745184 
L 119.738833 55.374596 
L 119.760829 56.115772 
L 120.101465 55.374596 
L 120.108406 55.745184 
L 120.108685 56.115772 
L 120.121901 55.745184 
L 120.222749 56.115772 
L 120.388818 54.262831 
L 120.428999 54.633419 
L 120.442471 54.262831 
L 120.745042 53.892243 
L 120.862199 54.633419 
L 120.878717 54.262831 
L 121.035908 53.521654 
L 121.179049 53.892243 
L 121.250297 53.521654 
L 121.376775 53.892243 
L 121.614981 52.780478 
L 121.674721 52.40989 
L 121.710958 52.780478 
L 121.854959 52.40989 
L 122.069449 53.151066 
L 122.200977 53.892243 
L 122.220971 53.521654 
L 122.672795 53.892243 
L 122.734638 53.521654 
L 122.91075 53.892243 
L 122.974585 53.521654 
L 123.693454 53.892243 
L 123.988244 53.521654 
L 123.991641 53.151066 
L 124.167001 52.780478 
L 124.200228 53.151066 
L 124.726673 52.780478 
L 124.785534 52.039301 
L 126.258739 52.40989 
L 129.62598 52.780478 
L 129.732802 53.151066 
L 129.772417 52.780478 
L 129.781896 53.151066 
L 129.805435 53.521654 
L 130.31792 53.892243 
L 130.413789 54.633419 
L 130.431451 54.262831 
L 130.661783 55.004007 
L 130.701736 54.633419 
L 130.743257 54.262831 
L 130.789532 54.633419 
L 131.122696 57.227537 
L 131.168396 57.598125 
L 131.509632 57.968713 
L 131.70013 57.598125 
L 131.846476 58.339301 
L 132.479362 59.080478 
L 132.659812 58.70989 
L 132.834025 59.080478 
L 132.865309 59.451066 
L 133.068839 59.080478 
L 133.1903 60.562831 
L 133.368968 60.933419 
L 133.379417 61.304007 
L 133.469342 60.933419 
L 133.520533 61.304007 
L 134.000445 61.674596 
L 134.630283 61.304007 
L 134.677682 60.933419 
L 134.698961 61.304007 
L 134.877335 61.674596 
L 134.924604 62.045184 
L 135.522703 61.674596 
L 135.722475 62.415772 
L 136.150015 62.045184 
L 136.414701 60.933419 
L 136.581342 61.304007 
L 136.724426 60.933419 
L 136.887447 62.415772 
L 137.13922 62.045184 
L 137.224019 62.415772 
L 137.259144 62.045184 
L 137.311255 62.415772 
L 137.38483 62.045184 
L 137.394145 62.415772 
L 137.529316 62.78636 
L 137.680003 63.156949 
L 137.752058 63.898125 
L 137.789582 63.527537 
L 137.886009 62.78636 
L 138.078813 62.415772 
L 138.245878 63.156949 
L 138.24871 62.78636 
L 138.453178 63.527537 
L 138.506094 64.268713 
L 138.834403 65.00989 
L 138.913604 65.751066 
L 139.210265 65.380478 
L 139.459089 63.898125 
L 139.5149 63.527537 
L 139.546839 63.898125 
L 139.730696 63.527537 
L 139.743965 63.898125 
L 139.779293 63.527537 
L 139.924427 63.156949 
L 140.064027 63.527537 
L 140.085601 63.156949 
L 140.211051 63.527537 
L 140.231616 62.78636 
L 140.785359 62.415772 
L 141.135146 62.045184 
L 141.2036 61.674596 
L 142.140753 61.304007 
L 142.323299 61.674596 
L 142.705313 61.304007 
L 143.323606 61.674596 
L 146.121509 62.045184 
L 146.424688 61.674596 
L 146.611979 63.156949 
L 146.735375 63.898125 
L 146.833806 65.00989 
L 147.285109 67.233419 
L 147.506661 66.862831 
L 148.686443 67.233419 
L 148.716776 67.604007 
L 148.803923 67.233419 
L 149.109382 67.604007 
L 149.646892 67.233419 
L 151.553997 66.862831 
L 153.266063 67.233419 
L 153.404777 66.492243 
L 153.580197 66.862831 
L 153.765909 67.604007 
L 154.035371 66.492243 
L 154.199144 65.00989 
L 154.20424 65.380478 
L 154.390784 66.121654 
L 154.415376 65.751066 
L 154.559015 65.380478 
L 154.631048 63.527537 
L 154.656272 64.268713 
L 154.677867 64.639301 
L 154.736695 63.898125 
L 154.809925 63.527537 
L 154.831204 63.898125 
L 155.043076 65.751066 
L 155.522872 65.380478 
L 155.581911 65.00989 
L 156.001012 66.121654 
L 156.042391 65.00989 
L 156.269644 64.639301 
L 156.401734 63.898125 
L 156.656068 63.527537 
L 157.115334 63.156949 
L 157.123322 62.415772 
L 157.251035 62.045184 
L 157.32021 62.415772 
L 159.106873 62.045184 
L 159.525418 61.674596 
L 162.378064 62.045184 
L 162.551503 62.415772 
L 162.676902 63.156949 
L 163.122081 63.527537 
L 163.285267 65.00989 
L 163.521298 66.121654 
L 163.701319 69.08636 
L 164.062545 71.30989 
L 164.632575 72.051066 
L 164.982594 71.680478 
L 165.194522 72.051066 
L 165.909901 72.421654 
L 165.97741 72.051066 
L 165.983208 72.421654 
L 166.465914 73.162831 
L 166.668625 73.533419 
L 167.009718 73.162831 
L 167.33792 74.274596 
L 167.918361 75.015772 
L 168.074994 75.38636 
L 168.595564 75.015772 
L 169.059104 75.38636 
L 169.13418 74.645184 
L 169.187823 75.015772 
L 169.194702 75.38636 
L 169.62362 76.127537 
L 169.6429 76.498125 
L 169.689802 75.756949 
L 169.8347 76.127537 
L 169.95632 75.756949 
L 170.108451 76.127537 
L 170.353419 75.756949 
L 170.576441 73.533419 
L 170.592129 74.274596 
L 170.672883 73.904007 
L 171.263851 73.533419 
L 171.407957 72.421654 
L 171.618503 73.162831 
L 171.848821 73.533419 
L 171.851369 73.904007 
L 172.009268 73.533419 
L 172.187545 73.904007 
L 172.626264 74.274596 
L 173.267016 72.421654 
L 173.917112 72.051066 
L 174.087372 71.680478 
L 174.101023 72.051066 
L 174.579449 71.30989 
L 175.121731 70.939301 
L 175.461839 71.30989 
L 176.38254 70.939301 
L 178.916512 71.30989 
L 179.418672 70.939301 
L 179.673095 71.680478 
L 179.95263 71.30989 
L 180.108532 71.680478 
L 180.242941 73.162831 
L 180.28302 72.792243 
L 180.575885 73.904007 
L 180.684085 74.645184 
L 180.752183 75.38636 
L 181.338994 75.756949 
L 181.883547 76.498125 
L 181.993266 76.127537 
L 182.075887 76.868713 
L 182.085014 76.498125 
L 182.377239 76.868713 
L 182.479376 77.239301 
L 182.952444 76.868713 
L 183.240883 78.721654 
L 183.242568 79.092243 
L 183.377406 79.462831 
L 183.383389 79.833419 
L 183.391578 78.721654 
L 183.773337 79.092243 
L 183.86686 79.833419 
L 184.057811 79.462831 
L 184.064939 79.833419 
L 184.291054 80.204007 
L 184.319681 80.574596 
L 184.556964 80.945184 
L 185.175119 81.315772 
L 185.355257 80.574596 
L 185.388861 80.945184 
L 185.42288 80.574596 
L 185.913545 82.056949 
L 186.110539 82.427537 
L 186.158062 82.056949 
L 186.233448 82.427537 
L 186.294573 81.68636 
L 186.340204 82.056949 
L 186.677214 81.68636 
L 186.771844 82.056949 
L 186.787722 81.68636 
L 186.788652 81.315772 
L 187.020148 81.68636 
L 187.031704 81.315772 
L 187.077371 82.056949 
L 187.234013 82.427537 
L 187.360715 84.280478 
L 187.572218 85.021654 
L 187.84486 84.651066 
L 187.904775 85.021654 
L 187.973805 84.651066 
L 188.10916 86.133419 
L 188.177091 86.874596 
L 188.177282 86.504007 
L 188.354936 86.133419 
L 188.441035 86.874596 
L 189.409246 86.504007 
L 189.436721 85.392243 
L 189.552784 85.021654 
L 189.684453 86.504007 
L 189.930022 85.392243 
L 190.33438 85.021654 
L 190.39312 85.392243 
L 190.619877 85.762831 
L 190.621913 86.133419 
L 190.63995 85.762831 
L 190.85226 84.651066 
L 190.923369 84.280478 
L 191.167886 84.651066 
L 191.170425 85.021654 
L 191.399438 85.392243 
L 191.40194 85.762831 
L 191.526034 86.504007 
L 191.549585 87.245184 
L 191.70739 86.874596 
L 191.708037 86.504007 
L 192.003378 86.133419 
L 192.418307 86.874596 
L 192.653701 87.615772 
L 195.640368 87.245184 
L 195.92626 87.615772 
L 195.944316 87.98636 
L 196.130324 87.615772 
L 196.671707 87.98636 
L 196.97361 87.615772 
L 197.250759 88.727537 
L 197.629785 89.839301 
L 197.673992 90.20989 
L 197.85036 89.839301 
L 197.878434 90.20989 
L 198.188803 90.580478 
L 198.497777 90.20989 
L 198.873675 92.062831 
L 199.066171 92.804007 
L 199.228998 92.433419 
L 199.403444 92.062831 
L 199.480529 92.804007 
L 199.541592 92.433419 
L 199.993575 92.804007 
L 200.063812 92.062831 
L 200.134678 92.433419 
L 200.156477 92.804007 
L 200.418751 92.433419 
L 200.529801 92.804007 
L 200.584452 92.433419 
L 200.789429 92.062831 
L 200.794149 92.433419 
L 200.831095 92.062831 
L 201.096472 91.321654 
L 201.208838 91.692243 
L 201.492403 92.062831 
L 201.636634 91.692243 
L 201.819257 92.062831 
L 201.991368 92.804007 
L 202.191457 92.433419 
L 202.273092 92.804007 
L 202.63245 92.433419 
L 202.806338 92.062831 
L 202.860196 92.433419 
L 202.891302 92.062831 
L 203.082173 91.321654 
L 203.106359 91.692243 
L 203.336623 92.062831 
L 203.559206 91.692243 
L 203.989952 91.321654 
L 203.996809 90.580478 
L 204.227101 90.951066 
L 204.350084 91.692243 
L 204.540188 91.321654 
L 204.549526 91.692243 
L 204.865199 91.321654 
L 204.951798 90.951066 
L 205.777085 91.321654 
L 205.791505 90.951066 
L 205.848134 91.692243 
L 205.884853 92.433419 
L 206.0565 92.062831 
L 206.104781 91.321654 
L 206.185725 90.951066 
L 206.279405 91.321654 
L 206.391955 90.951066 
L 206.896815 92.062831 
L 207.290844 91.692243 
L 207.293983 92.062831 
L 207.648692 91.692243 
L 207.992188 92.433419 
L 208.353029 91.692243 
L 209.372461 91.321654 
L 209.523001 91.692243 
L 209.915353 91.321654 
L 210.477103 91.692243 
L 213.533876 92.062831 
L 214.01731 92.433419 
L 214.456555 92.062831 
L 214.646107 91.692243 
L 214.789951 92.062831 
L 215.073527 92.433419 
L 215.372844 91.321654 
L 215.768792 92.062831 
L 215.798853 91.692243 
L 216.067855 92.804007 
L 216.104976 92.433419 
L 216.370399 92.062831 
L 216.481277 92.433419 
L 216.736342 93.174596 
L 216.92469 92.804007 
L 217.16051 94.28636 
L 217.191667 93.915772 
L 217.303674 94.656949 
L 217.415072 95.768713 
L 217.426518 97.251066 
L 217.49294 96.880478 
L 217.577029 97.251066 
L 217.633601 96.880478 
L 217.691606 97.251066 
L 217.973353 96.50989 
L 218.126855 97.251066 
L 218.312242 97.621654 
L 218.418707 97.251066 
L 218.625058 97.621654 
L 218.846178 97.251066 
L 218.899543 97.621654 
L 219.165493 97.251066 
L 219.271846 97.621654 
L 219.466098 97.251066 
L 219.466587 96.880478 
L 219.863775 96.50989 
L 219.864176 96.139301 
L 219.963168 97.621654 
L 220.002283 97.992243 
L 220.221387 98.362831 
L 220.297954 99.104007 
L 220.305545 98.733419 
L 220.548537 98.362831 
L 220.923711 98.733419 
L 220.929259 99.104007 
L 221.265937 98.733419 
L 221.290794 98.362831 
L 221.608312 98.733419 
L 221.763166 98.362831 
L 221.789718 97.992243 
L 222.777083 97.251066 
L 222.779582 96.880478 
L 223.070719 96.50989 
L 223.276771 96.880478 
L 223.278586 96.50989 
L 224.798509 96.139301 
L 228.404112 96.50989 
L 228.792467 97.621654 
L 228.824702 98.362831 
L 229.154798 98.733419 
L 229.920626 98.362831 
L 230.182226 97.992243 
L 230.225012 98.362831 
L 230.934335 99.104007 
L 231.075329 99.845184 
L 231.079786 100.215772 
L 231.223706 100.58636 
L 231.237255 100.215772 
L 231.25212 100.58636 
L 231.358497 100.956949 
L 231.47935 100.215772 
L 231.489943 100.58636 
L 231.516365 100.956949 
L 231.741447 101.327537 
L 231.763734 100.956949 
L 232.026542 102.068713 
L 232.088568 101.698125 
L 232.371148 102.439301 
L 232.473751 102.068713 
L 232.78634 102.439301 
L 233.367521 102.80989 
L 233.515503 103.551066 
L 233.700724 103.180478 
L 234.188278 102.80989 
L 234.337043 103.180478 
L 234.382392 102.80989 
L 234.616597 102.439301 
L 234.657143 101.698125 
L 234.719783 102.068713 
L 234.758695 102.439301 
L 234.805922 102.068713 
L 234.83214 101.698125 
L 235.028402 102.439301 
L 235.239345 101.327537 
L 235.261419 101.698125 
L 235.445599 103.180478 
L 235.561407 102.80989 
L 235.649323 103.180478 
L 235.76762 102.439301 
L 235.909977 103.180478 
L 235.913413 103.551066 
L 236.01535 103.180478 
L 236.065251 102.068713 
L 236.107161 103.180478 
L 236.424945 101.698125 
L 236.565093 100.956949 
L 236.762469 99.474596 
L 236.936362 99.845184 
L 236.96102 99.104007 
L 237.166797 99.474596 
L 237.544916 98.733419 
L 237.556395 99.104007 
L 237.774938 99.474596 
L 237.879683 98.733419 
L 238.015563 99.104007 
L 238.082619 98.733419 
L 238.217949 99.104007 
L 238.293424 99.845184 
L 238.328999 99.474596 
L 238.364086 99.104007 
L 238.611105 98.733419 
L 238.628451 99.104007 
L 238.657729 98.733419 
L 238.861947 99.104007 
L 238.874791 99.474596 
L 238.953934 99.104007 
L 239.709007 98.733419 
L 239.714094 98.362831 
L 239.870974 97.992243 
L 240.483801 98.362831 
L 243.791138 98.733419 
L 244.875559 99.474596 
L 245.021848 99.845184 
L 245.135234 101.698125 
L 245.629201 106.145184 
L 245.717231 105.774596 
L 245.726301 106.145184 
L 245.80483 106.88636 
L 246.143711 107.256949 
L 246.177364 106.88636 
L 246.216839 107.627537 
L 247.409206 111.333419 
L 247.74606 111.704007 
L 247.779587 111.333419 
L 247.824396 111.704007 
L 248.105434 111.333419 
L 248.196092 111.704007 
L 248.42413 112.074596 
L 248.489219 111.704007 
L 248.530066 112.074596 
L 248.667371 113.18636 
L 248.85047 112.445184 
L 249.13556 112.815772 
L 249.231937 112.445184 
L 249.667686 112.074596 
L 249.73939 112.445184 
L 250.062533 112.074596 
L 250.198269 111.704007 
L 250.253888 112.074596 
L 250.380274 111.704007 
L 250.503559 112.074596 
L 250.508531 111.704007 
L 250.63151 112.074596 
L 250.713705 111.704007 
L 250.876687 112.445184 
L 250.905368 112.074596 
L 250.905775 111.704007 
L 251.018086 111.333419 
L 251.215922 112.074596 
L 251.223409 111.704007 
L 251.350152 110.592243 
L 251.376935 110.962831 
L 251.46234 112.074596 
L 251.474221 111.333419 
L 251.525345 110.962831 
L 251.54559 111.333419 
L 251.650848 111.704007 
L 251.762998 112.074596 
L 251.886882 110.592243 
L 251.904356 111.333419 
L 251.990503 110.592243 
L 252.061938 108.739301 
L 252.124575 109.10989 
L 252.223163 109.851066 
L 252.235109 109.10989 
L 252.590833 107.256949 
L 252.626748 107.627537 
L 252.695384 108.368713 
L 252.706985 107.998125 
L 252.787709 109.480478 
L 252.919692 110.221654 
L 253.018029 109.851066 
L 253.1929 110.221654 
L 253.46527 110.592243 
L 253.489958 110.221654 
L 253.57656 110.592243 
L 253.671482 109.851066 
L 253.772344 110.221654 
L 253.934017 109.851066 
L 254.042582 110.221654 
L 254.316272 109.851066 
L 254.444026 108.739301 
L 254.481342 109.480478 
L 254.485311 109.851066 
L 254.574632 108.739301 
L 254.667201 107.627537 
L 254.963815 106.145184 
L 255.008537 106.515772 
L 255.108993 107.256949 
L 255.353366 106.515772 
L 255.652277 106.88636 
L 255.777911 106.515772 
L 256.270093 106.88636 
L 256.32568 107.256949 
L 260.251287 107.627537 
L 261.223328 107.998125 
L 261.262652 108.368713 
L 261.381732 107.998125 
L 261.475512 108.368713 
L 261.819067 110.962831 
L 261.869542 111.704007 
L 261.964995 112.445184 
L 262.049667 113.18636 
L 262.065895 112.445184 
L 262.319599 114.668713 
L 262.38337 114.298125 
L 262.580587 114.668713 
L 263.120038 114.298125 
L 263.4203 113.927537 
L 263.427342 114.298125 
L 264.079158 113.927537 
L 264.166483 113.556949 
L 264.183779 113.927537 
L 264.450728 113.556949 
L 264.507665 113.927537 
L 264.529131 113.556949 
L 264.786804 113.18636 
L 264.963271 113.556949 
L 265.000012 113.18636 
L 265.606118 113.556949 
L 265.779285 113.18636 
L 265.894694 113.556949 
L 267.300337 112.445184 
L 267.343775 112.074596 
L 267.534458 111.704007 
L 267.659121 112.445184 
L 267.695509 112.074596 
L 267.759224 112.445184 
L 267.93007 112.074596 
L 268.137838 112.445184 
L 268.288168 111.704007 
L 268.29382 111.333419 
L 268.383187 111.704007 
L 268.464406 112.074596 
L 268.501039 111.333419 
L 268.680036 111.704007 
L 268.848114 113.556949 
L 268.849668 113.18636 
L 269.018571 111.704007 
L 269.021199 112.074596 
L 269.114114 112.815772 
L 269.131647 112.445184 
L 269.252801 110.592243 
L 269.263076 110.962831 
L 269.389405 110.592243 
L 269.413341 110.962831 
L 269.541014 110.592243 
L 269.603834 111.333419 
L 269.724391 110.962831 
L 269.785086 110.221654 
L 270.224511 109.851066 
L 270.341829 111.333419 
L 270.441477 111.704007 
L 270.467815 111.333419 
L 270.602563 111.704007 
L 270.913059 110.221654 
L 270.979548 105.033419 
L 271.046215 105.404007 
L 271.090386 105.033419 
L 271.345144 105.774596 
L 271.404948 105.033419 
L 271.472383 105.404007 
L 271.648201 106.88636 
L 271.736579 106.515772 
L 271.836174 106.88636 
L 271.870491 106.515772 
L 272.107432 106.88636 
L 272.241346 107.627537 
L 272.363182 107.256949 
L 272.420914 107.627537 
L 272.466315 107.256949 
L 272.605413 107.627537 
L 272.677328 107.256949 
L 272.84962 107.627537 
L 272.875371 108.368713 
L 273.05105 107.998125 
L 273.444861 108.368713 
L 273.58041 107.998125 
L 273.583096 107.627537 
L 274.202809 107.256949 
L 277.072748 107.627537 
L 277.576661 107.256949 
L 277.587299 107.627537 
L 277.816925 107.998125 
L 278.286493 112.074596 
L 278.533078 112.815772 
L 278.589959 113.556949 
L 278.875465 113.18636 
L 278.880882 113.556949 
L 279.044846 113.927537 
L 279.540444 113.556949 
L 279.99082 113.927537 
L 280.083312 114.668713 
L 280.586977 115.039301 
L 280.762815 115.780478 
L 280.912412 116.521654 
L 280.956552 117.262831 
L 281.15617 116.521654 
L 281.326892 116.892243 
L 282.4616 116.521654 
L 282.493202 116.892243 
L 282.845712 117.633419 
L 282.988142 116.521654 
L 283.209863 116.892243 
L 283.650416 116.521654 
L 283.770119 115.780478 
L 283.783123 116.151066 
L 283.903589 116.521654 
L 283.905464 116.892243 
L 284.051749 116.151066 
L 284.415276 115.780478 
L 284.598087 115.039301 
L 284.878169 114.298125 
L 285.049163 115.780478 
L 285.093909 115.40989 
L 285.126127 115.780478 
L 285.176392 118.004007 
L 285.265375 117.262831 
L 285.401243 116.151066 
L 285.40876 116.521654 
L 285.418377 116.892243 
L 285.622036 117.262831 
L 285.670848 115.780478 
L 285.676912 116.151066 
L 285.793941 116.521654 
L 285.988888 116.151066 
L 286.003487 116.521654 
L 286.081465 115.780478 
L 286.250683 114.298125 
L 286.40214 112.815772 
L 286.514379 113.18636 
L 286.621379 112.445184 
L 286.750148 112.074596 
L 286.759327 112.815772 
L 286.952418 113.18636 
L 286.978382 113.556949 
L 287.456552 112.074596 
L 287.572279 112.815772 
L 287.952964 112.074596 
L 288.167926 112.445184 
L 288.201466 112.074596 
L 288.355835 112.815772 
L 288.604064 112.445184 
L 288.608367 112.074596 
L 288.835075 112.445184 
L 288.835339 112.815772 
L 289.094646 113.18636 
L 289.105957 113.556949 
L 289.315872 113.18636 
L 289.439116 112.445184 
L 289.66642 112.074596 
L 290.365807 112.445184 
L 291.707766 112.074596 
L 292.802652 112.445184 
L 294.089353 113.18636 
L 294.375233 114.298125 
L 294.597694 114.668713 
L 294.710927 116.151066 
L 294.898534 116.521654 
L 294.954029 116.892243 
L 295.276069 117.633419 
L 295.388955 118.374596 
L 295.390424 118.745184 
L 295.617103 119.115772 
L 295.621727 119.48636 
L 295.797542 120.227537 
L 295.897315 120.968713 
L 296.04266 121.339301 
L 296.058082 120.968713 
L 296.386617 121.339301 
L 296.41937 122.080478 
L 296.58877 122.821654 
L 296.731644 123.562831 
L 296.763722 123.933419 
L 297.305812 124.674596 
L 297.539706 125.78636 
L 297.592778 125.045184 
L 297.627121 125.78636 
L 297.668712 126.156949 
L 297.778656 125.415772 
L 297.781811 125.045184 
L 297.822911 125.415772 
L 298.070705 125.045184 
L 298.275764 125.78636 
L 299.020554 123.562831 
L 299.396684 123.933419 
L 299.539067 122.821654 
L 299.873035 123.933419 
L 300.027482 123.562831 
L 300.225979 124.674596 
L 300.28805 124.304007 
L 300.504271 124.674596 
L 300.543902 125.78636 
L 300.734638 125.415772 
L 300.885293 126.156949 
L 300.889977 126.527537 
L 300.912613 125.78636 
L 301.050958 126.156949 
L 301.152894 127.268713 
L 301.181951 126.898125 
L 301.368859 126.527537 
L 301.373185 126.898125 
L 301.505447 126.527537 
L 301.633287 126.898125 
L 301.724644 127.639301 
L 301.78105 126.527537 
L 301.813463 126.156949 
L 301.835118 126.527537 
L 302.014983 127.268713 
L 302.140707 126.898125 
L 302.212852 127.268713 
L 302.214878 126.898125 
L 302.278703 125.78636 
L 302.28312 125.045184 
L 302.420126 125.78636 
L 302.459474 125.415772 
L 302.463048 125.045184 
L 302.467729 125.78636 
L 302.469651 125.415772 
L 302.600028 125.78636 
L 302.891376 126.156949 
L 302.970929 126.898125 
L 303.155579 126.156949 
L 303.156342 125.78636 
L 303.351969 126.156949 
L 303.40572 126.527537 
L 303.707344 125.78636 
L 303.709254 125.415772 
L 303.811342 125.78636 
L 304.286969 126.156949 
L 304.372447 125.415772 
L 304.452968 125.045184 
L 304.597835 124.674596 
L 304.942398 124.304007 
L 304.992619 123.933419 
L 305.339107 123.562831 
L 305.56761 122.451066 
L 305.837517 121.70989 
L 305.904341 120.968713 
L 306.573006 120.598125 
L 306.639216 120.968713 
L 306.644337 120.598125 
L 306.650583 120.227537 
L 306.794598 120.598125 
L 306.802513 120.968713 
L 306.969175 121.339301 
L 307.004543 120.968713 
L 309.879985 121.339301 
L 310.646678 121.70989 
L 310.708558 121.339301 
L 310.860996 120.968713 
L 310.967239 121.70989 
L 311.155638 122.080478 
L 311.473417 122.451066 
L 311.620141 122.080478 
L 311.696742 123.192243 
L 311.755466 124.304007 
L 311.954337 123.933419 
L 312.173861 124.304007 
L 312.226124 125.415772 
L 312.524746 126.527537 
L 312.706685 125.78636 
L 312.784817 126.156949 
L 312.971524 126.898125 
L 313.355977 131.345184 
L 313.505401 132.827537 
L 313.544305 133.198125 
L 313.676549 132.827537 
L 313.771464 131.715772 
L 313.913055 132.08636 
L 313.97749 131.715772 
L 313.986648 132.08636 
L 313.987796 132.456949 
L 314.116935 132.827537 
L 314.121759 133.198125 
L 314.413808 132.827537 
L 314.622118 132.08636 
L 314.674348 132.456949 
L 315.157919 132.827537 
L 315.479995 132.456949 
L 315.600057 132.827537 
L 315.88601 132.456949 
L 316.015386 132.827537 
L 316.054048 132.456949 
L 316.10536 132.827537 
L 316.318666 133.568713 
L 316.337445 133.198125 
L 316.369589 133.939301 
L 316.529221 134.30989 
L 316.53441 135.051066 
L 316.703649 135.421654 
L 316.812222 135.051066 
L 317.13888 138.015772 
L 317.519743 137.645184 
L 317.534554 138.015772 
L 317.71957 138.38636 
L 317.940999 137.274596 
L 318.120926 137.645184 
L 318.145066 138.015772 
L 318.303777 137.274596 
L 318.562335 136.162831 
L 318.668953 136.904007 
L 318.684544 136.533419 
L 318.758545 135.792243 
L 318.772965 136.162831 
L 318.975172 137.274596 
L 319.017953 136.533419 
L 319.066062 137.274596 
L 319.335386 137.645184 
L 319.424443 136.904007 
L 319.673228 137.274596 
L 319.674448 137.645184 
L 320.142899 136.904007 
L 320.208931 136.162831 
L 320.458294 136.904007 
L 320.465403 137.274596 
L 320.530509 136.533419 
L 320.858807 136.904007 
L 320.860863 136.533419 
L 321.018553 136.162831 
L 321.140427 135.051066 
L 321.284476 136.162831 
L 321.303082 135.792243 
L 321.349663 135.051066 
L 321.456605 135.421654 
L 321.484979 135.792243 
L 321.671617 136.162831 
L 321.678645 135.792243 
L 321.780343 136.162831 
L 321.78246 136.533419 
L 321.835604 135.051066 
L 322.045681 135.792243 
L 322.244856 136.162831 
L 322.311279 135.421654 
L 322.327113 135.792243 
L 322.671589 136.533419 
L 322.854393 135.421654 
L 322.940603 135.792243 
L 323.03643 135.421654 
L 323.212005 136.162831 
L 323.3258 136.533419 
L 323.723939 136.904007 
L 325.234409 136.162831 
L 326.306591 136.533419 
L 326.940772 136.904007 
L 327.042501 136.533419 
L 327.072559 136.904007 
L 327.147906 136.533419 
L 327.476773 135.421654 
L 328.085333 136.533419 
L 328.201729 137.274596 
L 328.226479 137.645184 
L 328.259736 136.904007 
L 328.461617 137.274596 
L 328.530849 138.015772 
L 328.757845 139.127537 
L 328.98829 140.980478 
L 328.99208 141.351066 
L 329.117886 140.980478 
L 329.149548 142.092243 
L 329.413982 141.721654 
L 329.417244 141.351066 
L 329.712368 142.092243 
L 329.732442 141.721654 
L 329.811948 142.092243 
L 330.34059 141.721654 
L 330.387009 142.462831 
L 330.606736 142.092243 
L 330.674103 141.351066 
L 330.758957 141.721654 
L 330.842554 142.462831 
L 330.904447 142.092243 
L 331.080961 141.721654 
L 331.311418 143.204007 
L 331.628383 142.462831 
L 331.628763 142.092243 
L 331.786341 141.721654 
L 331.820504 142.462831 
L 331.830793 142.092243 
L 331.954204 141.351066 
L 332.071513 140.239301 
L 332.302521 140.980478 
L 332.306401 141.351066 
L 332.430609 140.980478 
L 332.498256 141.721654 
L 332.583918 141.351066 
L 332.606743 140.980478 
L 332.835031 140.60989 
L 332.841583 140.980478 
L 333.061085 141.721654 
L 333.135624 141.351066 
L 333.137071 141.721654 
L 333.231112 142.833419 
L 333.414207 143.204007 
L 333.465732 144.315772 
L 334.156588 143.945184 
L 334.348124 142.462831 
L 334.430336 142.833419 
L 334.438208 143.204007 
L 334.516486 142.833419 
L 334.61787 143.574596 
L 334.92237 143.945184 
L 335.031202 143.574596 
L 335.70276 144.315772 
L 335.737043 143.945184 
L 335.976718 143.204007 
L 336.267652 143.945184 
L 336.878689 143.204007 
L 337.484838 143.574596 
L 337.537548 143.204007 
L 338.304927 142.833419 
L 338.309513 143.204007 
L 338.705808 142.833419 
L 342.078419 143.204007 
L 342.613087 143.574596 
L 342.723722 144.315772 
L 343.082987 144.68636 
L 343.300037 145.427537 
L 343.373845 145.056949 
L 343.402933 145.427537 
L 343.593491 147.280478 
L 343.654476 148.021654 
L 343.932853 148.392243 
L 344.031297 149.504007 
L 344.223316 150.98636 
L 344.584264 152.468713 
L 344.614993 152.098125 
L 344.763721 152.468713 
L 345.228972 152.839301 
L 346.134298 152.468713 
L 346.140082 152.839301 
L 346.190622 152.468713 
L 346.292495 152.098125 
L 346.32888 152.468713 
L 347.423597 153.20989 
L 347.483505 152.839301 
L 347.496827 153.20989 
L 348.03031 152.839301 
L 348.071393 153.20989 
L 348.55607 152.839301 
L 348.557316 152.468713 
L 348.711696 152.839301 
L 349.127101 152.098125 
L 349.200953 151.727537 
L 349.679406 152.098125 
L 349.873712 152.468713 
L 349.944276 152.098125 
L 350.0532 152.468713 
L 350.15242 152.098125 
L 350.244521 152.468713 
L 350.377333 151.727537 
L 350.44212 151.356949 
L 350.477478 151.727537 
L 350.616787 152.468713 
L 350.708263 152.839301 
L 350.797225 152.098125 
L 351.054224 152.839301 
L 351.3101 151.356949 
L 351.401073 150.98636 
L 351.417218 151.356949 
L 351.479788 152.098125 
L 351.581728 151.727537 
L 351.877181 151.356949 
L 352.023804 150.245184 
L 352.162951 151.356949 
L 352.318033 150.615772 
L 352.505578 151.356949 
L 352.631184 151.727537 
L 352.63668 151.356949 
L 352.870553 151.727537 
L 352.986925 152.468713 
L 353.427625 151.727537 
L 353.477818 151.356949 
L 353.978686 150.98636 
L 353.986753 151.356949 
L 353.998258 150.98636 
L 354.89559 151.727537 
L 358.615294 151.356949 
L 359.3908 152.468713 
L 359.585172 152.839301 
L 359.759016 153.951066 
L 360.030114 155.062831 
L 360.140505 156.174596 
L 360.376814 156.545184 
L 360.668674 159.139301 
L 360.795635 159.50989 
L 361.052974 158.768713 
L 361.13929 159.139301 
L 361.282971 159.50989 
L 361.707098 159.880478 
L 361.710413 159.50989 
L 361.744815 159.880478 
L 362.551589 159.50989 
L 362.635513 159.880478 
L 363.419376 159.50989 
L 363.852921 159.880478 
L 365.062249 159.50989 
L 365.210406 159.139301 
L 365.673189 158.768713 
L 365.814571 157.656949 
L 365.822182 158.027537 
L 366.198502 159.139301 
L 366.699679 157.28636 
L 366.704155 157.656949 
L 366.70872 158.027537 
L 366.793131 156.915772 
L 366.840226 157.28636 
L 366.873987 156.915772 
L 366.930462 156.174596 
L 367.02035 156.545184 
L 367.102201 156.174596 
L 367.199139 156.545184 
L 367.287128 155.804007 
L 367.40768 156.545184 
L 367.481384 156.915772 
L 367.48528 156.545184 
L 367.499263 155.804007 
L 367.688809 156.174596 
L 367.694878 156.545184 
L 367.824566 155.804007 
L 368.000402 154.321654 
L 368.045823 154.692243 
L 368.167351 154.321654 
L 368.327736 154.692243 
L 368.331688 154.321654 
L 368.562173 153.951066 
L 368.627557 152.839301 
L 368.731841 153.20989 
L 369.057445 152.468713 
L 369.253622 155.062831 
L 369.267319 154.321654 
L 369.579499 153.580478 
L 369.71645 153.951066 
L 370.109625 154.321654 
L 370.287357 154.692243 
L 371.07864 155.062831 
L 372.152555 155.433419 
L 372.752544 155.062831 
L 375.078243 155.433419 
L 375.320359 155.804007 
L 375.746508 156.174596 
L 375.910175 155.804007 
L 376.145299 156.915772 
L 376.256924 157.656949 
L 376.669463 160.621654 
L 376.713685 161.733419 
L 377.073527 161.362831 
L 377.103651 161.733419 
L 377.290663 161.362831 
L 377.378083 161.733419 
L 377.733968 161.362831 
L 377.818932 160.992243 
L 378.028902 160.621654 
L 378.111157 160.992243 
L 378.816442 161.362831 
L 378.892175 161.733419 
L 380.332001 161.362831 
L 380.79339 160.621654 
L 380.867964 160.251066 
L 381.811849 159.880478 
L 382.043036 160.621654 
L 382.207394 160.251066 
L 382.230917 159.880478 
L 382.289917 160.621654 
L 382.41984 159.880478 
L 382.459865 158.768713 
L 382.528722 159.139301 
L 382.578446 159.50989 
L 382.67812 159.139301 
L 382.751712 159.50989 
L 382.997324 158.768713 
L 383.124111 159.50989 
L 383.178157 159.139301 
L 383.2832 158.768713 
L 383.341087 159.50989 
L 383.390392 158.768713 
L 383.396446 158.398125 
L 383.589301 158.027537 
L 383.597838 158.398125 
L 383.677011 157.656949 
L 383.817389 158.768713 
L 383.89186 158.398125 
L 384.195636 158.027537 
L 384.200965 158.398125 
L 384.25338 157.656949 
L 384.274659 157.656949 
L 384.342952 158.398125 
L 384.407232 158.027537 
L 384.766296 155.062831 
L 384.88742 154.692243 
L 385.055475 155.433419 
L 385.140903 155.062831 
L 385.549358 155.433419 
L 385.559977 155.062831 
L 385.624331 155.433419 
L 385.781474 155.062831 
L 385.80592 154.692243 
L 386.066951 154.321654 
L 386.171198 153.580478 
L 386.459784 153.20989 
L 386.581178 153.951066 
L 386.653142 153.580478 
L 386.821317 153.951066 
L 387.24456 153.20989 
L 390.586232 152.839301 
L 391.780846 152.468713 
L 392.085845 153.20989 
L 392.124717 152.839301 
L 392.656031 154.692243 
L 392.671737 154.321654 
L 392.69739 155.062831 
L 393.166472 158.768713 
L 396.675805 158.398125 
L 397.751221 158.768713 
L 398.041095 158.398125 
L 398.185943 158.768713 
L 398.625362 158.398125 
L 398.674531 158.768713 
L 398.850331 158.027537 
L 399.008578 157.28636 
L 399.160284 156.915772 
L 399.251034 157.28636 
L 399.319315 158.027537 
L 399.370038 158.768713 
L 399.405186 158.027537 
L 399.742834 157.656949 
L 399.908883 157.28636 
L 400.057189 158.027537 
L 400.608871 158.398125 
L 400.727596 158.027537 
L 400.869546 158.398125 
L 401.041049 158.027537 
L 401.684938 157.28636 
L 402.101842 157.656949 
L 402.246746 157.28636 
L 402.627293 157.656949 
L 402.819011 157.28636 
L 403.204771 156.915772 
L 403.322676 156.545184 
L 403.759586 156.174596 
L 405.1481 155.804007 
L 407.841322 156.174596 
L 408.531887 156.915772 
L 408.653962 157.28636 
L 408.915793 157.656949 
L 409.068516 158.398125 
L 409.263225 159.139301 
L 409.397182 160.251066 
L 409.483119 159.880478 
L 409.573657 160.621654 
L 409.612962 161.362831 
L 410.070709 162.474596 
L 410.420165 162.104007 
L 410.495489 162.845184 
L 412.237478 163.215772 
L 413.152874 162.845184 
L 413.595735 163.215772 
L 413.84243 162.845184 
L 414.136732 163.215772 
L 414.258319 162.845184 
L 414.45814 164.327537 
L 414.675661 163.956949 
L 414.692587 163.58636 
L 414.730407 163.956949 
L 414.810147 164.327537 
L 414.953548 163.956949 
L 415.033317 164.327537 
L 415.270452 163.58636 
L 415.309599 163.956949 
L 415.465204 163.58636 
L 415.560176 164.327537 
L 415.941386 163.58636 
L 415.961089 163.215772 
L 416.072365 163.58636 
L 416.26746 163.215772 
L 416.329166 162.845184 
L 416.547574 163.58636 
L 416.577562 163.215772 
L 416.586809 163.58636 
L 416.687459 163.956949 
L 416.696396 163.58636 
L 416.734888 162.845184 
L 416.774964 164.327537 
L 416.839089 163.58636 
L 416.90616 163.956949 
L 417.180244 164.327537 
L 417.305916 163.215772 
L 417.482921 163.58636 
L 417.7182 165.80989 
L 417.733067 165.068713 
L 418.171941 164.698125 
L 418.23853 165.439301 
L 418.402028 165.068713 
L 418.575624 165.80989 
L 418.849257 165.439301 
L 418.941157 164.698125 
L 419.054375 165.068713 
L 419.142211 164.327537 
L 419.481967 163.956949 
L 419.633539 164.327537 
L 419.770242 165.439301 
L 419.949971 164.327537 
L 420.186069 164.698125 
L 420.190882 165.068713 
L 420.226451 164.698125 
L 420.403809 165.439301 
L 420.544839 165.068713 
L 420.5993 165.80989 
L 420.629383 165.439301 
L 421.166297 164.698125 
L 421.285914 166.551066 
L 421.483727 167.292243 
L 421.490043 168.033419 
L 423.66171 167.662831 
L 424.587238 168.033419 
L 426.108373 167.662831 
L 426.522555 168.033419 
L 426.680017 168.404007 
L 426.800747 168.033419 
L 427.061828 168.404007 
L 427.229853 168.033419 
L 427.297225 168.404007 
L 427.559883 168.774596 
L 427.617061 171.368713 
L 427.764096 170.627537 
L 427.879183 170.998125 
L 428.185421 172.10989 
L 428.205473 173.221654 
L 428.323762 173.592243 
L 428.339145 173.221654 
L 428.382321 173.592243 
L 428.57772 173.221654 
L 428.869953 175.815772 
L 428.935466 176.556949 
L 429.018805 176.927537 
L 429.181183 176.556949 
L 429.20735 176.927537 
L 429.287369 176.556949 
L 429.346285 175.815772 
L 429.414397 176.18636 
L 429.468877 176.927537 
L 429.483317 176.18636 
L 429.679615 177.668713 
L 429.771412 177.298125 
L 429.957469 177.668713 
L 430.02296 178.780478 
L 430.054459 179.892243 
L 430.057058 179.521654 
L 430.17668 178.780478 
L 430.180998 179.151066 
L 430.247633 179.521654 
L 430.261661 179.151066 
L 430.473811 180.262831 
L 430.568809 179.151066 
L 430.610775 179.521654 
L 430.82776 180.262831 
L 431.088499 179.521654 
L 431.206635 179.892243 
L 431.26627 179.151066 
L 431.41862 179.521654 
L 431.446922 179.151066 
L 431.569943 179.521654 
L 431.652707 179.151066 
L 431.661642 179.521654 
L 431.694631 179.892243 
L 431.741859 179.521654 
L 431.742623 179.151066 
L 431.866747 179.521654 
L 431.932088 179.151066 
L 431.977806 179.521654 
L 431.985454 179.892243 
L 432.094156 179.521654 
L 432.104918 179.892243 
L 432.159071 179.521654 
L 432.206478 179.151066 
L 432.254226 179.521654 
L 432.456991 178.40989 
L 432.482543 178.780478 
L 432.588187 179.521654 
L 432.656725 179.892243 
L 432.791142 179.521654 
L 432.918426 177.668713 
L 432.924416 178.039301 
L 432.977916 178.40989 
L 433.096984 177.668713 
L 433.341557 178.780478 
L 433.571356 177.668713 
L 433.576522 178.039301 
L 433.842161 178.40989 
L 433.92124 178.780478 
L 433.950908 178.40989 
L 433.951883 178.039301 
L 433.955799 178.780478 
L 434.168667 178.039301 
L 434.278422 178.780478 
L 434.340812 178.40989 
L 434.494006 178.039301 
L 434.713261 178.40989 
L 434.910313 179.521654 
L 435.004012 179.151066 
L 435.092945 179.521654 
L 435.153828 179.151066 
L 435.167325 179.521654 
L 435.341448 179.892243 
L 435.74376 178.780478 
L 436.159578 178.40989 
L 436.163053 178.039301 
L 436.44493 178.40989 
L 436.57062 178.780478 
L 436.613293 178.40989 
L 436.76566 178.780478 
L 436.826069 178.40989 
L 436.877208 178.780478 
L 437.009243 179.892243 
L 437.298277 180.262831 
L 437.308661 179.892243 
L 437.392241 180.633419 
L 437.560447 180.262831 
L 437.759277 180.633419 
L 438.881855 180.262831 
L 440.604852 179.892243 
L 441.009778 180.262831 
L 441.625877 180.633419 
L 441.729794 181.004007 
L 441.925232 180.633419 
L 442.113851 181.004007 
L 442.927628 180.633419 
L 443.304869 180.262831 
L 443.310897 180.633419 
L 443.657666 181.004007 
L 443.910236 182.115772 
L 443.91614 181.745184 
L 444.002889 183.227537 
L 444.187837 182.856949 
L 444.232664 183.598125 
L 444.382452 183.968713 
L 444.401706 183.598125 
L 444.733726 182.856949 
L 444.834602 182.115772 
L 444.972673 182.856949 
L 445.117794 183.598125 
L 445.342072 183.227537 
L 445.34413 182.856949 
L 445.358761 183.227537 
L 445.472041 183.598125 
L 445.498888 183.227537 
L 445.502738 183.598125 
L 445.768653 185.080478 
L 445.790662 184.70989 
L 445.793795 183.598125 
L 445.859205 185.080478 
L 446.391207 184.339301 
L 446.754987 187.304007 
L 446.843962 187.674596 
L 447.187418 187.304007 
L 447.33132 186.933419 
L 447.419459 187.304007 
L 447.423536 186.933419 
L 447.474358 185.821654 
L 447.544161 186.192243 
L 447.683848 186.562831 
L 447.746612 186.192243 
L 447.761122 187.304007 
L 447.943789 186.933419 
L 448.030969 186.192243 
L 448.26217 185.821654 
L 448.329905 185.080478 
L 448.544238 185.451066 
L 448.644785 185.080478 
L 448.667489 185.451066 
L 448.732807 185.080478 
L 448.851591 184.339301 
L 448.900224 184.70989 
L 449.188915 183.968713 
L 449.261686 184.70989 
L 449.394062 184.339301 
L 449.514834 184.70989 
L 449.834262 183.968713 
L 450.139391 183.598125 
L 450.217486 183.968713 
L 450.717121 182.48636 
L 450.731423 182.115772 
L 451.318703 181.745184 
L 451.434622 181.374596 
L 451.503423 181.745184 
L 451.908795 181.374596 
L 452.884539 181.004007 
L 456.896455 181.374596 
L 457.793691 182.115772 
L 458.04788 182.48636 
L 458.209016 183.227537 
L 458.44313 183.968713 
L 458.711125 184.70989 
L 458.725645 185.080478 
L 458.878666 185.451066 
L 458.911251 185.821654 
L 459.07863 185.451066 
L 459.52943 185.821654 
L 459.627961 185.451066 
L 460.131895 186.562831 
L 461.814944 186.933419 
L 462.27782 187.304007 
L 462.333361 187.674596 
L 462.91234 188.045184 
L 463.173602 186.933419 
L 463.536338 187.304007 
L 463.766538 186.562831 
L 464.113452 186.933419 
L 464.631454 186.562831 
L 464.653606 186.192243 
L 464.767519 186.562831 
L 464.901297 185.451066 
L 464.927626 185.821654 
L 464.95128 185.451066 
L 465.202777 185.080478 
L 465.474453 186.192243 
L 465.618276 186.933419 
L 465.86918 186.562831 
L 465.899186 186.192243 
L 466.111068 185.821654 
L 466.156183 186.192243 
L 466.170447 185.451066 
L 466.338523 185.080478 
L 466.361342 185.451066 
L 466.414402 185.080478 
L 466.778364 184.339301 
L 467.056046 183.968713 
L 467.191065 184.70989 
L 467.202475 184.339301 
L 467.422478 185.080478 
L 467.903351 185.451066 
L 467.985655 186.192243 
L 468.321925 185.821654 
L 468.501037 185.451066 
L 468.823523 185.821654 
L 469.585801 184.339301 
L 473.665337 184.70989 
L 473.715139 185.080478 
L 474.128335 185.451066 
L 474.649614 188.415772 
L 474.77092 188.045184 
L 474.876304 188.415772 
L 475.035235 189.156949 
L 475.199367 188.78636 
L 475.219064 189.156949 
L 475.244449 188.78636 
L 475.896597 188.415772 
L 476.075437 188.78636 
L 477.239937 188.415772 
L 477.24402 188.78636 
L 478.213738 188.415772 
L 478.22343 188.78636 
L 478.288578 188.045184 
L 478.384129 188.415772 
L 478.969015 188.045184 
L 479.550892 188.415772 
L 480.050219 188.045184 
L 480.098513 188.415772 
L 480.328801 188.045184 
L 480.359064 188.415772 
L 480.625604 187.674596 
L 480.630614 188.045184 
L 480.820155 187.304007 
L 480.963787 187.674596 
L 481.070126 186.933419 
L 481.07701 187.304007 
L 481.097621 187.674596 
L 481.172815 187.304007 
L 481.570932 185.080478 
L 481.621622 185.451066 
L 481.721361 186.192243 
L 481.810122 185.821654 
L 481.817752 186.192243 
L 481.873909 186.933419 
L 481.959056 187.304007 
L 482.084936 186.562831 
L 482.098738 186.192243 
L 482.207778 186.562831 
L 482.241792 186.192243 
L 482.429359 185.821654 
L 482.474798 185.080478 
L 482.480047 185.451066 
L 482.551057 185.821654 
L 482.694188 185.080478 
L 482.816719 183.598125 
L 483.373403 183.227537 
L 483.763005 183.598125 
L 483.88372 184.339301 
L 483.972096 183.598125 
L 484.005272 183.227537 
L 484.047548 183.598125 
L 484.247994 183.227537 
L 484.259539 182.48636 
L 484.46609 182.115772 
L 484.624587 181.004007 
L 484.946774 181.374596 
L 485.248811 181.004007 
L 485.316008 180.262831 
L 485.582101 179.892243 
L 485.598982 180.262831 
L 489.102191 180.633419 
L 489.845966 180.262831 
L 489.856347 180.633419 
L 490.125298 181.004007 
L 490.177179 181.374596 
L 490.518464 181.745184 
L 490.635775 181.374596 
L 490.704356 182.48636 
L 490.877746 182.856949 
L 491.324896 186.192243 
L 491.489037 186.933419 
L 491.718355 188.415772 
L 491.962105 188.78636 
L 492.060954 189.156949 
L 492.916876 188.78636 
L 493.008946 188.415772 
L 493.453444 189.898125 
L 493.489802 189.527537 
L 493.54006 189.898125 
L 493.788998 189.527537 
L 493.902753 188.78636 
L 494.211463 189.898125 
L 494.750743 190.268713 
L 495.015825 189.898125 
L 496.72881 189.156949 
L 496.780147 188.415772 
L 496.781995 188.78636 
L 496.875017 189.156949 
L 496.945705 188.78636 
L 496.952444 189.156949 
L 497.151825 188.78636 
L 497.316601 189.898125 
L 497.380498 189.527537 
L 497.483504 190.268713 
L 497.483914 190.639301 
L 497.553491 189.527537 
L 497.596295 189.898125 
L 497.62263 189.527537 
L 497.632942 189.156949 
L 497.985885 188.78636 
L 498.086577 189.527537 
L 498.134163 189.898125 
L 498.139336 189.527537 
L 498.31586 189.156949 
L 498.463342 189.898125 
L 498.737727 188.78636 
L 498.86621 189.156949 
L 498.871141 189.898125 
L 498.874928 189.527537 
L 499.004467 188.78636 
L 499.1141 189.156949 
L 499.36912 188.78636 
L 499.436517 189.527537 
L 499.480528 189.156949 
L 499.569973 188.78636 
L 499.877385 189.527537 
L 499.902753 189.156949 
L 499.926938 188.78636 
L 499.997974 189.156949 
L 500.165765 187.674596 
L 500.564807 188.045184 
L 500.571287 187.674596 
L 500.65181 188.415772 
L 501.212587 188.045184 
L 507.047023 188.415772 
L 507.207003 189.527537 
L 507.270676 189.156949 
L 507.347874 188.78636 
L 507.35654 189.156949 
L 507.409779 189.527537 
L 507.507225 189.156949 
L 507.730528 189.527537 
L 507.791152 189.898125 
L 507.892357 189.527537 
L 507.897501 189.898125 
L 508.169007 192.492243 
L 508.791713 193.233419 
L 509.356095 193.604007 
L 510.135992 193.974596 
L 510.326605 194.345184 
L 510.504304 193.604007 
L 510.661493 194.345184 
L 512.0889 193.974596 
L 512.895161 193.233419 
L 512.904811 192.862831 
L 513.039579 193.604007 
L 513.105466 193.233419 
L 513.148349 192.862831 
L 513.260612 193.233419 
L 513.284726 192.862831 
L 513.408119 193.233419 
L 513.43817 192.862831 
L 513.626251 193.233419 
L 513.899831 191.751066 
L 514.183812 192.492243 
L 514.394642 192.862831 
L 514.571085 191.751066 
L 514.63991 192.862831 
L 514.704825 192.121654 
L 514.751601 191.751066 
L 514.823123 192.121654 
L 514.855515 191.751066 
L 514.897695 191.380478 
L 514.903953 191.751066 
L 515.27841 193.974596 
L 515.413746 193.604007 
L 515.470328 193.974596 
L 515.525726 193.604007 
L 515.576245 192.492243 
L 516.537334 192.862831 
L 516.796837 192.492243 
L 517.447729 188.78636 
L 517.523495 188.045184 
L 517.748369 187.674596 
L 517.840601 187.304007 
L 518.387138 186.933419 
L 519.7023 186.562831 
L 522.919524 186.933419 
L 522.952907 187.304007 
L 523.368396 186.933419 
L 523.764884 187.674596 
L 523.847568 188.78636 
L 523.967399 188.415772 
L 524.207446 189.527537 
L 524.361735 190.268713 
L 524.47792 190.639301 
L 524.56737 190.268713 
L 524.578478 190.639301 
L 524.683551 191.00989 
L 524.807107 190.268713 
L 524.818301 190.639301 
L 525.015401 191.380478 
L 525.052322 191.751066 
L 525.206554 192.121654 
L 525.280947 192.862831 
L 525.426065 193.233419 
L 525.429545 193.604007 
L 525.705536 193.974596 
L 525.725046 194.345184 
L 525.947749 193.604007 
L 526.328572 194.345184 
L 526.557442 193.974596 
L 526.813052 194.345184 
L 527.247733 193.974596 
L 527.443835 194.345184 
L 527.654016 193.974596 
L 528.295965 193.604007 
L 528.500046 193.974596 
L 528.959188 192.862831 
L 529.063759 193.604007 
L 529.59524 192.492243 
L 529.621733 192.862831 
L 529.833324 193.233419 
L 529.853967 192.862831 
L 529.913963 193.233419 
L 530.216289 192.492243 
L 530.217023 192.121654 
L 530.284663 192.862831 
L 530.346029 192.492243 
L 530.392124 192.862831 
L 530.591435 194.715772 
L 530.644497 194.345184 
L 530.747191 194.715772 
L 530.801219 193.974596 
L 530.883711 194.345184 
L 530.98655 193.974596 
L 531.138312 195.08636 
L 531.154368 195.827537 
L 531.266098 195.456949 
L 531.38347 196.939301 
L 531.615281 195.456949 
L 531.617695 195.827537 
L 531.852994 196.568713 
L 532.079562 195.827537 
L 532.087422 195.456949 
L 532.172148 196.198125 
L 532.681263 198.421654 
L 532.745913 198.051066 
L 533.055483 198.792243 
L 533.269345 198.421654 
L 533.480776 200.274596 
L 533.565369 199.904007 
L 533.787595 200.274596 
L 533.789023 200.645184 
L 533.884704 200.274596 
L 533.945259 200.645184 
L 533.972569 200.274596 
L 534.017344 199.904007 
L 534.105297 200.645184 
L 534.166195 200.274596 
L 534.168111 199.533419 
L 534.272807 200.274596 
L 534.280946 200.645184 
L 534.397895 200.274596 
L 534.447504 201.015772 
L 534.941102 200.645184 
L 534.959544 201.015772 
L 535.007083 200.274596 
L 535.060463 199.904007 
L 535.235293 200.274596 
L 535.290983 199.904007 
L 535.500851 200.274596 
L 535.501413 200.645184 
L 535.864647 200.274596 
L 536.0263 200.645184 
L 536.344457 200.274596 
L 539.686779 199.904007 
L 539.954045 200.274596 
L 540.140797 199.904007 
L 541.058936 203.239301 
L 541.233625 202.868713 
L 541.482422 205.092243 
L 541.511674 204.721654 
L 541.601967 205.462831 
L 541.603564 205.833419 
L 541.778726 206.574596 
L 541.783024 206.945184 
L 541.797158 206.574596 
L 541.966218 207.315772 
L 541.978183 207.68636 
L 542.173578 208.056949 
L 542.216851 209.539301 
L 542.251431 209.168713 
L 542.664406 208.798125 
L 542.792892 208.427537 
L 542.856103 209.168713 
L 543.396838 209.539301 
L 543.485471 208.798125 
L 543.536622 209.168713 
L 543.570155 209.539301 
L 543.728344 209.168713 
L 543.798461 209.539301 
L 543.917931 208.427537 
L 543.99704 208.798125 
L 544.098339 209.168713 
L 544.637402 208.798125 
L 544.678618 209.168713 
L 545.018805 208.798125 
L 545.085625 209.168713 
L 545.179911 208.798125 
L 545.252976 209.168713 
L 545.299696 208.798125 
L 545.575045 209.168713 
L 545.60467 208.798125 
L 545.78604 209.168713 
L 546.043014 208.056949 
L 546.205722 208.427537 
L 546.285198 207.68636 
L 546.422342 208.056949 
L 546.730761 207.68636 
L 546.96361 208.427537 
L 547.045028 207.68636 
L 547.159075 208.056949 
L 547.33865 206.945184 
L 547.411443 206.574596 
L 547.421741 206.945184 
L 547.489848 206.574596 
L 547.518499 206.945184 
L 547.522555 207.68636 
L 547.621327 206.945184 
L 547.652074 206.574596 
L 547.757257 207.315772 
L 547.882477 208.056949 
L 547.89398 207.68636 
L 547.944675 207.315772 
L 547.945285 207.68636 
L 547.986588 208.056949 
L 548.09081 207.315772 
L 548.102378 206.945184 
L 548.160076 207.68636 
L 548.209403 207.315772 
L 548.222342 207.68636 
L 548.300224 208.427537 
L 548.412132 207.68636 
L 548.668812 206.574596 
L 548.712237 206.945184 
L 548.838008 207.68636 
L 549.540986 207.315772 
L 549.588921 206.945184 
L 549.748785 207.315772 
L 549.93437 206.204007 
L 549.968501 206.574596 
L 550.190101 207.68636 
L 550.417635 206.945184 
L 550.518181 206.574596 
L 550.628302 206.945184 
L 550.984914 206.574596 
L 551.039344 206.204007 
L 551.068063 206.574596 
L 551.205107 206.945184 
L 551.229341 206.574596 
L 551.505218 207.315772 
L 551.687905 206.204007 
L 551.954554 206.945184 
L 552.077773 206.574596 
L 552.1666 207.315772 
L 552.323751 206.945184 
L 552.444122 207.315772 
L 552.626717 206.945184 
L 552.649081 207.315772 
L 553.141918 206.945184 
L 553.408796 207.315772 
L 556.796715 207.68636 
L 556.812261 208.056949 
L 557.317049 208.798125 
L 557.464781 210.280478 
L 557.672723 211.392243 
L 557.950437 211.762831 
L 558.304212 212.874596 
L 558.605857 213.245184 
L 558.636466 213.98636 
L 558.707256 213.615772 
L 558.97313 215.468713 
L 559.266799 219.174596 
L 559.468413 218.804007 
L 559.470543 218.433419 
L 559.51155 218.804007 
L 559.635372 219.174596 
L 560.2055 219.545184 
L 560.21195 219.915772 
L 560.314548 219.545184 
L 560.39783 219.174596 
L 560.402484 219.545184 
L 560.49306 219.915772 
L 560.660071 219.545184 
L 560.766818 220.656949 
L 560.784314 220.28636 
L 560.83375 219.545184 
L 560.91264 218.804007 
L 560.933101 219.545184 
L 561.040751 221.027537 
L 561.042776 220.656949 
L 561.107362 221.398125 
L 561.410244 221.768713 
L 561.422228 222.139301 
L 561.575605 221.768713 
L 561.576084 221.398125 
L 561.639636 221.768713 
L 561.776162 222.50989 
L 561.788148 223.251066 
L 561.814875 222.139301 
L 561.861638 222.50989 
L 562.221217 225.845184 
L 562.470282 224.362831 
L 562.556937 226.58636 
L 562.669084 226.215772 
L 562.732698 226.956949 
L 562.797664 226.58636 
L 563.000306 226.215772 
L 563.136546 225.474596 
L 563.226106 225.845184 
L 563.317332 224.733419 
L 563.52543 224.362831 
L 563.629513 223.992243 
L 563.657404 224.362831 
L 563.677861 223.992243 
L 563.876503 224.362831 
L 563.947853 225.104007 
L 563.967275 224.733419 
L 564.08059 223.251066 
L 564.269015 223.621654 
L 564.276705 223.251066 
L 564.317477 223.621654 
L 564.409727 222.880478 
L 564.41323 222.139301 
L 564.644442 221.398125 
L 564.646349 221.768713 
L 565.127568 222.50989 
L 565.308906 222.139301 
L 565.378981 221.398125 
L 565.667771 221.027537 
L 565.691595 220.656949 
L 565.781558 221.027537 
L 566.044687 220.28636 
L 566.367365 219.915772 
L 566.525595 219.174596 
L 566.568959 219.915772 
L 566.960047 219.545184 
L 567.233308 219.915772 
L 567.312277 219.545184 
L 571.446981 219.915772 
L 571.479764 220.28636 
L 572.040307 220.656949 
L 572.330823 220.28636 
L 572.541014 220.656949 
L 572.690397 222.139301 
L 572.832711 222.50989 
L 572.930214 223.992243 
L 573.239059 225.845184 
L 573.240272 225.474596 
L 573.250161 225.104007 
L 573.305996 226.58636 
L 573.322693 226.956949 
L 573.874243 228.439301 
L 573.991981 229.180478 
L 574.434953 231.033419 
L 574.834238 231.774596 
L 574.888135 232.145184 
L 575.261157 232.88636 
L 575.623423 232.145184 
L 575.648676 232.515772 
L 576.494056 232.145184 
L 576.497698 232.515772 
L 576.676875 232.88636 
L 577.389006 232.515772 
L 577.439259 232.88636 
L 577.725417 232.515772 
L 578.184031 232.145184 
L 578.208062 231.774596 
L 578.397682 232.145184 
L 578.423534 231.774596 
L 578.5507 232.145184 
L 578.65378 233.998125 
L 578.693594 233.627537 
L 578.728963 233.998125 
L 579.003879 233.627537 
L 579.051805 233.256949 
L 579.233581 232.88636 
L 579.402794 233.256949 
L 579.552272 231.774596 
L 579.595375 232.145184 
L 579.596861 231.774596 
L 579.816778 230.292243 
L 579.899291 229.921654 
L 580.026633 231.774596 
L 580.034816 231.033419 
L 580.038704 231.404007 
L 580.168979 231.774596 
L 580.392224 231.033419 
L 580.454349 231.404007 
L 580.744127 231.033419 
L 580.954104 229.180478 
L 580.999993 228.80989 
L 581.033365 229.180478 
L 581.516288 228.80989 
L 582.305045 229.180478 
L 582.387125 229.551066 
L 583.20732 229.180478 
L 583.209801 228.80989 
L 583.209801 228.80989 
" clip-path="url(#pb97ccd2338)" style="fill: none; stroke: #1f77b4; stroke-width: 1.5; stroke-linecap: square"/>
   </g>
   <g id="patch_3">
    <path d="M 50.573438 244.078125 
L 50.573438 22.318125 
" style="fill: none; stroke: #000000; stroke-width: 0.8; stroke-linejoin: miter; stroke-linecap: square"/>
   </g>
   <g id="patch_4">
    <path d="M 608.573437 244.078125 
L 608.573437 22.318125 
" style="fill: none; stroke: #000000; stroke-width: 0.8; stroke-linejoin: miter; stroke-linecap: square"/>
   </g>
   <g id="patch_5">
    <path d="M 50.573437 244.078125 
L 608.573437 244.078125 
" style="fill: none; stroke: #000000; stroke-width: 0.8; stroke-linejoin: miter; stroke-linecap: square"/>
   </g>
   <g id="patch_6">
    <path d="M 50.573437 22.318125 
L 608.573437 22.318125 
" style="fill: none; stroke: #000000; stroke-width: 0.8; stroke-linejoin: miter; stroke-linecap: square"/>
   </g>
   <g id="text_18">
    <!-- Capacity Curve (Relative) - 11th &amp; Kenyon St NW -->
    <g transform="translate(182.145938 16.318125) scale(0.12 -0.12)">
     <defs>
      <path id="DejaVuSans-70" d="M 1159 525 
L 1159 -1331 
L 581 -1331 
L 581 3500 
L 1159 3500 
L 1159 2969 
Q 1341 3281 1617 3432 
Q 1894 3584 2278 3584 
Q 2916 3584 3314 3078 
Q 3713 2572 3713 1747 
Q 3713 922 3314 415 
Q 2916 -91 2278 -91 
Q 1894 -91 1617 61 
Q 1341 213 1159 525 
z
M 3116 1747 
Q 3116 2381 2855 2742 
Q 2594 3103 2138 3103 
Q 1681 3103 1420 2742 
Q 1159 2381 1159 1747 
Q 1159 1113 1420 752 
Q 1681 391 2138 391 
Q 2594 391 2855 752 
Q 3116 1113 3116 1747 
z
" transform="scale(0.015625)"/>
      <path id="DejaVuSans-63" d="M 3122 3366 
L 3122 2828 
Q 2878 2963 2633 3030 
Q 2388 3097 2138 3097 
Q 1578 3097 1268 2742 
Q 959 2388 959 1747 
Q 959 1106 1268 751 
Q 1578 397 2138 397 
Q 2388 397 2633 464 
Q 2878 531 3122 666 
L 3122 134 
Q 2881 22 2623 -34 
Q 2366 -91 2075 -91 
Q 1284 -91 818 406 
Q 353 903 353 1747 
Q 353 2603 823 3093 
Q 1294 3584 2113 3584 
Q 2378 3584 2631 3529 
Q 2884 3475 3122 3366 
z
" transform="scale(0.015625)"/>
      <path id="DejaVuSans-79" d="M 2059 -325 
Q 1816 -950 1584 -1140 
Q 1353 -1331 966 -1331 
L 506 -1331 
L 506 -850 
L 844 -850 
Q 1081 -850 1212 -737 
Q 1344 -625 1503 -206 
L 1606 56 
L 191 3500 
L 800 3500 
L 1894 763 
L 2988 3500 
L 3597 3500 
L 2059 -325 
z
" transform="scale(0.015625)"/>
      <path id="DejaVuSans-52" d="M 2841 2188 
Q 3044 2119 3236 1894 
Q 3428 1669 3622 1275 
L 4263 0 
L 3584 0 
L 2988 1197 
Q 2756 1666 2539 1819 
Q 2322 1972 1947 1972 
L 1259 1972 
L 1259 0 
L 628 0 
L 628 4666 
L 2053 4666 
Q 2853 4666 3247 4331 
Q 3641 3997 3641 3322 
Q 3641 2881 3436 2590 
Q 3231 2300 2841 2188 
z
M 1259 4147 
L 1259 2491 
L 2053 2491 
Q 2509 2491 2742 2702 
Q 2975 2913 2975 3322 
Q 2975 3731 2742 3939 
Q 2509 4147 2053 4147 
L 1259 4147 
z
" transform="scale(0.015625)"/>
      <path id="DejaVuSans-68" d="M 3513 2113 
L 3513 0 
L 2938 0 
L 2938 2094 
Q 2938 2591 2744 2837 
Q 2550 3084 2163 3084 
Q 1697 3084 1428 2787 
Q 1159 2491 1159 1978 
L 1159 0 
L 581 0 
L 581 4863 
L 1159 4863 
L 1159 2956 
Q 1366 3272 1645 3428 
Q 1925 3584 2291 3584 
Q 2894 3584 3203 3211 
Q 3513 2838 3513 2113 
z
" transform="scale(0.015625)"/>
      <path id="DejaVuSans-26" d="M 1556 2509 
Q 1272 2256 1139 2004 
Q 1006 1753 1006 1478 
Q 1006 1022 1337 719 
Q 1669 416 2169 416 
Q 2466 416 2725 514 
Q 2984 613 3213 813 
L 1556 2509 
z
M 1997 2859 
L 3584 1234 
Q 3769 1513 3872 1830 
Q 3975 2147 3994 2503 
L 4575 2503 
Q 4538 2091 4375 1687 
Q 4213 1284 3922 891 
L 4794 0 
L 4006 0 
L 3559 459 
Q 3234 181 2878 45 
Q 2522 -91 2113 -91 
Q 1359 -91 881 339 
Q 403 769 403 1441 
Q 403 1841 612 2192 
Q 822 2544 1241 2853 
Q 1091 3050 1012 3245 
Q 934 3441 934 3628 
Q 934 4134 1281 4442 
Q 1628 4750 2203 4750 
Q 2463 4750 2720 4694 
Q 2978 4638 3244 4525 
L 3244 3956 
Q 2972 4103 2725 4179 
Q 2478 4256 2266 4256 
Q 1938 4256 1733 4082 
Q 1528 3909 1528 3634 
Q 1528 3475 1620 3314 
Q 1713 3153 1997 2859 
z
" transform="scale(0.015625)"/>
      <path id="DejaVuSans-4b" d="M 628 4666 
L 1259 4666 
L 1259 2694 
L 3353 4666 
L 4166 4666 
L 1850 2491 
L 4331 0 
L 3500 0 
L 1259 2247 
L 1259 0 
L 628 0 
L 628 4666 
z
" transform="scale(0.015625)"/>
      <path id="DejaVuSans-6e" d="M 3513 2113 
L 3513 0 
L 2938 0 
L 2938 2094 
Q 2938 2591 2744 2837 
Q 2550 3084 2163 3084 
Q 1697 3084 1428 2787 
Q 1159 2491 1159 1978 
L 1159 0 
L 581 0 
L 581 3500 
L 1159 3500 
L 1159 2956 
Q 1366 3272 1645 3428 
Q 1925 3584 2291 3584 
Q 2894 3584 3203 3211 
Q 3513 2838 3513 2113 
z
" transform="scale(0.015625)"/>
      <path id="DejaVuSans-6f" d="M 1959 3097 
Q 1497 3097 1228 2736 
Q 959 2375 959 1747 
Q 959 1119 1226 758 
Q 1494 397 1959 397 
Q 2419 397 2687 759 
Q 2956 1122 2956 1747 
Q 2956 2369 2687 2733 
Q 2419 3097 1959 3097 
z
M 1959 3584 
Q 2709 3584 3137 3096 
Q 3566 2609 3566 1747 
Q 3566 888 3137 398 
Q 2709 -91 1959 -91 
Q 1206 -91 779 398 
Q 353 888 353 1747 
Q 353 2609 779 3096 
Q 1206 3584 1959 3584 
z
" transform="scale(0.015625)"/>
      <path id="DejaVuSans-53" d="M 3425 4513 
L 3425 3897 
Q 3066 4069 2747 4153 
Q 2428 4238 2131 4238 
Q 1616 4238 1336 4038 
Q 1056 3838 1056 3469 
Q 1056 3159 1242 3001 
Q 1428 2844 1947 2747 
L 2328 2669 
Q 3034 2534 3370 2195 
Q 3706 1856 3706 1288 
Q 3706 609 3251 259 
Q 2797 -91 1919 -91 
Q 1588 -91 1214 -16 
Q 841 59 441 206 
L 441 856 
Q 825 641 1194 531 
Q 1563 422 1919 422 
Q 2459 422 2753 634 
Q 3047 847 3047 1241 
Q 3047 1584 2836 1778 
Q 2625 1972 2144 2069 
L 1759 2144 
Q 1053 2284 737 2584 
Q 422 2884 422 3419 
Q 422 4038 858 4394 
Q 1294 4750 2059 4750 
Q 2388 4750 2728 4690 
Q 3069 4631 3425 4513 
z
" transform="scale(0.015625)"/>
      <path id="DejaVuSans-57" d="M 213 4666 
L 850 4666 
L 1831 722 
L 2809 4666 
L 3519 4666 
L 4500 722 
L 5478 4666 
L 6119 4666 
L 4947 0 
L 4153 0 
L 3169 4050 
L 2175 0 
L 1381 0 
L 213 4666 
z
" transform="scale(0.015625)"/>
     </defs>
     <use xlink:href="#DejaVuSans-43"/>
     <use xlink:href="#DejaVuSans-61" x="69.824219"/>
     <use xlink:href="#DejaVuSans-70" x="131.103516"/>
     <use xlink:href="#DejaVuSans-61" x="194.580078"/>
     <use xlink:href="#DejaVuSans-63" x="255.859375"/>
     <use xlink:href="#DejaVuSans-69" x="310.839844"/>
     <use xlink:href="#DejaVuSans-74" x="338.623047"/>
     <use xlink:href="#DejaVuSans-79" x="377.832031"/>
     <use xlink:href="#DejaVuSans-20" x="437.011719"/>
     <use xlink:href="#DejaVuSans-43" x="468.798828"/>
     <use xlink:href="#DejaVuSans-75" x="538.623047"/>
     <use xlink:href="#DejaVuSans-72" x="602.001953"/>
     <use xlink:href="#DejaVuSans-76" x="643.115234"/>
     <use xlink:href="#DejaVuSans-65" x="702.294922"/>
     <use xlink:href="#DejaVuSans-20" x="763.818359"/>
     <use xlink:href="#DejaVuSans-28" x="795.605469"/>
     <use xlink:href="#DejaVuSans-52" x="834.619141"/>
     <use xlink:href="#DejaVuSans-65" x="899.601562"/>
     <use xlink:href="#DejaVuSans-6c" x="961.125"/>
     <use xlink:href="#DejaVuSans-61" x="988.908203"/>
     <use xlink:href="#DejaVuSans-74" x="1050.1875"/>
     <use xlink:href="#DejaVuSans-69" x="1089.396484"/>
     <use xlink:href="#DejaVuSans-76" x="1117.179688"/>
     <use xlink:href="#DejaVuSans-65" x="1176.359375"/>
     <use xlink:href="#DejaVuSans-29" x="1237.882812"/>
     <use xlink:href="#DejaVuSans-20" x="1276.896484"/>
     <use xlink:href="#DejaVuSans-2d" x="1308.683594"/>
     <use xlink:href="#DejaVuSans-20" x="1344.767578"/>
     <use xlink:href="#DejaVuSans-31" x="1376.554688"/>
     <use xlink:href="#DejaVuSans-31" x="1440.177734"/>
     <use xlink:href="#DejaVuSans-74" x="1503.800781"/>
     <use xlink:href="#DejaVuSans-68" x="1543.009766"/>
     <use xlink:href="#DejaVuSans-20" x="1606.388672"/>
     <use xlink:href="#DejaVuSans-26" x="1638.175781"/>
     <use xlink:href="#DejaVuSans-20" x="1716.154297"/>
     <use xlink:href="#DejaVuSans-4b" x="1747.941406"/>
     <use xlink:href="#DejaVuSans-65" x="1808.517578"/>
     <use xlink:href="#DejaVuSans-6e" x="1870.041016"/>
     <use xlink:href="#DejaVuSans-79" x="1933.419922"/>
     <use xlink:href="#DejaVuSans-6f" x="1992.599609"/>
     <use xlink:href="#DejaVuSans-6e" x="2053.78125"/>
     <use xlink:href="#DejaVuSans-20" x="2117.160156"/>
     <use xlink:href="#DejaVuSans-53" x="2148.947266"/>
     <use xlink:href="#DejaVuSans-74" x="2212.423828"/>
     <use xlink:href="#DejaVuSans-20" x="2251.632812"/>
     <use xlink:href="#DejaVuSans-4e" x="2283.419922"/>
     <use xlink:href="#DejaVuSans-57" x="2358.224609"/>
    </g>
   </g>
  </g>
 </g>
 <defs>
  <clipPath id="pb97ccd2338">
   <rect x="50.573438" y="22.318125" width="558" height="221.76"/>
  </clipPath>
 </defs>
</svg>
