<?xml version="1.0" encoding="utf-8" standalone="no"?>
<!DOCTYPE svg PUBLIC "-//W3C//DTD SVG 1.1//EN"
  "http://www.w3.org/Graphics/SVG/1.1/DTD/svg11.dtd">
<svg xmlns:xlink="http://www.w3.org/1999/xlink" width="621.142289pt" height="281.634375pt" viewBox="0 0 621.142289 281.634375" xmlns="http://www.w3.org/2000/svg" version="1.1">
 <metadata>
  <rdf:RDF xmlns:dc="http://purl.org/dc/elements/1.1/" xmlns:cc="http://creativecommons.org/ns#" xmlns:rdf="http://www.w3.org/1999/02/22-rdf-syntax-ns#">
   <cc:Work>
    <dc:type rdf:resource="http://purl.org/dc/dcmitype/StillImage"/>
    <dc:date>2025-08-09T11:15:31.959102</dc:date>
    <dc:format>image/svg+xml</dc:format>
    <dc:creator>
     <cc:Agent>
      <dc:title>Matplotlib v3.7.5, https://matplotlib.org/</dc:title>
     </cc:Agent>
    </dc:creator>
   </cc:Work>
  </rdf:RDF>
 </metadata>
 <defs>
  <style type="text/css">*{stroke-linejoin: round; stroke-linecap: butt}</style>
 </defs>
 <g id="figure_1">
  <g id="patch_1">
   <path d="M 0 281.634375 
L 621.142289 281.634375 
L 621.142289 0 
L 0 0 
z
" style="fill: #ffffff"/>
  </g>
  <g id="axes_1">
   <g id="patch_2">
    <path d="M 50.573438 244.078125 
L 608.573437 244.078125 
L 608.573437 22.318125 
L 50.573438 22.318125 
z
" style="fill: #ffffff"/>
   </g>
   <g id="matplotlib.axis_1">
    <g id="xtick_1">
     <g id="line2d_1">
      <defs>
       <path id="m3ce6b08432" d="M 0 0 
L 0 3.5 
" style="stroke: #000000; stroke-width: 0.8"/>
      </defs>
      <g>
       <use xlink:href="#m3ce6b08432" x="75.942192" y="244.078125" style="stroke: #000000; stroke-width: 0.8"/>
      </g>
     </g>
     <g id="text_1">
      <!-- 2025-03-01 -->
      <g transform="translate(46.88438 258.676562) scale(0.1 -0.1)">
       <defs>
        <path id="DejaVuSans-32" d="M 1228 531 
L 3431 531 
L 3431 0 
L 469 0 
L 469 531 
Q 828 903 1448 1529 
Q 2069 2156 2228 2338 
Q 2531 2678 2651 2914 
Q 2772 3150 2772 3378 
Q 2772 3750 2511 3984 
Q 2250 4219 1831 4219 
Q 1534 4219 1204 4116 
Q 875 4013 500 3803 
L 500 4441 
Q 881 4594 1212 4672 
Q 1544 4750 1819 4750 
Q 2544 4750 2975 4387 
Q 3406 4025 3406 3419 
Q 3406 3131 3298 2873 
Q 3191 2616 2906 2266 
Q 2828 2175 2409 1742 
Q 1991 1309 1228 531 
z
" transform="scale(0.015625)"/>
        <path id="DejaVuSans-30" d="M 2034 4250 
Q 1547 4250 1301 3770 
Q 1056 3291 1056 2328 
Q 1056 1369 1301 889 
Q 1547 409 2034 409 
Q 2525 409 2770 889 
Q 3016 1369 3016 2328 
Q 3016 3291 2770 3770 
Q 2525 4250 2034 4250 
z
M 2034 4750 
Q 2819 4750 3233 4129 
Q 3647 3509 3647 2328 
Q 3647 1150 3233 529 
Q 2819 -91 2034 -91 
Q 1250 -91 836 529 
Q 422 1150 422 2328 
Q 422 3509 836 4129 
Q 1250 4750 2034 4750 
z
" transform="scale(0.015625)"/>
        <path id="DejaVuSans-35" d="M 691 4666 
L 3169 4666 
L 3169 4134 
L 1269 4134 
L 1269 2991 
Q 1406 3038 1543 3061 
Q 1681 3084 1819 3084 
Q 2600 3084 3056 2656 
Q 3513 2228 3513 1497 
Q 3513 744 3044 326 
Q 2575 -91 1722 -91 
Q 1428 -91 1123 -41 
Q 819 9 494 109 
L 494 744 
Q 775 591 1075 516 
Q 1375 441 1709 441 
Q 2250 441 2565 725 
Q 2881 1009 2881 1497 
Q 2881 1984 2565 2268 
Q 2250 2553 1709 2553 
Q 1456 2553 1204 2497 
Q 953 2441 691 2322 
L 691 4666 
z
" transform="scale(0.015625)"/>
        <path id="DejaVuSans-2d" d="M 313 2009 
L 1997 2009 
L 1997 1497 
L 313 1497 
L 313 2009 
z
" transform="scale(0.015625)"/>
        <path id="DejaVuSans-33" d="M 2597 2516 
Q 3050 2419 3304 2112 
Q 3559 1806 3559 1356 
Q 3559 666 3084 287 
Q 2609 -91 1734 -91 
Q 1441 -91 1130 -33 
Q 819 25 488 141 
L 488 750 
Q 750 597 1062 519 
Q 1375 441 1716 441 
Q 2309 441 2620 675 
Q 2931 909 2931 1356 
Q 2931 1769 2642 2001 
Q 2353 2234 1838 2234 
L 1294 2234 
L 1294 2753 
L 1863 2753 
Q 2328 2753 2575 2939 
Q 2822 3125 2822 3475 
Q 2822 3834 2567 4026 
Q 2313 4219 1838 4219 
Q 1578 4219 1281 4162 
Q 984 4106 628 3988 
L 628 4550 
Q 988 4650 1302 4700 
Q 1616 4750 1894 4750 
Q 2613 4750 3031 4423 
Q 3450 4097 3450 3541 
Q 3450 3153 3228 2886 
Q 3006 2619 2597 2516 
z
" transform="scale(0.015625)"/>
        <path id="DejaVuSans-31" d="M 794 531 
L 1825 531 
L 1825 4091 
L 703 3866 
L 703 4441 
L 1819 4666 
L 2450 4666 
L 2450 531 
L 3481 531 
L 3481 0 
L 794 0 
L 794 531 
z
" transform="scale(0.015625)"/>
       </defs>
       <use xlink:href="#DejaVuSans-32"/>
       <use xlink:href="#DejaVuSans-30" x="63.623047"/>
       <use xlink:href="#DejaVuSans-32" x="127.246094"/>
       <use xlink:href="#DejaVuSans-35" x="190.869141"/>
       <use xlink:href="#DejaVuSans-2d" x="254.492188"/>
       <use xlink:href="#DejaVuSans-30" x="290.576172"/>
       <use xlink:href="#DejaVuSans-33" x="354.199219"/>
       <use xlink:href="#DejaVuSans-2d" x="417.822266"/>
       <use xlink:href="#DejaVuSans-30" x="453.90625"/>
       <use xlink:href="#DejaVuSans-31" x="517.529297"/>
      </g>
     </g>
    </g>
    <g id="xtick_2">
     <g id="line2d_2">
      <g>
       <use xlink:href="#m3ce6b08432" x="141.612164" y="244.078125" style="stroke: #000000; stroke-width: 0.8"/>
      </g>
     </g>
     <g id="text_2">
      <!-- 2025-03-05 -->
      <g transform="translate(112.554352 258.676562) scale(0.1 -0.1)">
       <use xlink:href="#DejaVuSans-32"/>
       <use xlink:href="#DejaVuSans-30" x="63.623047"/>
       <use xlink:href="#DejaVuSans-32" x="127.246094"/>
       <use xlink:href="#DejaVuSans-35" x="190.869141"/>
       <use xlink:href="#DejaVuSans-2d" x="254.492188"/>
       <use xlink:href="#DejaVuSans-30" x="290.576172"/>
       <use xlink:href="#DejaVuSans-33" x="354.199219"/>
       <use xlink:href="#DejaVuSans-2d" x="417.822266"/>
       <use xlink:href="#DejaVuSans-30" x="453.90625"/>
       <use xlink:href="#DejaVuSans-35" x="517.529297"/>
      </g>
     </g>
    </g>
    <g id="xtick_3">
     <g id="line2d_3">
      <g>
       <use xlink:href="#m3ce6b08432" x="207.282137" y="244.078125" style="stroke: #000000; stroke-width: 0.8"/>
      </g>
     </g>
     <g id="text_3">
      <!-- 2025-03-09 -->
      <g transform="translate(178.224324 258.676562) scale(0.1 -0.1)">
       <defs>
        <path id="DejaVuSans-39" d="M 703 97 
L 703 672 
Q 941 559 1184 500 
Q 1428 441 1663 441 
Q 2288 441 2617 861 
Q 2947 1281 2994 2138 
Q 2813 1869 2534 1725 
Q 2256 1581 1919 1581 
Q 1219 1581 811 2004 
Q 403 2428 403 3163 
Q 403 3881 828 4315 
Q 1253 4750 1959 4750 
Q 2769 4750 3195 4129 
Q 3622 3509 3622 2328 
Q 3622 1225 3098 567 
Q 2575 -91 1691 -91 
Q 1453 -91 1209 -44 
Q 966 3 703 97 
z
M 1959 2075 
Q 2384 2075 2632 2365 
Q 2881 2656 2881 3163 
Q 2881 3666 2632 3958 
Q 2384 4250 1959 4250 
Q 1534 4250 1286 3958 
Q 1038 3666 1038 3163 
Q 1038 2656 1286 2365 
Q 1534 2075 1959 2075 
z
" transform="scale(0.015625)"/>
       </defs>
       <use xlink:href="#DejaVuSans-32"/>
       <use xlink:href="#DejaVuSans-30" x="63.623047"/>
       <use xlink:href="#DejaVuSans-32" x="127.246094"/>
       <use xlink:href="#DejaVuSans-35" x="190.869141"/>
       <use xlink:href="#DejaVuSans-2d" x="254.492188"/>
       <use xlink:href="#DejaVuSans-30" x="290.576172"/>
       <use xlink:href="#DejaVuSans-33" x="354.199219"/>
       <use xlink:href="#DejaVuSans-2d" x="417.822266"/>
       <use xlink:href="#DejaVuSans-30" x="453.90625"/>
       <use xlink:href="#DejaVuSans-39" x="517.529297"/>
      </g>
     </g>
    </g>
    <g id="xtick_4">
     <g id="line2d_4">
      <g>
       <use xlink:href="#m3ce6b08432" x="272.952109" y="244.078125" style="stroke: #000000; stroke-width: 0.8"/>
      </g>
     </g>
     <g id="text_4">
      <!-- 2025-03-13 -->
      <g transform="translate(243.894296 258.676562) scale(0.1 -0.1)">
       <use xlink:href="#DejaVuSans-32"/>
       <use xlink:href="#DejaVuSans-30" x="63.623047"/>
       <use xlink:href="#DejaVuSans-32" x="127.246094"/>
       <use xlink:href="#DejaVuSans-35" x="190.869141"/>
       <use xlink:href="#DejaVuSans-2d" x="254.492188"/>
       <use xlink:href="#DejaVuSans-30" x="290.576172"/>
       <use xlink:href="#DejaVuSans-33" x="354.199219"/>
       <use xlink:href="#DejaVuSans-2d" x="417.822266"/>
       <use xlink:href="#DejaVuSans-31" x="453.90625"/>
       <use xlink:href="#DejaVuSans-33" x="517.529297"/>
      </g>
     </g>
    </g>
    <g id="xtick_5">
     <g id="line2d_5">
      <g>
       <use xlink:href="#m3ce6b08432" x="338.622081" y="244.078125" style="stroke: #000000; stroke-width: 0.8"/>
      </g>
     </g>
     <g id="text_5">
      <!-- 2025-03-17 -->
      <g transform="translate(309.564268 258.676562) scale(0.1 -0.1)">
       <defs>
        <path id="DejaVuSans-37" d="M 525 4666 
L 3525 4666 
L 3525 4397 
L 1831 0 
L 1172 0 
L 2766 4134 
L 525 4134 
L 525 4666 
z
" transform="scale(0.015625)"/>
       </defs>
       <use xlink:href="#DejaVuSans-32"/>
       <use xlink:href="#DejaVuSans-30" x="63.623047"/>
       <use xlink:href="#DejaVuSans-32" x="127.246094"/>
       <use xlink:href="#DejaVuSans-35" x="190.869141"/>
       <use xlink:href="#DejaVuSans-2d" x="254.492188"/>
       <use xlink:href="#DejaVuSans-30" x="290.576172"/>
       <use xlink:href="#DejaVuSans-33" x="354.199219"/>
       <use xlink:href="#DejaVuSans-2d" x="417.822266"/>
       <use xlink:href="#DejaVuSans-31" x="453.90625"/>
       <use xlink:href="#DejaVuSans-37" x="517.529297"/>
      </g>
     </g>
    </g>
    <g id="xtick_6">
     <g id="line2d_6">
      <g>
       <use xlink:href="#m3ce6b08432" x="404.292053" y="244.078125" style="stroke: #000000; stroke-width: 0.8"/>
      </g>
     </g>
     <g id="text_6">
      <!-- 2025-03-21 -->
      <g transform="translate(375.23424 258.676562) scale(0.1 -0.1)">
       <use xlink:href="#DejaVuSans-32"/>
       <use xlink:href="#DejaVuSans-30" x="63.623047"/>
       <use xlink:href="#DejaVuSans-32" x="127.246094"/>
       <use xlink:href="#DejaVuSans-35" x="190.869141"/>
       <use xlink:href="#DejaVuSans-2d" x="254.492188"/>
       <use xlink:href="#DejaVuSans-30" x="290.576172"/>
       <use xlink:href="#DejaVuSans-33" x="354.199219"/>
       <use xlink:href="#DejaVuSans-2d" x="417.822266"/>
       <use xlink:href="#DejaVuSans-32" x="453.90625"/>
       <use xlink:href="#DejaVuSans-31" x="517.529297"/>
      </g>
     </g>
    </g>
    <g id="xtick_7">
     <g id="line2d_7">
      <g>
       <use xlink:href="#m3ce6b08432" x="469.962025" y="244.078125" style="stroke: #000000; stroke-width: 0.8"/>
      </g>
     </g>
     <g id="text_7">
      <!-- 2025-03-25 -->
      <g transform="translate(440.904212 258.676562) scale(0.1 -0.1)">
       <use xlink:href="#DejaVuSans-32"/>
       <use xlink:href="#DejaVuSans-30" x="63.623047"/>
       <use xlink:href="#DejaVuSans-32" x="127.246094"/>
       <use xlink:href="#DejaVuSans-35" x="190.869141"/>
       <use xlink:href="#DejaVuSans-2d" x="254.492188"/>
       <use xlink:href="#DejaVuSans-30" x="290.576172"/>
       <use xlink:href="#DejaVuSans-33" x="354.199219"/>
       <use xlink:href="#DejaVuSans-2d" x="417.822266"/>
       <use xlink:href="#DejaVuSans-32" x="453.90625"/>
       <use xlink:href="#DejaVuSans-35" x="517.529297"/>
      </g>
     </g>
    </g>
    <g id="xtick_8">
     <g id="line2d_8">
      <g>
       <use xlink:href="#m3ce6b08432" x="535.631997" y="244.078125" style="stroke: #000000; stroke-width: 0.8"/>
      </g>
     </g>
     <g id="text_8">
      <!-- 2025-03-29 -->
      <g transform="translate(506.574184 258.676562) scale(0.1 -0.1)">
       <use xlink:href="#DejaVuSans-32"/>
       <use xlink:href="#DejaVuSans-30" x="63.623047"/>
       <use xlink:href="#DejaVuSans-32" x="127.246094"/>
       <use xlink:href="#DejaVuSans-35" x="190.869141"/>
       <use xlink:href="#DejaVuSans-2d" x="254.492188"/>
       <use xlink:href="#DejaVuSans-30" x="290.576172"/>
       <use xlink:href="#DejaVuSans-33" x="354.199219"/>
       <use xlink:href="#DejaVuSans-2d" x="417.822266"/>
       <use xlink:href="#DejaVuSans-32" x="453.90625"/>
       <use xlink:href="#DejaVuSans-39" x="517.529297"/>
      </g>
     </g>
    </g>
    <g id="xtick_9">
     <g id="line2d_9">
      <g>
       <use xlink:href="#m3ce6b08432" x="584.884476" y="244.078125" style="stroke: #000000; stroke-width: 0.8"/>
      </g>
     </g>
     <g id="text_9">
      <!-- 2025-04-01 -->
      <g transform="translate(555.826664 258.676562) scale(0.1 -0.1)">
       <defs>
        <path id="DejaVuSans-34" d="M 2419 4116 
L 825 1625 
L 2419 1625 
L 2419 4116 
z
M 2253 4666 
L 3047 4666 
L 3047 1625 
L 3713 1625 
L 3713 1100 
L 3047 1100 
L 3047 0 
L 2419 0 
L 2419 1100 
L 313 1100 
L 313 1709 
L 2253 4666 
z
" transform="scale(0.015625)"/>
       </defs>
       <use xlink:href="#DejaVuSans-32"/>
       <use xlink:href="#DejaVuSans-30" x="63.623047"/>
       <use xlink:href="#DejaVuSans-32" x="127.246094"/>
       <use xlink:href="#DejaVuSans-35" x="190.869141"/>
       <use xlink:href="#DejaVuSans-2d" x="254.492188"/>
       <use xlink:href="#DejaVuSans-30" x="290.576172"/>
       <use xlink:href="#DejaVuSans-34" x="354.199219"/>
       <use xlink:href="#DejaVuSans-2d" x="417.822266"/>
       <use xlink:href="#DejaVuSans-30" x="453.90625"/>
       <use xlink:href="#DejaVuSans-31" x="517.529297"/>
      </g>
     </g>
    </g>
    <g id="text_10">
     <!-- Time -->
     <g transform="translate(317.339844 272.354687) scale(0.1 -0.1)">
      <defs>
       <path id="DejaVuSans-54" d="M -19 4666 
L 3928 4666 
L 3928 4134 
L 2272 4134 
L 2272 0 
L 1638 0 
L 1638 4134 
L -19 4134 
L -19 4666 
z
" transform="scale(0.015625)"/>
       <path id="DejaVuSans-69" d="M 603 3500 
L 1178 3500 
L 1178 0 
L 603 0 
L 603 3500 
z
M 603 4863 
L 1178 4863 
L 1178 4134 
L 603 4134 
L 603 4863 
z
" transform="scale(0.015625)"/>
       <path id="DejaVuSans-6d" d="M 3328 2828 
Q 3544 3216 3844 3400 
Q 4144 3584 4550 3584 
Q 5097 3584 5394 3201 
Q 5691 2819 5691 2113 
L 5691 0 
L 5113 0 
L 5113 2094 
Q 5113 2597 4934 2840 
Q 4756 3084 4391 3084 
Q 3944 3084 3684 2787 
Q 3425 2491 3425 1978 
L 3425 0 
L 2847 0 
L 2847 2094 
Q 2847 2600 2669 2842 
Q 2491 3084 2119 3084 
Q 1678 3084 1418 2786 
Q 1159 2488 1159 1978 
L 1159 0 
L 581 0 
L 581 3500 
L 1159 3500 
L 1159 2956 
Q 1356 3278 1631 3431 
Q 1906 3584 2284 3584 
Q 2666 3584 2933 3390 
Q 3200 3197 3328 2828 
z
" transform="scale(0.015625)"/>
       <path id="DejaVuSans-65" d="M 3597 1894 
L 3597 1613 
L 953 1613 
Q 991 1019 1311 708 
Q 1631 397 2203 397 
Q 2534 397 2845 478 
Q 3156 559 3463 722 
L 3463 178 
Q 3153 47 2828 -22 
Q 2503 -91 2169 -91 
Q 1331 -91 842 396 
Q 353 884 353 1716 
Q 353 2575 817 3079 
Q 1281 3584 2069 3584 
Q 2775 3584 3186 3129 
Q 3597 2675 3597 1894 
z
M 3022 2063 
Q 3016 2534 2758 2815 
Q 2500 3097 2075 3097 
Q 1594 3097 1305 2825 
Q 1016 2553 972 2059 
L 3022 2063 
z
" transform="scale(0.015625)"/>
      </defs>
      <use xlink:href="#DejaVuSans-54"/>
      <use xlink:href="#DejaVuSans-69" x="57.958984"/>
      <use xlink:href="#DejaVuSans-6d" x="85.742188"/>
      <use xlink:href="#DejaVuSans-65" x="183.154297"/>
     </g>
    </g>
   </g>
   <g id="matplotlib.axis_2">
    <g id="ytick_1">
     <g id="line2d_10">
      <defs>
       <path id="m49e085fd66" d="M 0 0 
L -3.5 0 
" style="stroke: #000000; stroke-width: 0.8"/>
      </defs>
      <g>
       <use xlink:href="#m49e085fd66" x="50.573438" y="233.663241" style="stroke: #000000; stroke-width: 0.8"/>
      </g>
     </g>
     <g id="text_11">
      <!-- -600 -->
      <g transform="translate(20.878125 237.46246) scale(0.1 -0.1)">
       <defs>
        <path id="DejaVuSans-36" d="M 2113 2584 
Q 1688 2584 1439 2293 
Q 1191 2003 1191 1497 
Q 1191 994 1439 701 
Q 1688 409 2113 409 
Q 2538 409 2786 701 
Q 3034 994 3034 1497 
Q 3034 2003 2786 2293 
Q 2538 2584 2113 2584 
z
M 3366 4563 
L 3366 3988 
Q 3128 4100 2886 4159 
Q 2644 4219 2406 4219 
Q 1781 4219 1451 3797 
Q 1122 3375 1075 2522 
Q 1259 2794 1537 2939 
Q 1816 3084 2150 3084 
Q 2853 3084 3261 2657 
Q 3669 2231 3669 1497 
Q 3669 778 3244 343 
Q 2819 -91 2113 -91 
Q 1303 -91 875 529 
Q 447 1150 447 2328 
Q 447 3434 972 4092 
Q 1497 4750 2381 4750 
Q 2619 4750 2861 4703 
Q 3103 4656 3366 4563 
z
" transform="scale(0.015625)"/>
       </defs>
       <use xlink:href="#DejaVuSans-2d"/>
       <use xlink:href="#DejaVuSans-36" x="36.083984"/>
       <use xlink:href="#DejaVuSans-30" x="99.707031"/>
       <use xlink:href="#DejaVuSans-30" x="163.330078"/>
      </g>
     </g>
    </g>
    <g id="ytick_2">
     <g id="line2d_11">
      <g>
       <use xlink:href="#m49e085fd66" x="50.573438" y="200.174869" style="stroke: #000000; stroke-width: 0.8"/>
      </g>
     </g>
     <g id="text_12">
      <!-- -500 -->
      <g transform="translate(20.878125 203.974088) scale(0.1 -0.1)">
       <use xlink:href="#DejaVuSans-2d"/>
       <use xlink:href="#DejaVuSans-35" x="36.083984"/>
       <use xlink:href="#DejaVuSans-30" x="99.707031"/>
       <use xlink:href="#DejaVuSans-30" x="163.330078"/>
      </g>
     </g>
    </g>
    <g id="ytick_3">
     <g id="line2d_12">
      <g>
       <use xlink:href="#m49e085fd66" x="50.573438" y="166.686497" style="stroke: #000000; stroke-width: 0.8"/>
      </g>
     </g>
     <g id="text_13">
      <!-- -400 -->
      <g transform="translate(20.878125 170.485716) scale(0.1 -0.1)">
       <use xlink:href="#DejaVuSans-2d"/>
       <use xlink:href="#DejaVuSans-34" x="36.083984"/>
       <use xlink:href="#DejaVuSans-30" x="99.707031"/>
       <use xlink:href="#DejaVuSans-30" x="163.330078"/>
      </g>
     </g>
    </g>
    <g id="ytick_4">
     <g id="line2d_13">
      <g>
       <use xlink:href="#m49e085fd66" x="50.573438" y="133.198125" style="stroke: #000000; stroke-width: 0.8"/>
      </g>
     </g>
     <g id="text_14">
      <!-- -300 -->
      <g transform="translate(20.878125 136.997344) scale(0.1 -0.1)">
       <use xlink:href="#DejaVuSans-2d"/>
       <use xlink:href="#DejaVuSans-33" x="36.083984"/>
       <use xlink:href="#DejaVuSans-30" x="99.707031"/>
       <use xlink:href="#DejaVuSans-30" x="163.330078"/>
      </g>
     </g>
    </g>
    <g id="ytick_5">
     <g id="line2d_14">
      <g>
       <use xlink:href="#m49e085fd66" x="50.573438" y="99.709753" style="stroke: #000000; stroke-width: 0.8"/>
      </g>
     </g>
     <g id="text_15">
      <!-- -200 -->
      <g transform="translate(20.878125 103.508972) scale(0.1 -0.1)">
       <use xlink:href="#DejaVuSans-2d"/>
       <use xlink:href="#DejaVuSans-32" x="36.083984"/>
       <use xlink:href="#DejaVuSans-30" x="99.707031"/>
       <use xlink:href="#DejaVuSans-30" x="163.330078"/>
      </g>
     </g>
    </g>
    <g id="ytick_6">
     <g id="line2d_15">
      <g>
       <use xlink:href="#m49e085fd66" x="50.573438" y="66.221381" style="stroke: #000000; stroke-width: 0.8"/>
      </g>
     </g>
     <g id="text_16">
      <!-- -100 -->
      <g transform="translate(20.878125 70.0206) scale(0.1 -0.1)">
       <use xlink:href="#DejaVuSans-2d"/>
       <use xlink:href="#DejaVuSans-31" x="36.083984"/>
       <use xlink:href="#DejaVuSans-30" x="99.707031"/>
       <use xlink:href="#DejaVuSans-30" x="163.330078"/>
      </g>
     </g>
    </g>
    <g id="ytick_7">
     <g id="line2d_16">
      <g>
       <use xlink:href="#m49e085fd66" x="50.573438" y="32.733009" style="stroke: #000000; stroke-width: 0.8"/>
      </g>
     </g>
     <g id="text_17">
      <!-- 0 -->
      <g transform="translate(37.210938 36.532227) scale(0.1 -0.1)">
       <use xlink:href="#DejaVuSans-30"/>
      </g>
     </g>
    </g>
    <g id="text_18">
     <!-- Cumulative Net Bikes (relative) -->
     <g transform="translate(14.798437 211.254375) rotate(-90) scale(0.1 -0.1)">
      <defs>
       <path id="DejaVuSans-43" d="M 4122 4306 
L 4122 3641 
Q 3803 3938 3442 4084 
Q 3081 4231 2675 4231 
Q 1875 4231 1450 3742 
Q 1025 3253 1025 2328 
Q 1025 1406 1450 917 
Q 1875 428 2675 428 
Q 3081 428 3442 575 
Q 3803 722 4122 1019 
L 4122 359 
Q 3791 134 3420 21 
Q 3050 -91 2638 -91 
Q 1578 -91 968 557 
Q 359 1206 359 2328 
Q 359 3453 968 4101 
Q 1578 4750 2638 4750 
Q 3056 4750 3426 4639 
Q 3797 4528 4122 4306 
z
" transform="scale(0.015625)"/>
       <path id="DejaVuSans-75" d="M 544 1381 
L 544 3500 
L 1119 3500 
L 1119 1403 
Q 1119 906 1312 657 
Q 1506 409 1894 409 
Q 2359 409 2629 706 
Q 2900 1003 2900 1516 
L 2900 3500 
L 3475 3500 
L 3475 0 
L 2900 0 
L 2900 538 
Q 2691 219 2414 64 
Q 2138 -91 1772 -91 
Q 1169 -91 856 284 
Q 544 659 544 1381 
z
M 1991 3584 
L 1991 3584 
z
" transform="scale(0.015625)"/>
       <path id="DejaVuSans-6c" d="M 603 4863 
L 1178 4863 
L 1178 0 
L 603 0 
L 603 4863 
z
" transform="scale(0.015625)"/>
       <path id="DejaVuSans-61" d="M 2194 1759 
Q 1497 1759 1228 1600 
Q 959 1441 959 1056 
Q 959 750 1161 570 
Q 1363 391 1709 391 
Q 2188 391 2477 730 
Q 2766 1069 2766 1631 
L 2766 1759 
L 2194 1759 
z
M 3341 1997 
L 3341 0 
L 2766 0 
L 2766 531 
Q 2569 213 2275 61 
Q 1981 -91 1556 -91 
Q 1019 -91 701 211 
Q 384 513 384 1019 
Q 384 1609 779 1909 
Q 1175 2209 1959 2209 
L 2766 2209 
L 2766 2266 
Q 2766 2663 2505 2880 
Q 2244 3097 1772 3097 
Q 1472 3097 1187 3025 
Q 903 2953 641 2809 
L 641 3341 
Q 956 3463 1253 3523 
Q 1550 3584 1831 3584 
Q 2591 3584 2966 3190 
Q 3341 2797 3341 1997 
z
" transform="scale(0.015625)"/>
       <path id="DejaVuSans-74" d="M 1172 4494 
L 1172 3500 
L 2356 3500 
L 2356 3053 
L 1172 3053 
L 1172 1153 
Q 1172 725 1289 603 
Q 1406 481 1766 481 
L 2356 481 
L 2356 0 
L 1766 0 
Q 1100 0 847 248 
Q 594 497 594 1153 
L 594 3053 
L 172 3053 
L 172 3500 
L 594 3500 
L 594 4494 
L 1172 4494 
z
" transform="scale(0.015625)"/>
       <path id="DejaVuSans-76" d="M 191 3500 
L 800 3500 
L 1894 563 
L 2988 3500 
L 3597 3500 
L 2284 0 
L 1503 0 
L 191 3500 
z
" transform="scale(0.015625)"/>
       <path id="DejaVuSans-20" transform="scale(0.015625)"/>
       <path id="DejaVuSans-4e" d="M 628 4666 
L 1478 4666 
L 3547 763 
L 3547 4666 
L 4159 4666 
L 4159 0 
L 3309 0 
L 1241 3903 
L 1241 0 
L 628 0 
L 628 4666 
z
" transform="scale(0.015625)"/>
       <path id="DejaVuSans-42" d="M 1259 2228 
L 1259 519 
L 2272 519 
Q 2781 519 3026 730 
Q 3272 941 3272 1375 
Q 3272 1813 3026 2020 
Q 2781 2228 2272 2228 
L 1259 2228 
z
M 1259 4147 
L 1259 2741 
L 2194 2741 
Q 2656 2741 2882 2914 
Q 3109 3088 3109 3444 
Q 3109 3797 2882 3972 
Q 2656 4147 2194 4147 
L 1259 4147 
z
M 628 4666 
L 2241 4666 
Q 2963 4666 3353 4366 
Q 3744 4066 3744 3513 
Q 3744 3084 3544 2831 
Q 3344 2578 2956 2516 
Q 3422 2416 3680 2098 
Q 3938 1781 3938 1306 
Q 3938 681 3513 340 
Q 3088 0 2303 0 
L 628 0 
L 628 4666 
z
" transform="scale(0.015625)"/>
       <path id="DejaVuSans-6b" d="M 581 4863 
L 1159 4863 
L 1159 1991 
L 2875 3500 
L 3609 3500 
L 1753 1863 
L 3688 0 
L 2938 0 
L 1159 1709 
L 1159 0 
L 581 0 
L 581 4863 
z
" transform="scale(0.015625)"/>
       <path id="DejaVuSans-73" d="M 2834 3397 
L 2834 2853 
Q 2591 2978 2328 3040 
Q 2066 3103 1784 3103 
Q 1356 3103 1142 2972 
Q 928 2841 928 2578 
Q 928 2378 1081 2264 
Q 1234 2150 1697 2047 
L 1894 2003 
Q 2506 1872 2764 1633 
Q 3022 1394 3022 966 
Q 3022 478 2636 193 
Q 2250 -91 1575 -91 
Q 1294 -91 989 -36 
Q 684 19 347 128 
L 347 722 
Q 666 556 975 473 
Q 1284 391 1588 391 
Q 1994 391 2212 530 
Q 2431 669 2431 922 
Q 2431 1156 2273 1281 
Q 2116 1406 1581 1522 
L 1381 1569 
Q 847 1681 609 1914 
Q 372 2147 372 2553 
Q 372 3047 722 3315 
Q 1072 3584 1716 3584 
Q 2034 3584 2315 3537 
Q 2597 3491 2834 3397 
z
" transform="scale(0.015625)"/>
       <path id="DejaVuSans-28" d="M 1984 4856 
Q 1566 4138 1362 3434 
Q 1159 2731 1159 2009 
Q 1159 1288 1364 580 
Q 1569 -128 1984 -844 
L 1484 -844 
Q 1016 -109 783 600 
Q 550 1309 550 2009 
Q 550 2706 781 3412 
Q 1013 4119 1484 4856 
L 1984 4856 
z
" transform="scale(0.015625)"/>
       <path id="DejaVuSans-72" d="M 2631 2963 
Q 2534 3019 2420 3045 
Q 2306 3072 2169 3072 
Q 1681 3072 1420 2755 
Q 1159 2438 1159 1844 
L 1159 0 
L 581 0 
L 581 3500 
L 1159 3500 
L 1159 2956 
Q 1341 3275 1631 3429 
Q 1922 3584 2338 3584 
Q 2397 3584 2469 3576 
Q 2541 3569 2628 3553 
L 2631 2963 
z
" transform="scale(0.015625)"/>
       <path id="DejaVuSans-29" d="M 513 4856 
L 1013 4856 
Q 1481 4119 1714 3412 
Q 1947 2706 1947 2009 
Q 1947 1309 1714 600 
Q 1481 -109 1013 -844 
L 513 -844 
Q 928 -128 1133 580 
Q 1338 1288 1338 2009 
Q 1338 2731 1133 3434 
Q 928 4138 513 4856 
z
" transform="scale(0.015625)"/>
      </defs>
      <use xlink:href="#DejaVuSans-43"/>
      <use xlink:href="#DejaVuSans-75" x="69.824219"/>
      <use xlink:href="#DejaVuSans-6d" x="133.203125"/>
      <use xlink:href="#DejaVuSans-75" x="230.615234"/>
      <use xlink:href="#DejaVuSans-6c" x="293.994141"/>
      <use xlink:href="#DejaVuSans-61" x="321.777344"/>
      <use xlink:href="#DejaVuSans-74" x="383.056641"/>
      <use xlink:href="#DejaVuSans-69" x="422.265625"/>
      <use xlink:href="#DejaVuSans-76" x="450.048828"/>
      <use xlink:href="#DejaVuSans-65" x="509.228516"/>
      <use xlink:href="#DejaVuSans-20" x="570.751953"/>
      <use xlink:href="#DejaVuSans-4e" x="602.539062"/>
      <use xlink:href="#DejaVuSans-65" x="677.34375"/>
      <use xlink:href="#DejaVuSans-74" x="738.867188"/>
      <use xlink:href="#DejaVuSans-20" x="778.076172"/>
      <use xlink:href="#DejaVuSans-42" x="809.863281"/>
      <use xlink:href="#DejaVuSans-69" x="878.466797"/>
      <use xlink:href="#DejaVuSans-6b" x="906.25"/>
      <use xlink:href="#DejaVuSans-65" x="960.535156"/>
      <use xlink:href="#DejaVuSans-73" x="1022.058594"/>
      <use xlink:href="#DejaVuSans-20" x="1074.158203"/>
      <use xlink:href="#DejaVuSans-28" x="1105.945312"/>
      <use xlink:href="#DejaVuSans-72" x="1144.958984"/>
      <use xlink:href="#DejaVuSans-65" x="1183.822266"/>
      <use xlink:href="#DejaVuSans-6c" x="1245.345703"/>
      <use xlink:href="#DejaVuSans-61" x="1273.128906"/>
      <use xlink:href="#DejaVuSans-74" x="1334.408203"/>
      <use xlink:href="#DejaVuSans-69" x="1373.617188"/>
      <use xlink:href="#DejaVuSans-76" x="1401.400391"/>
      <use xlink:href="#DejaVuSans-65" x="1460.580078"/>
      <use xlink:href="#DejaVuSans-29" x="1522.103516"/>
     </g>
    </g>
   </g>
   <g id="line2d_17">
    <path d="M 75.937074 33.067892 
L 76.22386 32.398125 
L 76.410918 33.067892 
L 77.137625 33.73766 
L 77.472231 33.402776 
L 81.571477 33.73766 
L 81.672685 34.072544 
L 81.975776 34.407427 
L 82.654702 34.072544 
L 82.778549 34.742311 
L 82.867814 35.412078 
L 83.147918 35.077195 
L 83.389831 36.41673 
L 83.497242 36.081846 
L 83.58258 36.751613 
L 83.665558 37.421381 
L 83.978279 37.756265 
L 84.138261 36.41673 
L 84.16144 36.751613 
L 84.599235 36.41673 
L 84.602493 36.081846 
L 84.728725 35.746962 
L 84.813506 36.081846 
L 84.883443 35.412078 
L 85.242117 36.41673 
L 85.286593 36.751613 
L 85.519783 36.081846 
L 85.862894 36.751613 
L 85.946448 35.746962 
L 86.029707 35.412078 
L 86.122507 35.746962 
L 86.19805 35.412078 
L 86.205575 35.746962 
L 86.482075 36.081846 
L 87.004599 35.746962 
L 87.080014 35.077195 
L 87.178603 35.412078 
L 87.447464 35.746962 
L 88.141165 35.412078 
L 88.335712 34.742311 
L 88.565788 35.412078 
L 90.403634 36.081846 
L 90.407671 36.41673 
L 90.654294 36.081846 
L 91.283855 36.41673 
L 92.21379 36.751613 
L 92.619508 36.081846 
L 92.762955 36.41673 
L 96.70637 36.751613 
L 98.259887 37.086497 
L 98.595301 37.756265 
L 99.591133 38.091148 
L 99.890821 38.760916 
L 100.060204 39.765567 
L 100.730558 39.430683 
L 101.14938 41.439985 
L 101.313971 41.774869 
L 101.473592 42.444637 
L 102.123284 42.77952 
L 102.452294 42.444637 
L 102.504874 42.77952 
L 102.567597 42.444637 
L 102.580334 42.77952 
L 102.75451 43.784172 
L 102.818699 43.114404 
L 103.148166 43.784172 
L 103.155241 44.119055 
L 103.322743 44.453939 
L 103.597186 43.784172 
L 103.7431 44.119055 
L 103.940284 43.449288 
L 104.074719 43.784172 
L 105.10159 44.788823 
L 105.164372 44.453939 
L 105.400016 44.119055 
L 105.416463 44.453939 
L 105.741357 44.119055 
L 105.783372 44.453939 
L 106.493228 43.784172 
L 112.775623 44.119055 
L 113.284173 44.788823 
L 113.964399 45.123706 
L 113.993983 45.45859 
L 114.14038 45.123706 
L 114.30927 45.45859 
L 114.634641 45.793474 
L 114.721277 45.45859 
L 114.983514 46.128358 
L 115.031885 45.793474 
L 115.067871 46.128358 
L 115.112403 46.463241 
L 115.502482 46.798125 
L 115.668674 47.133009 
L 115.672563 46.798125 
L 115.817732 47.133009 
L 115.880581 47.802776 
L 116.013938 48.13766 
L 116.213737 47.802776 
L 116.293704 48.13766 
L 118.449711 48.472544 
L 118.686389 48.807427 
L 118.943 48.472544 
L 119.103672 48.807427 
L 119.469128 49.142311 
L 119.663735 48.472544 
L 119.945084 48.13766 
L 120.088843 48.472544 
L 120.400634 48.13766 
L 120.685151 48.472544 
L 120.698994 48.807427 
L 120.76946 48.472544 
L 120.875365 48.13766 
L 121.131332 48.472544 
L 121.217174 48.13766 
L 121.345976 48.472544 
L 121.347101 48.13766 
L 121.421583 48.472544 
L 121.543503 48.13766 
L 121.555653 48.472544 
L 121.98417 49.142311 
L 122.059529 48.472544 
L 122.101235 48.807427 
L 122.177969 49.142311 
L 122.224083 48.807427 
L 122.391103 48.472544 
L 122.501869 48.807427 
L 122.928173 48.472544 
L 123.347286 48.807427 
L 123.406383 48.472544 
L 123.94778 48.13766 
L 124.759523 48.472544 
L 129.437478 48.807427 
L 129.782707 49.142311 
L 129.807862 49.477195 
L 130.519525 49.812078 
L 130.557512 49.477195 
L 130.560054 49.812078 
L 131.102179 50.481846 
L 131.710572 52.826032 
L 131.797404 53.495799 
L 132.237552 54.835334 
L 133.081696 54.500451 
L 133.163055 54.835334 
L 134.393534 55.170218 
L 134.501229 54.500451 
L 134.63212 54.835334 
L 134.711583 55.505102 
L 135.046224 55.170218 
L 135.166724 56.174869 
L 135.586815 56.509753 
L 135.667204 56.844637 
L 136.084113 56.509753 
L 136.086962 56.174869 
L 136.265349 56.844637 
L 136.302381 56.509753 
L 136.343934 56.174869 
L 136.801918 55.839985 
L 136.918573 56.174869 
L 136.982112 55.839985 
L 136.99474 56.174869 
L 136.996367 56.509753 
L 137.175258 56.844637 
L 137.324049 56.174869 
L 137.45967 56.509753 
L 137.6874 56.174869 
L 137.777221 56.844637 
L 137.915627 55.839985 
L 137.982888 56.174869 
L 138.161886 57.514404 
L 138.233878 57.17952 
L 138.304873 57.514404 
L 138.307316 57.17952 
L 138.750837 57.849288 
L 138.802077 58.519055 
L 138.895094 58.184172 
L 139.120264 58.519055 
L 139.153776 58.184172 
L 139.2868 58.519055 
L 139.300256 58.853939 
L 140.042266 58.519055 
L 140.077055 58.853939 
L 140.229897 58.519055 
L 140.393005 58.853939 
L 140.479624 58.184172 
L 140.503269 57.849288 
L 140.559442 58.184172 
L 141.005597 58.519055 
L 141.083354 58.184172 
L 141.489874 57.849288 
L 143.311384 57.514404 
L 145.583356 58.184172 
L 146.134457 58.853939 
L 146.926716 59.188823 
L 146.951963 58.853939 
L 146.98436 59.188823 
L 147.179351 59.523706 
L 147.222375 60.193474 
L 147.43539 60.863241 
L 147.503192 61.198125 
L 147.571282 60.863241 
L 147.638074 61.198125 
L 148.236457 60.863241 
L 148.330157 61.198125 
L 148.582531 61.533009 
L 153.214093 61.198125 
L 153.251048 61.533009 
L 153.634018 61.198125 
L 153.742694 60.863241 
L 154.03423 61.198125 
L 154.075259 60.528358 
L 154.419704 61.198125 
L 154.479228 60.863241 
L 154.509185 61.198125 
L 155.450701 60.863241 
L 155.509234 60.528358 
L 155.781621 60.863241 
L 156.70078 61.198125 
L 157.186874 60.863241 
L 157.773817 61.198125 
L 161.611838 61.533009 
L 163.250729 61.198125 
L 163.324765 60.863241 
L 163.471204 61.198125 
L 164.930234 61.533009 
L 165.297068 62.202776 
L 165.412619 61.533009 
L 165.504778 61.198125 
L 165.796985 61.533009 
L 165.890666 61.198125 
L 166.177601 62.53766 
L 166.743954 63.207427 
L 167.385179 62.872544 
L 167.479664 63.207427 
L 167.56438 62.53766 
L 168.507662 62.872544 
L 168.750198 62.53766 
L 169.013933 63.207427 
L 169.15806 62.872544 
L 169.249629 63.207427 
L 169.874082 62.872544 
L 169.950136 62.53766 
L 170.156325 63.207427 
L 170.201972 62.872544 
L 170.240521 63.207427 
L 170.379843 63.542311 
L 170.39786 63.207427 
L 170.547459 63.542311 
L 170.571749 63.877195 
L 170.594188 63.542311 
L 170.69449 63.207427 
L 170.98912 63.542311 
L 171.132788 63.877195 
L 171.137082 64.212078 
L 171.254221 64.546962 
L 171.326802 64.212078 
L 171.560805 63.877195 
L 171.589306 63.542311 
L 171.720227 63.877195 
L 171.824109 63.542311 
L 172.030978 63.877195 
L 172.448955 64.212078 
L 172.477604 63.877195 
L 172.696421 64.212078 
L 172.74227 64.546962 
L 173.260628 64.212078 
L 173.333072 64.546962 
L 174.153662 64.212078 
L 179.033391 64.546962 
L 179.639972 65.551613 
L 179.656849 65.886497 
L 180.277324 66.891148 
L 180.398014 67.560916 
L 180.644796 67.895799 
L 180.706753 67.226032 
L 180.825837 67.560916 
L 180.903998 66.891148 
L 180.941454 67.226032 
L 181.053951 67.895799 
L 181.444313 68.230683 
L 181.478468 68.565567 
L 181.703808 69.235334 
L 182.168049 69.570218 
L 182.287755 70.574869 
L 182.910152 71.244637 
L 182.933766 71.914404 
L 183.375015 72.584172 
L 183.591116 72.249288 
L 183.721353 72.919055 
L 183.98738 73.253939 
L 184.056045 72.919055 
L 184.238819 72.584172 
L 184.336872 72.919055 
L 184.502759 72.249288 
L 184.976076 72.919055 
L 185.021843 73.588823 
L 185.320046 74.593474 
L 185.455829 74.25859 
L 185.514547 74.593474 
L 185.536824 74.25859 
L 185.623303 72.919055 
L 186.101839 73.588823 
L 186.236878 72.584172 
L 186.371448 72.249288 
L 186.686527 71.914404 
L 186.763232 72.919055 
L 187.073014 73.253939 
L 187.091582 72.584172 
L 187.125654 72.919055 
L 187.318437 72.584172 
L 187.321325 72.249288 
L 187.594381 72.919055 
L 187.651482 73.923706 
L 187.796071 73.588823 
L 187.811639 72.919055 
L 187.840259 73.588823 
L 187.982654 73.253939 
L 188.17372 73.923706 
L 188.48496 74.25859 
L 188.681396 73.923706 
L 188.689667 73.588823 
L 188.857853 73.923706 
L 188.960272 74.593474 
L 189.113369 75.263241 
L 189.234788 74.928358 
L 189.539112 75.263241 
L 189.887271 74.928358 
L 190.185295 75.263241 
L 190.450468 74.928358 
L 190.759981 75.263241 
L 190.888614 75.598125 
L 193.242586 74.928358 
L 195.407323 74.593474 
L 196.61427 75.263241 
L 196.631507 75.598125 
L 196.76092 75.263241 
L 196.776308 75.598125 
L 197.054175 75.263241 
L 197.084018 74.928358 
L 197.557055 75.263241 
L 197.602 74.928358 
L 197.634981 75.263241 
L 197.744983 74.928358 
L 197.956846 75.598125 
L 197.965644 75.933009 
L 198.304664 76.267892 
L 198.467778 75.933009 
L 198.554927 76.267892 
L 198.574067 75.933009 
L 198.67167 76.267892 
L 198.745659 75.933009 
L 198.889815 76.267892 
L 198.907061 76.602776 
L 199.390348 77.272544 
L 199.390589 77.607427 
L 199.499283 77.272544 
L 199.62211 78.612078 
L 199.65248 78.277195 
L 199.730494 77.607427 
L 199.749358 77.942311 
L 200.254575 78.277195 
L 200.269781 77.942311 
L 200.436234 78.612078 
L 200.438057 78.946962 
L 200.535618 78.612078 
L 200.630843 78.946962 
L 200.64569 78.612078 
L 200.906347 78.277195 
L 200.95223 78.612078 
L 200.974363 78.277195 
L 201.038042 77.607427 
L 201.093397 76.93766 
L 201.231708 76.267892 
L 201.299311 76.602776 
L 201.387747 77.607427 
L 201.451446 78.277195 
L 201.47149 77.942311 
L 201.857275 78.612078 
L 201.895645 78.277195 
L 201.949145 78.612078 
L 202.337464 79.61673 
L 202.786527 79.281846 
L 203.139167 79.61673 
L 203.207325 79.951613 
L 203.220511 79.61673 
L 203.466134 80.621381 
L 203.51284 80.956265 
L 203.590884 80.621381 
L 203.930464 80.956265 
L 204.03825 81.291148 
L 204.240393 80.956265 
L 204.240794 80.621381 
L 204.321845 81.291148 
L 204.347787 80.956265 
L 204.907384 80.621381 
L 205.067076 81.626032 
L 205.412438 81.960916 
L 205.579818 81.626032 
L 205.830941 82.295799 
L 206.269304 82.630683 
L 206.366549 82.965567 
L 206.614701 82.630683 
L 206.618033 82.295799 
L 207.024233 81.626032 
L 207.406029 81.291148 
L 208.288251 80.956265 
L 208.343632 80.286497 
L 209.657005 79.951613 
L 209.92715 80.286497 
L 210.17246 79.951613 
L 212.31739 80.286497 
L 212.46004 80.621381 
L 212.95857 80.956265 
L 213.009324 81.291148 
L 213.179144 80.956265 
L 213.638026 81.291148 
L 213.885882 81.626032 
L 214.041945 82.630683 
L 214.245821 84.305102 
L 214.339358 84.974869 
L 214.368455 84.639985 
L 214.422796 84.305102 
L 214.434019 84.639985 
L 214.445059 84.974869 
L 214.762482 85.309753 
L 215.037793 85.97952 
L 215.054456 85.309753 
L 215.059663 85.644637 
L 215.185859 85.97952 
L 215.31666 84.974869 
L 215.438332 85.309753 
L 215.511351 86.314404 
L 215.556274 86.649288 
L 215.574246 85.97952 
L 215.597582 85.644637 
L 216.091633 86.314404 
L 216.389509 85.97952 
L 216.447048 86.649288 
L 216.581746 85.97952 
L 216.744772 86.314404 
L 216.755233 86.649288 
L 216.964819 87.319055 
L 217.112676 87.988823 
L 217.19041 87.319055 
L 217.282816 87.653939 
L 217.283004 87.988823 
L 217.514257 87.653939 
L 217.923939 88.323706 
L 217.984093 87.988823 
L 218.263201 88.65859 
L 218.470444 88.323706 
L 218.675744 88.65859 
L 218.691138 88.993474 
L 218.865562 89.328358 
L 219.264146 88.993474 
L 219.410947 89.663241 
L 219.414383 89.328358 
L 219.753293 89.663241 
L 219.845338 89.328358 
L 220.075779 89.998125 
L 220.170474 89.328358 
L 220.206613 89.663241 
L 220.312031 90.667892 
L 220.46521 90.333009 
L 220.753391 90.667892 
L 220.937456 91.672544 
L 221.538401 91.002776 
L 221.615496 90.667892 
L 221.81062 90.333009 
L 221.958918 90.667892 
L 222.316099 90.333009 
L 222.448037 89.998125 
L 222.5 90.333009 
L 222.702909 90.667892 
L 222.922889 90.333009 
L 223.783148 89.998125 
L 223.786941 89.663241 
L 227.070134 89.998125 
L 227.841647 90.333009 
L 227.904093 90.667892 
L 228.581778 91.002776 
L 228.948231 91.33766 
L 229.042639 91.002776 
L 229.581345 92.677195 
L 229.635794 94.01673 
L 229.81452 94.351613 
L 229.8197 94.01673 
L 229.918826 94.351613 
L 229.965334 94.686497 
L 230.558137 95.021381 
L 230.589822 95.356265 
L 231.180595 96.695799 
L 231.555547 97.030683 
L 231.804235 96.360916 
L 231.828735 96.695799 
L 231.837336 97.365567 
L 232.112612 98.035334 
L 233.057267 98.370218 
L 233.270113 98.705102 
L 233.273139 99.039985 
L 233.554792 99.709753 
L 233.84965 100.044637 
L 233.909795 100.37952 
L 234.100511 100.044637 
L 234.348319 100.714404 
L 234.440821 101.049288 
L 235.09068 100.37952 
L 235.180497 100.714404 
L 235.438367 100.37952 
L 235.564508 100.714404 
L 235.567718 100.37952 
L 235.632576 100.714404 
L 235.743171 101.049288 
L 235.817058 100.37952 
L 236.106188 101.049288 
L 236.210033 100.044637 
L 236.286295 100.37952 
L 236.312731 100.714404 
L 236.514778 100.044637 
L 236.60076 99.374869 
L 236.685913 99.709753 
L 236.735616 99.374869 
L 236.84082 99.709753 
L 236.972255 99.374869 
L 237.345626 99.039985 
L 237.888842 101.719055 
L 238.206037 101.384172 
L 238.278145 101.049288 
L 238.658452 101.384172 
L 238.690194 101.049288 
L 238.890079 101.384172 
L 239.005846 101.049288 
L 239.062482 101.384172 
L 239.710132 100.714404 
L 243.414918 101.049288 
L 244.373722 101.384172 
L 245.029237 102.723706 
L 245.276491 103.05859 
L 245.28604 102.723706 
L 245.506308 102.388823 
L 245.978725 103.05859 
L 246.277149 105.067892 
L 246.306357 104.733009 
L 246.319119 104.398125 
L 246.366351 104.733009 
L 246.464037 105.402776 
L 246.83905 106.072544 
L 246.892155 106.407427 
L 248.595011 106.072544 
L 248.675861 106.407427 
L 249.008494 106.072544 
L 249.245659 105.402776 
L 249.346604 105.73766 
L 249.580396 106.072544 
L 249.665344 105.73766 
L 250.594693 106.072544 
L 250.736962 106.407427 
L 251.31825 105.73766 
L 251.383448 106.072544 
L 251.412091 105.73766 
L 251.510899 105.402776 
L 251.549745 105.73766 
L 251.90643 105.402776 
L 251.949661 105.067892 
L 252.008455 105.402776 
L 252.102749 104.733009 
L 252.113538 105.067892 
L 252.188664 105.402776 
L 252.307288 105.067892 
L 252.617391 104.733009 
L 252.625608 104.398125 
L 252.673453 104.733009 
L 252.976387 104.398125 
L 253.050462 104.733009 
L 253.276156 103.728358 
L 253.294554 104.398125 
L 253.352569 103.728358 
L 253.597169 103.05859 
L 253.707691 101.719055 
L 254.049965 101.384172 
L 254.051377 100.714404 
L 254.543707 100.37952 
L 254.58706 100.714404 
L 254.765486 100.37952 
L 254.844116 99.709753 
L 254.864029 100.044637 
L 255.00561 99.709753 
L 255.113863 99.039985 
L 255.2643 98.705102 
L 255.277789 98.370218 
L 255.956513 99.374869 
L 255.957128 99.039985 
L 256.026377 99.374869 
L 256.174476 99.039985 
L 256.618767 98.705102 
L 257.789782 98.370218 
L 259.803295 98.705102 
L 260.772858 99.039985 
L 261.636251 100.044637 
L 261.732614 100.37952 
L 261.848665 100.044637 
L 262.546082 101.719055 
L 262.66934 102.723706 
L 262.79037 103.393474 
L 263.058947 104.063241 
L 263.355016 105.402776 
L 263.519467 106.072544 
L 263.611474 107.412078 
L 264.063924 108.751613 
L 266.599704 108.41673 
L 266.605888 108.751613 
L 267.463433 107.746962 
L 267.587459 107.077195 
L 267.606777 107.412078 
L 267.645835 107.077195 
L 267.972215 106.742311 
L 268.142186 107.412078 
L 268.20885 107.077195 
L 268.547678 108.41673 
L 268.725257 107.746962 
L 268.87888 109.086497 
L 268.942801 110.091148 
L 269.168743 109.086497 
L 269.183897 109.421381 
L 269.237987 110.091148 
L 269.303361 109.756265 
L 269.425353 110.091148 
L 269.445853 109.756265 
L 269.515693 110.426032 
L 269.728766 109.756265 
L 269.918942 109.421381 
L 269.940919 109.756265 
L 270.000958 109.086497 
L 270.197201 108.41673 
L 270.259979 108.751613 
L 270.288018 108.41673 
L 270.401214 108.081846 
L 270.488141 108.41673 
L 270.747007 107.412078 
L 271.051996 107.746962 
L 271.055209 107.412078 
L 271.487006 107.077195 
L 271.535034 106.407427 
L 271.609692 106.742311 
L 271.721688 106.407427 
L 272.170144 106.742311 
L 272.240871 106.407427 
L 272.304695 106.742311 
L 272.515457 106.407427 
L 273.886443 106.742311 
L 275.152092 106.407427 
L 276.242704 106.742311 
L 276.538725 107.077195 
L 277.202747 107.412078 
L 277.878741 108.081846 
L 278.192244 108.41673 
L 278.274745 108.081846 
L 278.460562 108.41673 
L 278.47243 108.081846 
L 278.47751 108.41673 
L 278.943377 108.751613 
L 279.015235 109.086497 
L 280.587499 109.421381 
L 280.659497 109.086497 
L 280.930754 109.421381 
L 281.33502 109.086497 
L 281.432949 108.751613 
L 281.569402 109.421381 
L 282.385828 109.086497 
L 283.180563 107.746962 
L 283.275898 108.41673 
L 283.888426 108.081846 
L 283.895602 107.746962 
L 283.952086 108.41673 
L 283.997457 108.081846 
L 284.125024 108.751613 
L 284.333877 108.081846 
L 284.49133 108.41673 
L 285.108096 108.081846 
L 285.143485 107.412078 
L 285.205224 107.746962 
L 285.64756 108.41673 
L 285.692408 108.081846 
L 285.842991 108.41673 
L 286.112884 108.081846 
L 286.239497 108.751613 
L 286.248384 108.41673 
L 286.514906 107.412078 
L 286.640361 107.746962 
L 286.817376 106.742311 
L 287.047012 107.412078 
L 287.066474 107.077195 
L 287.771537 108.751613 
L 288.478435 108.41673 
L 288.592674 108.081846 
L 289.187461 108.41673 
L 289.276917 108.081846 
L 289.849283 108.41673 
L 294.034287 108.751613 
L 294.457288 109.086497 
L 294.553154 109.421381 
L 294.893858 109.756265 
L 295.19947 110.426032 
L 295.566094 110.760916 
L 295.820635 111.765567 
L 295.963963 112.435334 
L 296.266874 112.100451 
L 296.409569 112.435334 
L 297.375515 112.770218 
L 297.686525 112.435334 
L 297.788867 113.105102 
L 297.820092 112.770218 
L 298.763755 113.439985 
L 298.895157 113.105102 
L 299.01833 113.774869 
L 299.622869 113.439985 
L 299.636904 113.774869 
L 299.828292 114.109753 
L 300.112623 113.774869 
L 300.401372 114.109753 
L 300.501606 114.444637 
L 300.701497 114.109753 
L 300.91261 114.444637 
L 300.942209 114.109753 
L 300.992936 114.444637 
L 301.13454 115.114404 
L 301.219608 115.784172 
L 301.350903 116.788823 
L 301.377589 116.453939 
L 301.81042 116.119055 
L 301.98253 115.784172 
L 302.080956 116.453939 
L 302.32079 115.449288 
L 302.371618 116.119055 
L 302.411374 115.784172 
L 302.767389 116.453939 
L 302.847101 115.114404 
L 303.068654 114.444637 
L 303.150039 113.439985 
L 303.488919 114.109753 
L 303.759196 113.774869 
L 303.809329 114.109753 
L 303.911026 113.439985 
L 303.928669 113.774869 
L 303.971789 114.109753 
L 304.331244 114.77952 
L 304.347868 114.444637 
L 304.548863 114.77952 
L 304.816142 114.444637 
L 305.399125 114.109753 
L 306.253003 114.444637 
L 306.781795 114.109753 
L 309.764226 114.444637 
L 310.617033 114.77952 
L 310.625805 115.449288 
L 310.860343 115.114404 
L 311.09984 115.784172 
L 311.468726 115.449288 
L 311.80173 116.119055 
L 311.95534 115.784172 
L 312.022742 116.119055 
L 312.17396 115.784172 
L 312.202511 116.453939 
L 312.475245 116.788823 
L 312.499061 117.123706 
L 312.786364 117.45859 
L 312.836737 117.793474 
L 312.870198 117.45859 
L 313.125336 117.793474 
L 313.1553 117.123706 
L 313.181959 117.45859 
L 313.281672 118.128358 
L 313.289858 118.463241 
L 313.451336 118.128358 
L 313.452161 117.793474 
L 313.566964 118.128358 
L 313.709332 117.45859 
L 313.760096 117.793474 
L 314.085975 117.45859 
L 314.122332 117.123706 
L 314.139516 117.45859 
L 314.549623 120.472544 
L 314.620388 119.802776 
L 314.655503 120.13766 
L 314.673408 120.807427 
L 315.160486 120.472544 
L 315.304332 120.13766 
L 315.425595 120.472544 
L 315.641259 119.802776 
L 315.647157 120.13766 
L 315.663347 120.472544 
L 316.119026 120.13766 
L 316.143275 120.472544 
L 316.504519 120.13766 
L 316.53696 120.472544 
L 317.403103 120.13766 
L 317.469733 119.802776 
L 317.577771 120.13766 
L 317.594117 119.802776 
L 317.6005 120.13766 
L 317.763087 119.802776 
L 317.763559 119.467892 
L 317.879733 119.802776 
L 317.923264 119.467892 
L 317.995044 119.802776 
L 318.441933 120.13766 
L 318.796362 119.802776 
L 318.799806 119.467892 
L 318.812356 119.802776 
L 319.093024 119.467892 
L 319.265988 118.463241 
L 319.304627 119.133009 
L 319.426158 118.798125 
L 319.429468 119.133009 
L 319.429773 118.798125 
L 319.665731 118.463241 
L 319.716076 118.798125 
L 320.068975 119.467892 
L 320.409389 119.133009 
L 320.410057 118.798125 
L 320.871266 119.467892 
L 320.960209 118.798125 
L 321.326322 119.133009 
L 321.446301 120.13766 
L 321.63253 119.802776 
L 321.641533 120.13766 
L 321.680902 119.802776 
L 322.294578 120.472544 
L 322.306803 120.13766 
L 322.547008 119.802776 
L 323.37578 120.13766 
L 323.858284 120.472544 
L 324.186678 120.13766 
L 326.275909 120.472544 
L 326.954558 120.13766 
L 327.865457 120.472544 
L 328.015739 121.142311 
L 328.310509 121.477195 
L 328.7251 121.142311 
L 328.788233 120.472544 
L 329.012959 120.807427 
L 329.194907 121.812078 
L 329.516153 122.146962 
L 329.746533 123.151613 
L 329.893564 123.486497 
L 329.968697 122.81673 
L 330.150894 123.151613 
L 330.159381 122.81673 
L 330.482512 123.821381 
L 331.605159 124.156265 
L 331.608916 123.821381 
L 331.669159 124.156265 
L 332.107471 123.821381 
L 332.421822 124.491148 
L 332.618106 124.156265 
L 332.757846 125.160916 
L 332.973324 124.826032 
L 333.042607 125.160916 
L 333.190324 124.491148 
L 333.266992 124.826032 
L 333.477161 125.160916 
L 333.736891 124.826032 
L 333.795275 125.160916 
L 333.863771 124.826032 
L 333.871043 125.160916 
L 334.034499 124.826032 
L 334.205143 125.160916 
L 334.310801 124.826032 
L 334.413843 125.495799 
L 334.563951 125.830683 
L 334.598293 125.495799 
L 334.624387 126.165567 
L 334.734763 125.495799 
L 335.170024 125.830683 
L 335.346138 126.165567 
L 335.731399 125.830683 
L 335.752649 126.165567 
L 335.794922 125.830683 
L 335.837981 125.495799 
L 335.874751 125.830683 
L 335.985947 126.500451 
L 336.364351 125.830683 
L 336.381603 126.165567 
L 336.520785 125.830683 
L 336.819825 126.165567 
L 336.836554 125.830683 
L 337.034221 126.165567 
L 338.094365 125.160916 
L 342.611655 125.495799 
L 342.852198 125.830683 
L 342.858377 126.165567 
L 343.292892 126.500451 
L 343.386438 126.835334 
L 343.805696 127.505102 
L 343.824425 127.839985 
L 343.953302 127.170218 
L 343.971495 127.505102 
L 344.580723 128.509753 
L 345.236272 128.174869 
L 345.344877 127.839985 
L 345.430755 128.509753 
L 346.275722 128.844637 
L 346.671478 129.849288 
L 347.08295 130.853939 
L 347.492222 131.188823 
L 347.501601 130.853939 
L 347.583568 131.523706 
L 347.653055 130.853939 
L 347.948685 131.188823 
L 348.241527 131.85859 
L 348.505915 131.523706 
L 348.545713 131.85859 
L 348.815706 132.193474 
L 349.234132 132.528358 
L 349.584326 132.193474 
L 349.740884 132.528358 
L 350.053376 132.193474 
L 350.134275 131.85859 
L 350.139967 132.193474 
L 350.279695 132.863241 
L 350.404769 133.198125 
L 350.433837 132.863241 
L 350.577076 132.528358 
L 350.619056 132.193474 
L 350.864453 133.198125 
L 350.926991 132.863241 
L 350.994431 133.198125 
L 351.458044 130.853939 
L 351.519323 131.188823 
L 351.519502 130.853939 
L 351.68428 131.188823 
L 351.774534 130.853939 
L 351.847374 131.523706 
L 352.062951 131.188823 
L 352.110613 130.519055 
L 352.187721 130.853939 
L 352.336485 130.519055 
L 352.468017 131.188823 
L 352.517329 130.853939 
L 352.733676 130.519055 
L 352.776434 130.853939 
L 352.823344 130.519055 
L 352.950729 130.853939 
L 353.029434 130.519055 
L 353.475637 130.853939 
L 353.498906 130.184172 
L 354.095983 129.849288 
L 354.193308 129.514404 
L 358.35101 129.849288 
L 359.246524 130.184172 
L 359.570809 130.519055 
L 359.667431 130.853939 
L 360.269851 131.188823 
L 360.36465 130.853939 
L 360.427871 131.188823 
L 360.688003 131.523706 
L 360.950321 133.533009 
L 360.982895 134.202776 
L 361.183211 134.53766 
L 361.494231 133.867892 
L 361.77262 134.53766 
L 363.07577 135.542311 
L 363.247182 136.881846 
L 363.547838 136.546962 
L 363.979686 137.21673 
L 364.088086 136.881846 
L 364.204543 137.21673 
L 364.326768 136.881846 
L 364.521758 137.21673 
L 364.584926 137.551613 
L 364.762756 137.886497 
L 364.788995 138.221381 
L 365.075632 138.556265 
L 365.16913 138.221381 
L 365.24552 138.891148 
L 365.328586 139.895799 
L 365.646219 140.230683 
L 365.867532 141.235334 
L 365.927447 140.900451 
L 366.108679 141.235334 
L 366.293335 142.574869 
L 366.671076 142.239985 
L 366.78395 142.574869 
L 366.867005 141.905102 
L 366.868571 141.570218 
L 366.928081 142.239985 
L 367.017906 141.570218 
L 367.094874 141.905102 
L 367.103355 141.570218 
L 367.240101 140.230683 
L 367.353579 139.895799 
L 367.556881 140.565567 
L 367.582623 140.900451 
L 367.78746 141.235334 
L 367.853687 142.574869 
L 367.911547 143.244637 
L 368.100727 142.909753 
L 368.208697 143.244637 
L 368.542816 142.909753 
L 368.626425 142.239985 
L 368.871173 142.909753 
L 369.061828 142.574869 
L 369.089279 141.905102 
L 369.544754 141.235334 
L 369.632919 140.565567 
L 369.905193 140.230683 
L 370.171074 140.565567 
L 370.236789 141.235334 
L 370.273503 140.565567 
L 370.401238 140.230683 
L 370.517796 140.565567 
L 371.039583 140.900451 
L 371.063795 140.565567 
L 371.205131 140.900451 
L 371.588658 140.565567 
L 374.733205 140.900451 
L 375.431074 141.235334 
L 375.973655 141.905102 
L 376.033747 142.239985 
L 376.474937 142.574869 
L 376.502393 142.909753 
L 376.711101 143.244637 
L 376.829081 142.909753 
L 377.285884 143.57952 
L 377.955629 143.244637 
L 378.08082 144.249288 
L 378.416795 144.584172 
L 378.722113 145.253939 
L 378.803069 144.584172 
L 379.019358 144.919055 
L 379.033376 144.584172 
L 379.049666 145.588823 
L 379.062744 145.253939 
L 379.3802 144.919055 
L 379.723614 146.25859 
L 379.834758 145.923706 
L 379.904416 146.25859 
L 379.916782 145.923706 
L 380.052593 145.588823 
L 380.067635 145.923706 
L 380.101776 145.588823 
L 380.237805 146.25859 
L 380.361488 146.928358 
L 380.518803 146.593474 
L 380.801204 146.25859 
L 380.934537 147.263241 
L 380.947086 146.928358 
L 381.2945 149.272544 
L 381.493246 148.602776 
L 381.506082 148.93766 
L 381.518171 149.272544 
L 382.121824 149.942311 
L 382.134201 149.607427 
L 382.17967 150.277195 
L 382.241838 150.946962 
L 382.314314 150.612078 
L 382.35928 150.277195 
L 382.802482 152.286497 
L 382.815517 151.951613 
L 382.89944 152.286497 
L 383.170994 151.951613 
L 383.193692 152.286497 
L 383.409495 151.951613 
L 383.427789 151.61673 
L 383.59167 151.281846 
L 383.70754 151.951613 
L 383.729876 151.61673 
L 383.827389 150.612078 
L 383.829969 150.946962 
L 383.905481 151.61673 
L 383.955075 151.281846 
L 384.095458 150.612078 
L 384.189019 151.281846 
L 384.275354 150.612078 
L 384.305841 150.946962 
L 384.307855 151.61673 
L 384.446617 151.281846 
L 384.5468 151.61673 
L 384.624062 150.946962 
L 384.625321 151.281846 
L 384.756086 152.286497 
L 384.834135 151.951613 
L 384.850045 151.61673 
L 385.022438 151.281846 
L 385.170144 151.951613 
L 385.356723 151.61673 
L 385.476484 152.286497 
L 385.491883 152.621381 
L 385.937671 152.286497 
L 386.076616 151.951613 
L 386.0871 151.61673 
L 386.414251 151.951613 
L 386.491506 152.286497 
L 386.779783 152.621381 
L 387.168901 152.286497 
L 387.3561 151.61673 
L 387.956571 151.951613 
L 387.996931 152.286497 
L 391.160796 152.621381 
L 391.748817 152.956265 
L 393.35383 153.291148 
L 393.526393 153.626032 
L 393.551449 153.960916 
L 393.614472 153.626032 
L 393.806667 153.960916 
L 394.124512 155.300451 
L 394.244495 155.635334 
L 394.353252 156.639985 
L 394.411075 157.309753 
L 395.236139 157.97952 
L 395.312619 157.644637 
L 396.057548 157.97952 
L 396.065297 158.314404 
L 396.3024 158.649288 
L 396.503599 159.653939 
L 396.541466 159.319055 
L 396.586504 159.653939 
L 396.668666 159.988823 
L 397.545338 160.323706 
L 397.809589 160.65859 
L 397.828753 160.993474 
L 397.989617 161.328358 
L 398.015917 161.663241 
L 398.449476 161.998125 
L 398.627302 161.663241 
L 398.73221 162.333009 
L 398.790961 162.667892 
L 398.791268 162.333009 
L 398.882225 161.998125 
L 399.038602 163.002776 
L 399.333737 162.333009 
L 399.556261 162.667892 
L 399.5676 162.333009 
L 399.680458 162.667892 
L 399.759468 161.998125 
L 399.885558 161.328358 
L 399.886922 161.663241 
L 400.616847 161.328358 
L 401.189232 161.663241 
L 401.36063 161.998125 
L 402.097779 161.328358 
L 402.102647 160.993474 
L 402.415142 161.663241 
L 402.43012 161.998125 
L 402.616469 161.663241 
L 403.063923 161.998125 
L 403.681157 161.663241 
L 403.861499 161.328358 
L 404.762066 161.663241 
L 408.244945 161.998125 
L 408.584423 162.333009 
L 409.09891 162.667892 
L 409.322527 164.007427 
L 409.996391 164.342311 
L 410.088797 164.677195 
L 411.177303 165.681846 
L 411.207309 165.346962 
L 411.285789 165.681846 
L 411.30736 166.01673 
L 411.467902 166.351613 
L 411.602296 166.01673 
L 411.78901 166.351613 
L 411.834128 166.01673 
L 412.832965 166.686497 
L 412.908238 167.356265 
L 413.02664 167.021381 
L 413.146711 167.356265 
L 413.165269 167.021381 
L 413.920762 167.356265 
L 413.947407 167.691148 
L 414.109895 167.356265 
L 414.223728 168.026032 
L 414.715184 168.360916 
L 414.785947 168.026032 
L 414.807282 168.360916 
L 414.9786 168.026032 
L 415.036261 167.356265 
L 415.045998 167.691148 
L 415.202472 167.356265 
L 415.302715 168.026032 
L 415.996575 167.691148 
L 416.250074 168.026032 
L 416.357081 167.691148 
L 416.531091 168.026032 
L 416.536819 168.360916 
L 416.988597 168.026032 
L 417.044907 167.356265 
L 417.112082 167.691148 
L 417.154668 168.026032 
L 417.253369 167.691148 
L 417.324772 168.360916 
L 417.477709 168.026032 
L 417.541773 168.360916 
L 418.393782 168.026032 
L 418.550061 167.691148 
L 418.744815 168.026032 
L 418.829822 167.691148 
L 419.078905 168.360916 
L 420.197575 168.026032 
L 420.38734 167.691148 
L 420.536061 166.686497 
L 421.044687 166.351613 
L 421.141077 167.021381 
L 421.191858 167.356265 
L 421.704294 166.686497 
L 425.189397 167.021381 
L 425.257407 167.356265 
L 425.644151 167.691148 
L 425.922041 168.360916 
L 426.343251 168.695799 
L 426.713455 168.026032 
L 427.015063 168.695799 
L 427.248763 169.365567 
L 427.66289 169.700451 
L 428.088706 170.705102 
L 428.097927 171.039985 
L 428.319159 170.705102 
L 428.497661 172.044637 
L 428.667994 171.709753 
L 428.792454 172.37952 
L 428.794224 173.049288 
L 429.342241 173.384172 
L 429.516069 173.049288 
L 429.589962 171.709753 
L 429.633228 172.044637 
L 429.729714 172.37952 
L 429.750491 172.044637 
L 429.816718 172.37952 
L 429.938446 172.714404 
L 430.003409 172.37952 
L 430.309925 172.714404 
L 430.407885 171.709753 
L 430.414904 172.044637 
L 430.626781 172.37952 
L 430.693846 172.044637 
L 430.732037 172.37952 
L 430.760123 172.714404 
L 430.934194 172.37952 
L 431.006631 172.714404 
L 431.060319 172.37952 
L 431.185711 172.714404 
L 431.290375 172.044637 
L 431.322615 172.37952 
L 431.444238 171.709753 
L 431.449743 171.374869 
L 431.586636 172.044637 
L 431.613061 172.37952 
L 431.734008 172.044637 
L 431.746339 172.37952 
L 431.852782 171.709753 
L 431.908437 172.044637 
L 431.986532 172.714404 
L 432.294319 175.728358 
L 432.572313 175.393474 
L 432.599905 175.05859 
L 432.765077 175.393474 
L 433.081255 175.728358 
L 433.214808 175.393474 
L 433.287231 175.728358 
L 433.629352 175.05859 
L 433.650893 175.393474 
L 433.989752 175.05859 
L 434.103151 175.728358 
L 434.237362 175.393474 
L 434.304704 175.728358 
L 435.546488 175.05859 
L 435.548834 174.723706 
L 435.769131 175.05859 
L 435.829903 174.723706 
L 435.834662 175.05859 
L 436.685352 174.388823 
L 436.908644 174.723706 
L 437.591924 174.388823 
L 438.003431 173.384172 
L 438.014095 173.719055 
L 438.998492 173.049288 
L 441.539856 173.384172 
L 442.762149 173.719055 
L 443.315202 173.384172 
L 443.467687 173.049288 
L 443.53126 173.384172 
L 443.852321 173.719055 
L 443.922654 174.723706 
L 444.191636 175.05859 
L 444.352481 176.063241 
L 444.358389 176.398125 
L 444.601255 176.733009 
L 444.621985 176.398125 
L 444.930296 176.063241 
L 444.972119 175.728358 
L 445.020287 176.063241 
L 445.130501 176.733009 
L 445.132786 177.067892 
L 445.146133 176.733009 
L 445.309494 177.067892 
L 445.582654 178.742311 
L 445.770389 177.402776 
L 445.842738 177.73766 
L 445.961198 179.746962 
L 446.087319 180.081846 
L 446.104069 179.746962 
L 446.151414 180.41673 
L 446.173328 180.751613 
L 446.686908 181.421381 
L 446.690201 181.756265 
L 446.718552 180.751613 
L 446.731552 181.421381 
L 446.834034 181.086497 
L 446.985071 181.756265 
L 447.11654 181.421381 
L 447.158894 181.756265 
L 447.337081 182.091148 
L 447.351661 182.426032 
L 447.445794 182.091148 
L 447.509832 182.760916 
L 447.60737 182.426032 
L 448.078809 182.760916 
L 448.346646 183.765567 
L 448.377997 183.430683 
L 448.504625 183.765567 
L 448.788013 182.426032 
L 448.794257 182.760916 
L 449.128015 183.430683 
L 449.302892 182.760916 
L 449.325937 183.095799 
L 449.452619 184.100451 
L 449.738411 183.765567 
L 449.738815 183.430683 
L 449.864622 183.095799 
L 449.870675 182.760916 
L 449.994914 183.095799 
L 450.581766 182.760916 
L 450.700094 184.100451 
L 450.717868 183.765567 
L 451.216363 184.100451 
L 451.439322 184.435334 
L 451.457909 184.100451 
L 451.985375 183.765567 
L 452.161982 183.430683 
L 452.632999 184.100451 
L 452.692741 183.430683 
L 452.831932 183.765567 
L 457.759218 184.100451 
L 458.784346 183.765567 
L 458.919449 184.100451 
L 458.94326 183.765567 
L 459.327368 184.100451 
L 459.613217 185.439985 
L 459.76568 185.774869 
L 460.052014 185.439985 
L 461.653718 186.444637 
L 462.49079 186.109753 
L 462.670052 186.444637 
L 462.979699 186.77952 
L 463.022166 186.444637 
L 463.284775 186.77952 
L 463.378624 187.449288 
L 463.652201 187.784172 
L 463.716543 187.449288 
L 463.721886 187.784172 
L 464.054265 187.114404 
L 464.148545 186.444637 
L 464.482405 187.114404 
L 464.824352 187.449288 
L 465.339368 187.784172 
L 465.385782 188.119055 
L 465.407225 187.784172 
L 465.555682 187.114404 
L 465.578395 186.444637 
L 465.731065 186.77952 
L 465.77501 187.449288 
L 465.933134 186.77952 
L 466.013842 187.114404 
L 466.125093 186.77952 
L 466.144425 187.114404 
L 466.353424 187.449288 
L 466.437284 188.453939 
L 466.698427 188.119055 
L 466.803936 188.453939 
L 467.005203 188.119055 
L 467.131582 188.453939 
L 467.257664 186.77952 
L 467.302604 186.444637 
L 467.458219 186.77952 
L 468.269269 186.444637 
L 468.336826 186.77952 
L 469.056486 187.114404 
L 474.122863 187.449288 
L 474.463687 187.784172 
L 474.666699 188.453939 
L 474.852563 188.788823 
L 474.872696 189.123706 
L 475.131996 188.788823 
L 475.152959 189.123706 
L 475.457311 189.45859 
L 475.538863 190.128358 
L 475.764534 190.463241 
L 475.895101 191.802776 
L 476.541522 192.13766 
L 476.800275 191.802776 
L 476.841595 191.467892 
L 476.846449 191.802776 
L 476.873115 192.13766 
L 478.779978 191.802776 
L 478.838274 192.13766 
L 479.254055 191.802776 
L 479.371263 191.467892 
L 479.385159 191.802776 
L 479.50534 191.467892 
L 479.667504 191.802776 
L 479.990175 191.467892 
L 480.969322 191.133009 
L 481.109605 191.467892 
L 481.178279 191.133009 
L 481.221982 191.467892 
L 481.322772 191.133009 
L 481.56481 191.802776 
L 481.950006 191.467892 
L 482.036566 190.798125 
L 482.1111 190.463241 
L 482.273025 191.133009 
L 482.409065 190.798125 
L 482.752402 191.802776 
L 482.782659 191.133009 
L 482.802815 191.467892 
L 483.10696 190.798125 
L 483.11805 191.133009 
L 483.518709 190.128358 
L 483.52637 189.793474 
L 483.554111 190.128358 
L 483.964731 189.793474 
L 484.214313 189.123706 
L 484.247585 188.788823 
L 484.299143 189.123706 
L 484.480065 189.45859 
L 484.502928 189.793474 
L 484.729024 190.128358 
L 484.740708 190.463241 
L 484.787372 190.128358 
L 485.105447 190.463241 
L 485.254938 190.128358 
L 485.629559 190.798125 
L 486.16302 190.463241 
L 486.183354 190.798125 
L 489.650045 191.133009 
L 490.79515 191.467892 
L 490.977098 191.802776 
L 491.608357 192.472544 
L 491.663735 192.13766 
L 491.742973 192.472544 
L 491.977058 192.807427 
L 492.81062 193.142311 
L 493.00068 194.146962 
L 493.208339 194.81673 
L 493.252024 195.486497 
L 493.622006 195.821381 
L 493.788953 196.156265 
L 494.471692 196.491148 
L 494.508042 197.160916 
L 494.521886 196.491148 
L 494.692375 196.826032 
L 494.693062 197.160916 
L 494.744075 196.826032 
L 494.885173 197.160916 
L 495.173223 196.826032 
L 495.258053 196.491148 
L 495.31696 196.826032 
L 495.508596 197.160916 
L 496.042462 196.826032 
L 496.35969 196.491148 
L 496.45982 196.826032 
L 497.460095 196.156265 
L 497.467213 196.491148 
L 497.76525 196.156265 
L 497.88491 195.821381 
L 498.149941 196.491148 
L 498.247375 197.830683 
L 498.295942 198.500451 
L 498.316852 198.165567 
L 498.373365 197.830683 
L 498.397318 198.165567 
L 498.421854 198.500451 
L 498.639057 198.835334 
L 498.699466 199.170218 
L 498.720632 198.500451 
L 498.730881 198.835334 
L 498.838478 199.505102 
L 498.903442 199.170218 
L 498.957034 198.835334 
L 498.982635 199.170218 
L 499.102206 199.839985 
L 499.113037 199.505102 
L 499.133817 199.170218 
L 499.238618 199.505102 
L 499.480658 199.839985 
L 499.69347 198.835334 
L 499.789221 199.170218 
L 499.876877 198.500451 
L 499.974654 198.835334 
L 500.024104 198.500451 
L 500.986861 198.165567 
L 501.068688 197.830683 
L 501.74346 197.495799 
L 502.008824 197.160916 
L 503.378489 196.826032 
L 503.889608 196.491148 
L 506.052793 196.826032 
L 507.000103 197.160916 
L 507.113892 197.495799 
L 507.564164 198.165567 
L 507.663322 198.500451 
L 507.784312 198.165567 
L 507.950776 198.500451 
L 508.202644 198.165567 
L 508.645917 198.835334 
L 508.807488 199.839985 
L 509.33691 200.174869 
L 509.943784 201.849288 
L 510.023592 202.519055 
L 510.236295 202.853939 
L 510.763428 203.188823 
L 510.774757 203.523706 
L 510.937004 203.85859 
L 510.964651 204.193474 
L 511.045481 203.85859 
L 512.20333 204.193474 
L 512.542998 203.85859 
L 512.601267 204.193474 
L 513.22757 204.528358 
L 513.58099 203.523706 
L 513.929738 203.188823 
L 514.006378 202.184172 
L 514.028584 202.519055 
L 514.079902 202.184172 
L 514.263093 201.849288 
L 514.367861 202.519055 
L 514.374886 202.184172 
L 514.544053 204.528358 
L 514.587273 205.198125 
L 514.651819 204.528358 
L 514.700436 204.863241 
L 514.904328 205.198125 
L 514.995212 206.202776 
L 515.104071 206.53766 
L 515.236196 206.202776 
L 515.361307 206.53766 
L 515.67559 206.202776 
L 515.819494 205.867892 
L 515.851615 206.202776 
L 515.885368 205.533009 
L 515.912879 205.867892 
L 515.913661 205.533009 
L 516.188536 205.867892 
L 516.27439 206.202776 
L 516.365075 206.53766 
L 516.501763 206.202776 
L 516.574181 206.53766 
L 517.206528 206.202776 
L 517.431961 205.867892 
L 518.12066 205.533009 
L 518.491682 205.867892 
L 518.674744 206.202776 
L 518.695867 205.867892 
L 519.360358 206.202776 
L 524.671871 205.867892 
L 524.842064 206.202776 
L 524.968424 205.533009 
L 525.114446 206.202776 
L 525.50281 205.867892 
L 525.54145 205.533009 
L 525.897395 206.202776 
L 526.152942 206.53766 
L 526.605194 206.202776 
L 526.724868 207.207427 
L 527.188152 207.877195 
L 527.204987 207.542311 
L 527.534594 207.207427 
L 527.54723 206.872544 
L 527.917604 206.202776 
L 527.989697 206.872544 
L 528.473605 206.53766 
L 528.573399 206.872544 
L 529.10695 207.207427 
L 529.286391 207.542311 
L 529.488107 207.207427 
L 529.542386 207.877195 
L 529.703309 208.212078 
L 529.804653 209.551613 
L 529.957287 209.886497 
L 530.011989 209.21673 
L 530.090455 209.551613 
L 530.420668 209.886497 
L 530.449805 209.551613 
L 530.648712 209.21673 
L 530.676443 208.881846 
L 530.695715 209.21673 
L 531.075652 210.221381 
L 531.272125 209.886497 
L 531.368507 210.221381 
L 531.593173 208.546962 
L 531.60461 208.881846 
L 531.849754 209.21673 
L 531.904538 209.886497 
L 532.099012 210.221381 
L 532.702571 209.886497 
L 532.864546 209.21673 
L 532.904773 208.881846 
L 532.918445 209.21673 
L 533.16341 208.881846 
L 533.219146 209.21673 
L 533.307032 208.881846 
L 533.75449 209.886497 
L 534.110416 209.551613 
L 534.228106 209.886497 
L 534.368106 209.551613 
L 534.37016 209.21673 
L 534.455235 209.551613 
L 535.208742 209.21673 
L 535.356251 208.881846 
L 535.370716 209.551613 
L 535.930967 209.21673 
L 535.988144 208.881846 
L 536.214009 209.21673 
L 536.236358 208.881846 
L 536.420885 208.546962 
L 536.456204 208.212078 
L 536.909546 207.542311 
L 537.11681 207.207427 
L 540.424658 207.542311 
L 540.445523 207.877195 
L 540.752079 208.546962 
L 540.846445 208.881846 
L 541.012469 208.546962 
L 541.436762 209.886497 
L 541.485924 210.221381 
L 541.488749 209.886497 
L 542.085322 210.556265 
L 542.327253 212.565567 
L 542.422043 213.235334 
L 542.640045 213.570218 
L 542.705568 213.905102 
L 542.896471 213.570218 
L 542.958942 214.239985 
L 543.233761 213.570218 
L 543.554591 214.239985 
L 543.595168 213.905102 
L 543.648952 214.239985 
L 543.941079 214.574869 
L 544.346321 219.598125 
L 544.618721 219.263241 
L 544.671536 219.598125 
L 544.736929 219.263241 
L 544.903307 219.598125 
L 545.073791 219.263241 
L 545.194724 219.598125 
L 545.295763 219.263241 
L 545.351896 219.598125 
L 545.651953 219.933009 
L 545.978727 219.598125 
L 546.060896 219.263241 
L 546.090093 219.598125 
L 546.18741 219.933009 
L 546.468527 220.267892 
L 546.496111 219.933009 
L 546.548047 220.602776 
L 546.580494 221.607427 
L 546.676436 222.277195 
L 546.678549 222.612078 
L 546.719246 222.277195 
L 546.824494 221.607427 
L 546.854209 221.272544 
L 546.895768 221.607427 
L 546.980485 222.277195 
L 547.108505 221.942311 
L 547.259946 222.612078 
L 547.264027 222.946962 
L 547.510983 222.612078 
L 547.620439 222.946962 
L 547.748532 222.277195 
L 547.756271 221.607427 
L 547.847724 222.612078 
L 547.928012 222.946962 
L 548.008605 222.277195 
L 548.335768 222.946962 
L 548.941648 222.612078 
L 549.091336 222.946962 
L 549.098435 222.612078 
L 549.890817 222.277195 
L 549.987058 221.607427 
L 549.989016 221.942311 
L 550.47502 221.607427 
L 550.475562 221.272544 
L 550.488355 221.607427 
L 551.0826 221.272544 
L 551.159975 220.93766 
L 551.300234 221.272544 
L 551.357218 221.942311 
L 551.875661 221.607427 
L 551.953181 221.272544 
L 552.356727 220.93766 
L 552.364644 221.607427 
L 553.005883 221.272544 
L 553.006729 220.602776 
L 553.934657 220.93766 
L 554.19785 220.602776 
L 556.918901 221.272544 
L 557.678712 221.607427 
L 558.465234 222.277195 
L 558.555014 221.942311 
L 558.799912 222.277195 
L 558.839381 221.942311 
L 558.872611 222.277195 
L 558.897961 222.946962 
L 559.380284 224.286497 
L 559.68061 223.951613 
L 559.70853 224.956265 
L 560.269039 226.295799 
L 560.349864 228.639985 
L 560.569494 228.974869 
L 560.685704 230.649288 
L 560.846608 229.97952 
L 560.873426 230.314404 
L 560.87662 230.649288 
L 561.000723 230.314404 
L 561.233042 230.649288 
L 561.356832 231.319055 
L 561.770197 230.984172 
L 561.837159 230.649288 
L 561.883043 230.984172 
L 562.218897 230.314404 
L 562.617111 229.97952 
L 562.770378 230.649288 
L 562.986473 229.97952 
L 562.996355 230.314404 
L 563.280035 230.649288 
L 563.358778 231.653939 
L 563.495441 231.988823 
L 563.623068 232.993474 
L 563.921069 232.323706 
L 564.05014 232.65859 
L 564.074108 231.988823 
L 564.267651 232.323706 
L 564.318611 232.65859 
L 564.338858 232.323706 
L 564.71576 232.993474 
L 564.72818 232.65859 
L 565.041687 233.663241 
L 565.05621 233.998125 
L 565.423429 233.663241 
L 565.523402 232.65859 
L 565.795196 233.328358 
L 565.927802 232.323706 
L 565.931851 232.65859 
L 566.116637 232.993474 
L 566.221844 233.998125 
L 566.377438 233.663241 
L 566.574708 233.998125 
L 567.868314 233.328358 
L 568.08029 232.993474 
L 568.125194 232.323706 
L 568.601528 231.988823 
L 572.48832 232.323706 
L 572.941627 232.65859 
L 573.294273 233.663241 
L 573.795211 233.328358 
L 573.800804 233.663241 
L 574.158666 233.328358 
L 574.469214 233.663241 
L 576.964586 233.328358 
L 577.352011 232.65859 
L 577.525895 232.993474 
L 577.554626 232.65859 
L 577.567505 233.328358 
L 578.164379 232.993474 
L 578.252812 233.328358 
L 578.339268 232.993474 
L 579.58314 232.65859 
L 579.588353 232.323706 
L 579.758411 232.65859 
L 579.89943 232.993474 
L 579.982775 232.323706 
L 580.013492 232.65859 
L 580.08872 232.323706 
L 580.128511 232.65859 
L 580.458804 231.988823 
L 580.525487 232.323706 
L 580.57352 231.988823 
L 580.729287 232.323706 
L 580.755509 232.65859 
L 580.818701 232.323706 
L 580.95066 232.65859 
L 581.038317 231.988823 
L 581.047298 232.323706 
L 581.08621 232.65859 
L 581.130987 232.323706 
L 581.241875 231.653939 
L 581.332189 231.988823 
L 581.538328 233.328358 
L 581.785397 231.988823 
L 581.794738 232.323706 
L 581.830606 232.65859 
L 583.209801 232.993474 
L 583.209801 232.993474 
" clip-path="url(#p89e24d793a)" style="fill: none; stroke: #1f77b4; stroke-width: 1.5; stroke-linecap: square"/>
   </g>
   <g id="patch_3">
    <path d="M 50.573438 244.078125 
L 50.573438 22.318125 
" style="fill: none; stroke: #000000; stroke-width: 0.8; stroke-linejoin: miter; stroke-linecap: square"/>
   </g>
   <g id="patch_4">
    <path d="M 608.573437 244.078125 
L 608.573437 22.318125 
" style="fill: none; stroke: #000000; stroke-width: 0.8; stroke-linejoin: miter; stroke-linecap: square"/>
   </g>
   <g id="patch_5">
    <path d="M 50.573437 244.078125 
L 608.573437 244.078125 
" style="fill: none; stroke: #000000; stroke-width: 0.8; stroke-linejoin: miter; stroke-linecap: square"/>
   </g>
   <g id="patch_6">
    <path d="M 50.573437 22.318125 
L 608.573437 22.318125 
" style="fill: none; stroke: #000000; stroke-width: 0.8; stroke-linejoin: miter; stroke-linecap: square"/>
   </g>
   <g id="text_19">
    <!-- Capacity Curve (Relative) - Park Rd &amp; Holmead Pl NW -->
    <g transform="translate(169.243125 16.318125) scale(0.12 -0.12)">
     <defs>
      <path id="DejaVuSans-70" d="M 1159 525 
L 1159 -1331 
L 581 -1331 
L 581 3500 
L 1159 3500 
L 1159 2969 
Q 1341 3281 1617 3432 
Q 1894 3584 2278 3584 
Q 2916 3584 3314 3078 
Q 3713 2572 3713 1747 
Q 3713 922 3314 415 
Q 2916 -91 2278 -91 
Q 1894 -91 1617 61 
Q 1341 213 1159 525 
z
M 3116 1747 
Q 3116 2381 2855 2742 
Q 2594 3103 2138 3103 
Q 1681 3103 1420 2742 
Q 1159 2381 1159 1747 
Q 1159 1113 1420 752 
Q 1681 391 2138 391 
Q 2594 391 2855 752 
Q 3116 1113 3116 1747 
z
" transform="scale(0.015625)"/>
      <path id="DejaVuSans-63" d="M 3122 3366 
L 3122 2828 
Q 2878 2963 2633 3030 
Q 2388 3097 2138 3097 
Q 1578 3097 1268 2742 
Q 959 2388 959 1747 
Q 959 1106 1268 751 
Q 1578 397 2138 397 
Q 2388 397 2633 464 
Q 2878 531 3122 666 
L 3122 134 
Q 2881 22 2623 -34 
Q 2366 -91 2075 -91 
Q 1284 -91 818 406 
Q 353 903 353 1747 
Q 353 2603 823 3093 
Q 1294 3584 2113 3584 
Q 2378 3584 2631 3529 
Q 2884 3475 3122 3366 
z
" transform="scale(0.015625)"/>
      <path id="DejaVuSans-79" d="M 2059 -325 
Q 1816 -950 1584 -1140 
Q 1353 -1331 966 -1331 
L 506 -1331 
L 506 -850 
L 844 -850 
Q 1081 -850 1212 -737 
Q 1344 -625 1503 -206 
L 1606 56 
L 191 3500 
L 800 3500 
L 1894 763 
L 2988 3500 
L 3597 3500 
L 2059 -325 
z
" transform="scale(0.015625)"/>
      <path id="DejaVuSans-52" d="M 2841 2188 
Q 3044 2119 3236 1894 
Q 3428 1669 3622 1275 
L 4263 0 
L 3584 0 
L 2988 1197 
Q 2756 1666 2539 1819 
Q 2322 1972 1947 1972 
L 1259 1972 
L 1259 0 
L 628 0 
L 628 4666 
L 2053 4666 
Q 2853 4666 3247 4331 
Q 3641 3997 3641 3322 
Q 3641 2881 3436 2590 
Q 3231 2300 2841 2188 
z
M 1259 4147 
L 1259 2491 
L 2053 2491 
Q 2509 2491 2742 2702 
Q 2975 2913 2975 3322 
Q 2975 3731 2742 3939 
Q 2509 4147 2053 4147 
L 1259 4147 
z
" transform="scale(0.015625)"/>
      <path id="DejaVuSans-50" d="M 1259 4147 
L 1259 2394 
L 2053 2394 
Q 2494 2394 2734 2622 
Q 2975 2850 2975 3272 
Q 2975 3691 2734 3919 
Q 2494 4147 2053 4147 
L 1259 4147 
z
M 628 4666 
L 2053 4666 
Q 2838 4666 3239 4311 
Q 3641 3956 3641 3272 
Q 3641 2581 3239 2228 
Q 2838 1875 2053 1875 
L 1259 1875 
L 1259 0 
L 628 0 
L 628 4666 
z
" transform="scale(0.015625)"/>
      <path id="DejaVuSans-64" d="M 2906 2969 
L 2906 4863 
L 3481 4863 
L 3481 0 
L 2906 0 
L 2906 525 
Q 2725 213 2448 61 
Q 2172 -91 1784 -91 
Q 1150 -91 751 415 
Q 353 922 353 1747 
Q 353 2572 751 3078 
Q 1150 3584 1784 3584 
Q 2172 3584 2448 3432 
Q 2725 3281 2906 2969 
z
M 947 1747 
Q 947 1113 1208 752 
Q 1469 391 1925 391 
Q 2381 391 2643 752 
Q 2906 1113 2906 1747 
Q 2906 2381 2643 2742 
Q 2381 3103 1925 3103 
Q 1469 3103 1208 2742 
Q 947 2381 947 1747 
z
" transform="scale(0.015625)"/>
      <path id="DejaVuSans-26" d="M 1556 2509 
Q 1272 2256 1139 2004 
Q 1006 1753 1006 1478 
Q 1006 1022 1337 719 
Q 1669 416 2169 416 
Q 2466 416 2725 514 
Q 2984 613 3213 813 
L 1556 2509 
z
M 1997 2859 
L 3584 1234 
Q 3769 1513 3872 1830 
Q 3975 2147 3994 2503 
L 4575 2503 
Q 4538 2091 4375 1687 
Q 4213 1284 3922 891 
L 4794 0 
L 4006 0 
L 3559 459 
Q 3234 181 2878 45 
Q 2522 -91 2113 -91 
Q 1359 -91 881 339 
Q 403 769 403 1441 
Q 403 1841 612 2192 
Q 822 2544 1241 2853 
Q 1091 3050 1012 3245 
Q 934 3441 934 3628 
Q 934 4134 1281 4442 
Q 1628 4750 2203 4750 
Q 2463 4750 2720 4694 
Q 2978 4638 3244 4525 
L 3244 3956 
Q 2972 4103 2725 4179 
Q 2478 4256 2266 4256 
Q 1938 4256 1733 4082 
Q 1528 3909 1528 3634 
Q 1528 3475 1620 3314 
Q 1713 3153 1997 2859 
z
" transform="scale(0.015625)"/>
      <path id="DejaVuSans-48" d="M 628 4666 
L 1259 4666 
L 1259 2753 
L 3553 2753 
L 3553 4666 
L 4184 4666 
L 4184 0 
L 3553 0 
L 3553 2222 
L 1259 2222 
L 1259 0 
L 628 0 
L 628 4666 
z
" transform="scale(0.015625)"/>
      <path id="DejaVuSans-6f" d="M 1959 3097 
Q 1497 3097 1228 2736 
Q 959 2375 959 1747 
Q 959 1119 1226 758 
Q 1494 397 1959 397 
Q 2419 397 2687 759 
Q 2956 1122 2956 1747 
Q 2956 2369 2687 2733 
Q 2419 3097 1959 3097 
z
M 1959 3584 
Q 2709 3584 3137 3096 
Q 3566 2609 3566 1747 
Q 3566 888 3137 398 
Q 2709 -91 1959 -91 
Q 1206 -91 779 398 
Q 353 888 353 1747 
Q 353 2609 779 3096 
Q 1206 3584 1959 3584 
z
" transform="scale(0.015625)"/>
      <path id="DejaVuSans-57" d="M 213 4666 
L 850 4666 
L 1831 722 
L 2809 4666 
L 3519 4666 
L 4500 722 
L 5478 4666 
L 6119 4666 
L 4947 0 
L 4153 0 
L 3169 4050 
L 2175 0 
L 1381 0 
L 213 4666 
z
" transform="scale(0.015625)"/>
     </defs>
     <use xlink:href="#DejaVuSans-43"/>
     <use xlink:href="#DejaVuSans-61" x="69.824219"/>
     <use xlink:href="#DejaVuSans-70" x="131.103516"/>
     <use xlink:href="#DejaVuSans-61" x="194.580078"/>
     <use xlink:href="#DejaVuSans-63" x="255.859375"/>
     <use xlink:href="#DejaVuSans-69" x="310.839844"/>
     <use xlink:href="#DejaVuSans-74" x="338.623047"/>
     <use xlink:href="#DejaVuSans-79" x="377.832031"/>
     <use xlink:href="#DejaVuSans-20" x="437.011719"/>
     <use xlink:href="#DejaVuSans-43" x="468.798828"/>
     <use xlink:href="#DejaVuSans-75" x="538.623047"/>
     <use xlink:href="#DejaVuSans-72" x="602.001953"/>
     <use xlink:href="#DejaVuSans-76" x="643.115234"/>
     <use xlink:href="#DejaVuSans-65" x="702.294922"/>
     <use xlink:href="#DejaVuSans-20" x="763.818359"/>
     <use xlink:href="#DejaVuSans-28" x="795.605469"/>
     <use xlink:href="#DejaVuSans-52" x="834.619141"/>
     <use xlink:href="#DejaVuSans-65" x="899.601562"/>
     <use xlink:href="#DejaVuSans-6c" x="961.125"/>
     <use xlink:href="#DejaVuSans-61" x="988.908203"/>
     <use xlink:href="#DejaVuSans-74" x="1050.1875"/>
     <use xlink:href="#DejaVuSans-69" x="1089.396484"/>
     <use xlink:href="#DejaVuSans-76" x="1117.179688"/>
     <use xlink:href="#DejaVuSans-65" x="1176.359375"/>
     <use xlink:href="#DejaVuSans-29" x="1237.882812"/>
     <use xlink:href="#DejaVuSans-20" x="1276.896484"/>
     <use xlink:href="#DejaVuSans-2d" x="1308.683594"/>
     <use xlink:href="#DejaVuSans-20" x="1344.767578"/>
     <use xlink:href="#DejaVuSans-50" x="1376.554688"/>
     <use xlink:href="#DejaVuSans-61" x="1432.357422"/>
     <use xlink:href="#DejaVuSans-72" x="1493.636719"/>
     <use xlink:href="#DejaVuSans-6b" x="1534.75"/>
     <use xlink:href="#DejaVuSans-20" x="1592.660156"/>
     <use xlink:href="#DejaVuSans-52" x="1624.447266"/>
     <use xlink:href="#DejaVuSans-64" x="1693.929688"/>
     <use xlink:href="#DejaVuSans-20" x="1757.40625"/>
     <use xlink:href="#DejaVuSans-26" x="1789.193359"/>
     <use xlink:href="#DejaVuSans-20" x="1867.171875"/>
     <use xlink:href="#DejaVuSans-48" x="1898.958984"/>
     <use xlink:href="#DejaVuSans-6f" x="1974.154297"/>
     <use xlink:href="#DejaVuSans-6c" x="2035.335938"/>
     <use xlink:href="#DejaVuSans-6d" x="2063.119141"/>
     <use xlink:href="#DejaVuSans-65" x="2160.53125"/>
     <use xlink:href="#DejaVuSans-61" x="2222.054688"/>
     <use xlink:href="#DejaVuSans-64" x="2283.333984"/>
     <use xlink:href="#DejaVuSans-20" x="2346.810547"/>
     <use xlink:href="#DejaVuSans-50" x="2378.597656"/>
     <use xlink:href="#DejaVuSans-6c" x="2438.900391"/>
     <use xlink:href="#DejaVuSans-20" x="2466.683594"/>
     <use xlink:href="#DejaVuSans-4e" x="2498.470703"/>
     <use xlink:href="#DejaVuSans-57" x="2573.275391"/>
    </g>
   </g>
  </g>
 </g>
 <defs>
  <clipPath id="p89e24d793a">
   <rect x="50.573438" y="22.318125" width="558" height="221.76"/>
  </clipPath>
 </defs>
</svg>
