<?xml version="1.0" encoding="utf-8" standalone="no"?>
<!DOCTYPE svg PUBLIC "-//W3C//DTD SVG 1.1//EN"
  "http://www.w3.org/Graphics/SVG/1.1/DTD/svg11.dtd">
<svg xmlns:xlink="http://www.w3.org/1999/xlink" width="616.788666pt" height="281.634375pt" viewBox="0 0 616.788666 281.634375" xmlns="http://www.w3.org/2000/svg" version="1.1">
 <metadata>
  <rdf:RDF xmlns:dc="http://purl.org/dc/elements/1.1/" xmlns:cc="http://creativecommons.org/ns#" xmlns:rdf="http://www.w3.org/1999/02/22-rdf-syntax-ns#">
   <cc:Work>
    <dc:type rdf:resource="http://purl.org/dc/dcmitype/StillImage"/>
    <dc:date>2025-08-09T11:15:32.663080</dc:date>
    <dc:format>image/svg+xml</dc:format>
    <dc:creator>
     <cc:Agent>
      <dc:title>Matplotlib v3.7.5, https://matplotlib.org/</dc:title>
     </cc:Agent>
    </dc:creator>
   </cc:Work>
  </rdf:RDF>
 </metadata>
 <defs>
  <style type="text/css">*{stroke-linejoin: round; stroke-linecap: butt}</style>
 </defs>
 <g id="figure_1">
  <g id="patch_1">
   <path d="M 0 281.634375 
L 616.788666 281.634375 
L 616.788666 0 
L 0 0 
z
" style="fill: #ffffff"/>
  </g>
  <g id="axes_1">
   <g id="patch_2">
    <path d="M 46.965625 244.078125 
L 604.965625 244.078125 
L 604.965625 22.318125 
L 46.965625 22.318125 
z
" style="fill: #ffffff"/>
   </g>
   <g id="matplotlib.axis_1">
    <g id="xtick_1">
     <g id="line2d_1">
      <defs>
       <path id="m56ce9b48c1" d="M 0 0 
L 0 3.5 
" style="stroke: #000000; stroke-width: 0.8"/>
      </defs>
      <g>
       <use xlink:href="#m56ce9b48c1" x="66.250758" y="244.078125" style="stroke: #000000; stroke-width: 0.8"/>
      </g>
     </g>
     <g id="text_1">
      <!-- 2025-03-01 -->
      <g transform="translate(37.192945 258.676562) scale(0.1 -0.1)">
       <defs>
        <path id="DejaVuSans-32" d="M 1228 531 
L 3431 531 
L 3431 0 
L 469 0 
L 469 531 
Q 828 903 1448 1529 
Q 2069 2156 2228 2338 
Q 2531 2678 2651 2914 
Q 2772 3150 2772 3378 
Q 2772 3750 2511 3984 
Q 2250 4219 1831 4219 
Q 1534 4219 1204 4116 
Q 875 4013 500 3803 
L 500 4441 
Q 881 4594 1212 4672 
Q 1544 4750 1819 4750 
Q 2544 4750 2975 4387 
Q 3406 4025 3406 3419 
Q 3406 3131 3298 2873 
Q 3191 2616 2906 2266 
Q 2828 2175 2409 1742 
Q 1991 1309 1228 531 
z
" transform="scale(0.015625)"/>
        <path id="DejaVuSans-30" d="M 2034 4250 
Q 1547 4250 1301 3770 
Q 1056 3291 1056 2328 
Q 1056 1369 1301 889 
Q 1547 409 2034 409 
Q 2525 409 2770 889 
Q 3016 1369 3016 2328 
Q 3016 3291 2770 3770 
Q 2525 4250 2034 4250 
z
M 2034 4750 
Q 2819 4750 3233 4129 
Q 3647 3509 3647 2328 
Q 3647 1150 3233 529 
Q 2819 -91 2034 -91 
Q 1250 -91 836 529 
Q 422 1150 422 2328 
Q 422 3509 836 4129 
Q 1250 4750 2034 4750 
z
" transform="scale(0.015625)"/>
        <path id="DejaVuSans-35" d="M 691 4666 
L 3169 4666 
L 3169 4134 
L 1269 4134 
L 1269 2991 
Q 1406 3038 1543 3061 
Q 1681 3084 1819 3084 
Q 2600 3084 3056 2656 
Q 3513 2228 3513 1497 
Q 3513 744 3044 326 
Q 2575 -91 1722 -91 
Q 1428 -91 1123 -41 
Q 819 9 494 109 
L 494 744 
Q 775 591 1075 516 
Q 1375 441 1709 441 
Q 2250 441 2565 725 
Q 2881 1009 2881 1497 
Q 2881 1984 2565 2268 
Q 2250 2553 1709 2553 
Q 1456 2553 1204 2497 
Q 953 2441 691 2322 
L 691 4666 
z
" transform="scale(0.015625)"/>
        <path id="DejaVuSans-2d" d="M 313 2009 
L 1997 2009 
L 1997 1497 
L 313 1497 
L 313 2009 
z
" transform="scale(0.015625)"/>
        <path id="DejaVuSans-33" d="M 2597 2516 
Q 3050 2419 3304 2112 
Q 3559 1806 3559 1356 
Q 3559 666 3084 287 
Q 2609 -91 1734 -91 
Q 1441 -91 1130 -33 
Q 819 25 488 141 
L 488 750 
Q 750 597 1062 519 
Q 1375 441 1716 441 
Q 2309 441 2620 675 
Q 2931 909 2931 1356 
Q 2931 1769 2642 2001 
Q 2353 2234 1838 2234 
L 1294 2234 
L 1294 2753 
L 1863 2753 
Q 2328 2753 2575 2939 
Q 2822 3125 2822 3475 
Q 2822 3834 2567 4026 
Q 2313 4219 1838 4219 
Q 1578 4219 1281 4162 
Q 984 4106 628 3988 
L 628 4550 
Q 988 4650 1302 4700 
Q 1616 4750 1894 4750 
Q 2613 4750 3031 4423 
Q 3450 4097 3450 3541 
Q 3450 3153 3228 2886 
Q 3006 2619 2597 2516 
z
" transform="scale(0.015625)"/>
        <path id="DejaVuSans-31" d="M 794 531 
L 1825 531 
L 1825 4091 
L 703 3866 
L 703 4441 
L 1819 4666 
L 2450 4666 
L 2450 531 
L 3481 531 
L 3481 0 
L 794 0 
L 794 531 
z
" transform="scale(0.015625)"/>
       </defs>
       <use xlink:href="#DejaVuSans-32"/>
       <use xlink:href="#DejaVuSans-30" x="63.623047"/>
       <use xlink:href="#DejaVuSans-32" x="127.246094"/>
       <use xlink:href="#DejaVuSans-35" x="190.869141"/>
       <use xlink:href="#DejaVuSans-2d" x="254.492188"/>
       <use xlink:href="#DejaVuSans-30" x="290.576172"/>
       <use xlink:href="#DejaVuSans-33" x="354.199219"/>
       <use xlink:href="#DejaVuSans-2d" x="417.822266"/>
       <use xlink:href="#DejaVuSans-30" x="453.90625"/>
       <use xlink:href="#DejaVuSans-31" x="517.529297"/>
      </g>
     </g>
    </g>
    <g id="xtick_2">
     <g id="line2d_2">
      <g>
       <use xlink:href="#m56ce9b48c1" x="132.60948" y="244.078125" style="stroke: #000000; stroke-width: 0.8"/>
      </g>
     </g>
     <g id="text_2">
      <!-- 2025-03-05 -->
      <g transform="translate(103.551667 258.676562) scale(0.1 -0.1)">
       <use xlink:href="#DejaVuSans-32"/>
       <use xlink:href="#DejaVuSans-30" x="63.623047"/>
       <use xlink:href="#DejaVuSans-32" x="127.246094"/>
       <use xlink:href="#DejaVuSans-35" x="190.869141"/>
       <use xlink:href="#DejaVuSans-2d" x="254.492188"/>
       <use xlink:href="#DejaVuSans-30" x="290.576172"/>
       <use xlink:href="#DejaVuSans-33" x="354.199219"/>
       <use xlink:href="#DejaVuSans-2d" x="417.822266"/>
       <use xlink:href="#DejaVuSans-30" x="453.90625"/>
       <use xlink:href="#DejaVuSans-35" x="517.529297"/>
      </g>
     </g>
    </g>
    <g id="xtick_3">
     <g id="line2d_3">
      <g>
       <use xlink:href="#m56ce9b48c1" x="198.968202" y="244.078125" style="stroke: #000000; stroke-width: 0.8"/>
      </g>
     </g>
     <g id="text_3">
      <!-- 2025-03-09 -->
      <g transform="translate(169.910389 258.676562) scale(0.1 -0.1)">
       <defs>
        <path id="DejaVuSans-39" d="M 703 97 
L 703 672 
Q 941 559 1184 500 
Q 1428 441 1663 441 
Q 2288 441 2617 861 
Q 2947 1281 2994 2138 
Q 2813 1869 2534 1725 
Q 2256 1581 1919 1581 
Q 1219 1581 811 2004 
Q 403 2428 403 3163 
Q 403 3881 828 4315 
Q 1253 4750 1959 4750 
Q 2769 4750 3195 4129 
Q 3622 3509 3622 2328 
Q 3622 1225 3098 567 
Q 2575 -91 1691 -91 
Q 1453 -91 1209 -44 
Q 966 3 703 97 
z
M 1959 2075 
Q 2384 2075 2632 2365 
Q 2881 2656 2881 3163 
Q 2881 3666 2632 3958 
Q 2384 4250 1959 4250 
Q 1534 4250 1286 3958 
Q 1038 3666 1038 3163 
Q 1038 2656 1286 2365 
Q 1534 2075 1959 2075 
z
" transform="scale(0.015625)"/>
       </defs>
       <use xlink:href="#DejaVuSans-32"/>
       <use xlink:href="#DejaVuSans-30" x="63.623047"/>
       <use xlink:href="#DejaVuSans-32" x="127.246094"/>
       <use xlink:href="#DejaVuSans-35" x="190.869141"/>
       <use xlink:href="#DejaVuSans-2d" x="254.492188"/>
       <use xlink:href="#DejaVuSans-30" x="290.576172"/>
       <use xlink:href="#DejaVuSans-33" x="354.199219"/>
       <use xlink:href="#DejaVuSans-2d" x="417.822266"/>
       <use xlink:href="#DejaVuSans-30" x="453.90625"/>
       <use xlink:href="#DejaVuSans-39" x="517.529297"/>
      </g>
     </g>
    </g>
    <g id="xtick_4">
     <g id="line2d_4">
      <g>
       <use xlink:href="#m56ce9b48c1" x="265.326924" y="244.078125" style="stroke: #000000; stroke-width: 0.8"/>
      </g>
     </g>
     <g id="text_4">
      <!-- 2025-03-13 -->
      <g transform="translate(236.269111 258.676562) scale(0.1 -0.1)">
       <use xlink:href="#DejaVuSans-32"/>
       <use xlink:href="#DejaVuSans-30" x="63.623047"/>
       <use xlink:href="#DejaVuSans-32" x="127.246094"/>
       <use xlink:href="#DejaVuSans-35" x="190.869141"/>
       <use xlink:href="#DejaVuSans-2d" x="254.492188"/>
       <use xlink:href="#DejaVuSans-30" x="290.576172"/>
       <use xlink:href="#DejaVuSans-33" x="354.199219"/>
       <use xlink:href="#DejaVuSans-2d" x="417.822266"/>
       <use xlink:href="#DejaVuSans-31" x="453.90625"/>
       <use xlink:href="#DejaVuSans-33" x="517.529297"/>
      </g>
     </g>
    </g>
    <g id="xtick_5">
     <g id="line2d_5">
      <g>
       <use xlink:href="#m56ce9b48c1" x="331.685646" y="244.078125" style="stroke: #000000; stroke-width: 0.8"/>
      </g>
     </g>
     <g id="text_5">
      <!-- 2025-03-17 -->
      <g transform="translate(302.627833 258.676562) scale(0.1 -0.1)">
       <defs>
        <path id="DejaVuSans-37" d="M 525 4666 
L 3525 4666 
L 3525 4397 
L 1831 0 
L 1172 0 
L 2766 4134 
L 525 4134 
L 525 4666 
z
" transform="scale(0.015625)"/>
       </defs>
       <use xlink:href="#DejaVuSans-32"/>
       <use xlink:href="#DejaVuSans-30" x="63.623047"/>
       <use xlink:href="#DejaVuSans-32" x="127.246094"/>
       <use xlink:href="#DejaVuSans-35" x="190.869141"/>
       <use xlink:href="#DejaVuSans-2d" x="254.492188"/>
       <use xlink:href="#DejaVuSans-30" x="290.576172"/>
       <use xlink:href="#DejaVuSans-33" x="354.199219"/>
       <use xlink:href="#DejaVuSans-2d" x="417.822266"/>
       <use xlink:href="#DejaVuSans-31" x="453.90625"/>
       <use xlink:href="#DejaVuSans-37" x="517.529297"/>
      </g>
     </g>
    </g>
    <g id="xtick_6">
     <g id="line2d_6">
      <g>
       <use xlink:href="#m56ce9b48c1" x="398.044368" y="244.078125" style="stroke: #000000; stroke-width: 0.8"/>
      </g>
     </g>
     <g id="text_6">
      <!-- 2025-03-21 -->
      <g transform="translate(368.986555 258.676562) scale(0.1 -0.1)">
       <use xlink:href="#DejaVuSans-32"/>
       <use xlink:href="#DejaVuSans-30" x="63.623047"/>
       <use xlink:href="#DejaVuSans-32" x="127.246094"/>
       <use xlink:href="#DejaVuSans-35" x="190.869141"/>
       <use xlink:href="#DejaVuSans-2d" x="254.492188"/>
       <use xlink:href="#DejaVuSans-30" x="290.576172"/>
       <use xlink:href="#DejaVuSans-33" x="354.199219"/>
       <use xlink:href="#DejaVuSans-2d" x="417.822266"/>
       <use xlink:href="#DejaVuSans-32" x="453.90625"/>
       <use xlink:href="#DejaVuSans-31" x="517.529297"/>
      </g>
     </g>
    </g>
    <g id="xtick_7">
     <g id="line2d_7">
      <g>
       <use xlink:href="#m56ce9b48c1" x="464.40309" y="244.078125" style="stroke: #000000; stroke-width: 0.8"/>
      </g>
     </g>
     <g id="text_7">
      <!-- 2025-03-25 -->
      <g transform="translate(435.345277 258.676562) scale(0.1 -0.1)">
       <use xlink:href="#DejaVuSans-32"/>
       <use xlink:href="#DejaVuSans-30" x="63.623047"/>
       <use xlink:href="#DejaVuSans-32" x="127.246094"/>
       <use xlink:href="#DejaVuSans-35" x="190.869141"/>
       <use xlink:href="#DejaVuSans-2d" x="254.492188"/>
       <use xlink:href="#DejaVuSans-30" x="290.576172"/>
       <use xlink:href="#DejaVuSans-33" x="354.199219"/>
       <use xlink:href="#DejaVuSans-2d" x="417.822266"/>
       <use xlink:href="#DejaVuSans-32" x="453.90625"/>
       <use xlink:href="#DejaVuSans-35" x="517.529297"/>
      </g>
     </g>
    </g>
    <g id="xtick_8">
     <g id="line2d_8">
      <g>
       <use xlink:href="#m56ce9b48c1" x="530.761812" y="244.078125" style="stroke: #000000; stroke-width: 0.8"/>
      </g>
     </g>
     <g id="text_8">
      <!-- 2025-03-29 -->
      <g transform="translate(501.703999 258.676562) scale(0.1 -0.1)">
       <use xlink:href="#DejaVuSans-32"/>
       <use xlink:href="#DejaVuSans-30" x="63.623047"/>
       <use xlink:href="#DejaVuSans-32" x="127.246094"/>
       <use xlink:href="#DejaVuSans-35" x="190.869141"/>
       <use xlink:href="#DejaVuSans-2d" x="254.492188"/>
       <use xlink:href="#DejaVuSans-30" x="290.576172"/>
       <use xlink:href="#DejaVuSans-33" x="354.199219"/>
       <use xlink:href="#DejaVuSans-2d" x="417.822266"/>
       <use xlink:href="#DejaVuSans-32" x="453.90625"/>
       <use xlink:href="#DejaVuSans-39" x="517.529297"/>
      </g>
     </g>
    </g>
    <g id="xtick_9">
     <g id="line2d_9">
      <g>
       <use xlink:href="#m56ce9b48c1" x="580.530853" y="244.078125" style="stroke: #000000; stroke-width: 0.8"/>
      </g>
     </g>
     <g id="text_9">
      <!-- 2025-04-01 -->
      <g transform="translate(551.473041 258.676562) scale(0.1 -0.1)">
       <defs>
        <path id="DejaVuSans-34" d="M 2419 4116 
L 825 1625 
L 2419 1625 
L 2419 4116 
z
M 2253 4666 
L 3047 4666 
L 3047 1625 
L 3713 1625 
L 3713 1100 
L 3047 1100 
L 3047 0 
L 2419 0 
L 2419 1100 
L 313 1100 
L 313 1709 
L 2253 4666 
z
" transform="scale(0.015625)"/>
       </defs>
       <use xlink:href="#DejaVuSans-32"/>
       <use xlink:href="#DejaVuSans-30" x="63.623047"/>
       <use xlink:href="#DejaVuSans-32" x="127.246094"/>
       <use xlink:href="#DejaVuSans-35" x="190.869141"/>
       <use xlink:href="#DejaVuSans-2d" x="254.492188"/>
       <use xlink:href="#DejaVuSans-30" x="290.576172"/>
       <use xlink:href="#DejaVuSans-34" x="354.199219"/>
       <use xlink:href="#DejaVuSans-2d" x="417.822266"/>
       <use xlink:href="#DejaVuSans-30" x="453.90625"/>
       <use xlink:href="#DejaVuSans-31" x="517.529297"/>
      </g>
     </g>
    </g>
    <g id="text_10">
     <!-- Time -->
     <g transform="translate(313.732031 272.354687) scale(0.1 -0.1)">
      <defs>
       <path id="DejaVuSans-54" d="M -19 4666 
L 3928 4666 
L 3928 4134 
L 2272 4134 
L 2272 0 
L 1638 0 
L 1638 4134 
L -19 4134 
L -19 4666 
z
" transform="scale(0.015625)"/>
       <path id="DejaVuSans-69" d="M 603 3500 
L 1178 3500 
L 1178 0 
L 603 0 
L 603 3500 
z
M 603 4863 
L 1178 4863 
L 1178 4134 
L 603 4134 
L 603 4863 
z
" transform="scale(0.015625)"/>
       <path id="DejaVuSans-6d" d="M 3328 2828 
Q 3544 3216 3844 3400 
Q 4144 3584 4550 3584 
Q 5097 3584 5394 3201 
Q 5691 2819 5691 2113 
L 5691 0 
L 5113 0 
L 5113 2094 
Q 5113 2597 4934 2840 
Q 4756 3084 4391 3084 
Q 3944 3084 3684 2787 
Q 3425 2491 3425 1978 
L 3425 0 
L 2847 0 
L 2847 2094 
Q 2847 2600 2669 2842 
Q 2491 3084 2119 3084 
Q 1678 3084 1418 2786 
Q 1159 2488 1159 1978 
L 1159 0 
L 581 0 
L 581 3500 
L 1159 3500 
L 1159 2956 
Q 1356 3278 1631 3431 
Q 1906 3584 2284 3584 
Q 2666 3584 2933 3390 
Q 3200 3197 3328 2828 
z
" transform="scale(0.015625)"/>
       <path id="DejaVuSans-65" d="M 3597 1894 
L 3597 1613 
L 953 1613 
Q 991 1019 1311 708 
Q 1631 397 2203 397 
Q 2534 397 2845 478 
Q 3156 559 3463 722 
L 3463 178 
Q 3153 47 2828 -22 
Q 2503 -91 2169 -91 
Q 1331 -91 842 396 
Q 353 884 353 1716 
Q 353 2575 817 3079 
Q 1281 3584 2069 3584 
Q 2775 3584 3186 3129 
Q 3597 2675 3597 1894 
z
M 3022 2063 
Q 3016 2534 2758 2815 
Q 2500 3097 2075 3097 
Q 1594 3097 1305 2825 
Q 1016 2553 972 2059 
L 3022 2063 
z
" transform="scale(0.015625)"/>
      </defs>
      <use xlink:href="#DejaVuSans-54"/>
      <use xlink:href="#DejaVuSans-69" x="57.958984"/>
      <use xlink:href="#DejaVuSans-6d" x="85.742188"/>
      <use xlink:href="#DejaVuSans-65" x="183.154297"/>
     </g>
    </g>
   </g>
   <g id="matplotlib.axis_2">
    <g id="ytick_1">
     <g id="line2d_10">
      <defs>
       <path id="m42fa6dc338" d="M 0 0 
L -3.5 0 
" style="stroke: #000000; stroke-width: 0.8"/>
      </defs>
      <g>
       <use xlink:href="#m42fa6dc338" x="46.965625" y="234.54006" style="stroke: #000000; stroke-width: 0.8"/>
      </g>
     </g>
     <g id="text_11">
      <!-- 0 -->
      <g transform="translate(33.603125 238.339279) scale(0.1 -0.1)">
       <use xlink:href="#DejaVuSans-30"/>
      </g>
     </g>
    </g>
    <g id="ytick_2">
     <g id="line2d_11">
      <g>
       <use xlink:href="#m42fa6dc338" x="46.965625" y="207.443286" style="stroke: #000000; stroke-width: 0.8"/>
      </g>
     </g>
     <g id="text_12">
      <!-- 50 -->
      <g transform="translate(27.240625 211.242505) scale(0.1 -0.1)">
       <use xlink:href="#DejaVuSans-35"/>
       <use xlink:href="#DejaVuSans-30" x="63.623047"/>
      </g>
     </g>
    </g>
    <g id="ytick_3">
     <g id="line2d_12">
      <g>
       <use xlink:href="#m42fa6dc338" x="46.965625" y="180.346512" style="stroke: #000000; stroke-width: 0.8"/>
      </g>
     </g>
     <g id="text_13">
      <!-- 100 -->
      <g transform="translate(20.878125 184.145731) scale(0.1 -0.1)">
       <use xlink:href="#DejaVuSans-31"/>
       <use xlink:href="#DejaVuSans-30" x="63.623047"/>
       <use xlink:href="#DejaVuSans-30" x="127.246094"/>
      </g>
     </g>
    </g>
    <g id="ytick_4">
     <g id="line2d_13">
      <g>
       <use xlink:href="#m42fa6dc338" x="46.965625" y="153.249738" style="stroke: #000000; stroke-width: 0.8"/>
      </g>
     </g>
     <g id="text_14">
      <!-- 150 -->
      <g transform="translate(20.878125 157.048957) scale(0.1 -0.1)">
       <use xlink:href="#DejaVuSans-31"/>
       <use xlink:href="#DejaVuSans-35" x="63.623047"/>
       <use xlink:href="#DejaVuSans-30" x="127.246094"/>
      </g>
     </g>
    </g>
    <g id="ytick_5">
     <g id="line2d_14">
      <g>
       <use xlink:href="#m42fa6dc338" x="46.965625" y="126.152964" style="stroke: #000000; stroke-width: 0.8"/>
      </g>
     </g>
     <g id="text_15">
      <!-- 200 -->
      <g transform="translate(20.878125 129.952182) scale(0.1 -0.1)">
       <use xlink:href="#DejaVuSans-32"/>
       <use xlink:href="#DejaVuSans-30" x="63.623047"/>
       <use xlink:href="#DejaVuSans-30" x="127.246094"/>
      </g>
     </g>
    </g>
    <g id="ytick_6">
     <g id="line2d_15">
      <g>
       <use xlink:href="#m42fa6dc338" x="46.965625" y="99.05619" style="stroke: #000000; stroke-width: 0.8"/>
      </g>
     </g>
     <g id="text_16">
      <!-- 250 -->
      <g transform="translate(20.878125 102.855408) scale(0.1 -0.1)">
       <use xlink:href="#DejaVuSans-32"/>
       <use xlink:href="#DejaVuSans-35" x="63.623047"/>
       <use xlink:href="#DejaVuSans-30" x="127.246094"/>
      </g>
     </g>
    </g>
    <g id="ytick_7">
     <g id="line2d_16">
      <g>
       <use xlink:href="#m42fa6dc338" x="46.965625" y="71.959415" style="stroke: #000000; stroke-width: 0.8"/>
      </g>
     </g>
     <g id="text_17">
      <!-- 300 -->
      <g transform="translate(20.878125 75.758634) scale(0.1 -0.1)">
       <use xlink:href="#DejaVuSans-33"/>
       <use xlink:href="#DejaVuSans-30" x="63.623047"/>
       <use xlink:href="#DejaVuSans-30" x="127.246094"/>
      </g>
     </g>
    </g>
    <g id="ytick_8">
     <g id="line2d_17">
      <g>
       <use xlink:href="#m42fa6dc338" x="46.965625" y="44.862641" style="stroke: #000000; stroke-width: 0.8"/>
      </g>
     </g>
     <g id="text_18">
      <!-- 350 -->
      <g transform="translate(20.878125 48.66186) scale(0.1 -0.1)">
       <use xlink:href="#DejaVuSans-33"/>
       <use xlink:href="#DejaVuSans-35" x="63.623047"/>
       <use xlink:href="#DejaVuSans-30" x="127.246094"/>
      </g>
     </g>
    </g>
    <g id="text_19">
     <!-- Cumulative Net Bikes (relative) -->
     <g transform="translate(14.798438 211.254375) rotate(-90) scale(0.1 -0.1)">
      <defs>
       <path id="DejaVuSans-43" d="M 4122 4306 
L 4122 3641 
Q 3803 3938 3442 4084 
Q 3081 4231 2675 4231 
Q 1875 4231 1450 3742 
Q 1025 3253 1025 2328 
Q 1025 1406 1450 917 
Q 1875 428 2675 428 
Q 3081 428 3442 575 
Q 3803 722 4122 1019 
L 4122 359 
Q 3791 134 3420 21 
Q 3050 -91 2638 -91 
Q 1578 -91 968 557 
Q 359 1206 359 2328 
Q 359 3453 968 4101 
Q 1578 4750 2638 4750 
Q 3056 4750 3426 4639 
Q 3797 4528 4122 4306 
z
" transform="scale(0.015625)"/>
       <path id="DejaVuSans-75" d="M 544 1381 
L 544 3500 
L 1119 3500 
L 1119 1403 
Q 1119 906 1312 657 
Q 1506 409 1894 409 
Q 2359 409 2629 706 
Q 2900 1003 2900 1516 
L 2900 3500 
L 3475 3500 
L 3475 0 
L 2900 0 
L 2900 538 
Q 2691 219 2414 64 
Q 2138 -91 1772 -91 
Q 1169 -91 856 284 
Q 544 659 544 1381 
z
M 1991 3584 
L 1991 3584 
z
" transform="scale(0.015625)"/>
       <path id="DejaVuSans-6c" d="M 603 4863 
L 1178 4863 
L 1178 0 
L 603 0 
L 603 4863 
z
" transform="scale(0.015625)"/>
       <path id="DejaVuSans-61" d="M 2194 1759 
Q 1497 1759 1228 1600 
Q 959 1441 959 1056 
Q 959 750 1161 570 
Q 1363 391 1709 391 
Q 2188 391 2477 730 
Q 2766 1069 2766 1631 
L 2766 1759 
L 2194 1759 
z
M 3341 1997 
L 3341 0 
L 2766 0 
L 2766 531 
Q 2569 213 2275 61 
Q 1981 -91 1556 -91 
Q 1019 -91 701 211 
Q 384 513 384 1019 
Q 384 1609 779 1909 
Q 1175 2209 1959 2209 
L 2766 2209 
L 2766 2266 
Q 2766 2663 2505 2880 
Q 2244 3097 1772 3097 
Q 1472 3097 1187 3025 
Q 903 2953 641 2809 
L 641 3341 
Q 956 3463 1253 3523 
Q 1550 3584 1831 3584 
Q 2591 3584 2966 3190 
Q 3341 2797 3341 1997 
z
" transform="scale(0.015625)"/>
       <path id="DejaVuSans-74" d="M 1172 4494 
L 1172 3500 
L 2356 3500 
L 2356 3053 
L 1172 3053 
L 1172 1153 
Q 1172 725 1289 603 
Q 1406 481 1766 481 
L 2356 481 
L 2356 0 
L 1766 0 
Q 1100 0 847 248 
Q 594 497 594 1153 
L 594 3053 
L 172 3053 
L 172 3500 
L 594 3500 
L 594 4494 
L 1172 4494 
z
" transform="scale(0.015625)"/>
       <path id="DejaVuSans-76" d="M 191 3500 
L 800 3500 
L 1894 563 
L 2988 3500 
L 3597 3500 
L 2284 0 
L 1503 0 
L 191 3500 
z
" transform="scale(0.015625)"/>
       <path id="DejaVuSans-20" transform="scale(0.015625)"/>
       <path id="DejaVuSans-4e" d="M 628 4666 
L 1478 4666 
L 3547 763 
L 3547 4666 
L 4159 4666 
L 4159 0 
L 3309 0 
L 1241 3903 
L 1241 0 
L 628 0 
L 628 4666 
z
" transform="scale(0.015625)"/>
       <path id="DejaVuSans-42" d="M 1259 2228 
L 1259 519 
L 2272 519 
Q 2781 519 3026 730 
Q 3272 941 3272 1375 
Q 3272 1813 3026 2020 
Q 2781 2228 2272 2228 
L 1259 2228 
z
M 1259 4147 
L 1259 2741 
L 2194 2741 
Q 2656 2741 2882 2914 
Q 3109 3088 3109 3444 
Q 3109 3797 2882 3972 
Q 2656 4147 2194 4147 
L 1259 4147 
z
M 628 4666 
L 2241 4666 
Q 2963 4666 3353 4366 
Q 3744 4066 3744 3513 
Q 3744 3084 3544 2831 
Q 3344 2578 2956 2516 
Q 3422 2416 3680 2098 
Q 3938 1781 3938 1306 
Q 3938 681 3513 340 
Q 3088 0 2303 0 
L 628 0 
L 628 4666 
z
" transform="scale(0.015625)"/>
       <path id="DejaVuSans-6b" d="M 581 4863 
L 1159 4863 
L 1159 1991 
L 2875 3500 
L 3609 3500 
L 1753 1863 
L 3688 0 
L 2938 0 
L 1159 1709 
L 1159 0 
L 581 0 
L 581 4863 
z
" transform="scale(0.015625)"/>
       <path id="DejaVuSans-73" d="M 2834 3397 
L 2834 2853 
Q 2591 2978 2328 3040 
Q 2066 3103 1784 3103 
Q 1356 3103 1142 2972 
Q 928 2841 928 2578 
Q 928 2378 1081 2264 
Q 1234 2150 1697 2047 
L 1894 2003 
Q 2506 1872 2764 1633 
Q 3022 1394 3022 966 
Q 3022 478 2636 193 
Q 2250 -91 1575 -91 
Q 1294 -91 989 -36 
Q 684 19 347 128 
L 347 722 
Q 666 556 975 473 
Q 1284 391 1588 391 
Q 1994 391 2212 530 
Q 2431 669 2431 922 
Q 2431 1156 2273 1281 
Q 2116 1406 1581 1522 
L 1381 1569 
Q 847 1681 609 1914 
Q 372 2147 372 2553 
Q 372 3047 722 3315 
Q 1072 3584 1716 3584 
Q 2034 3584 2315 3537 
Q 2597 3491 2834 3397 
z
" transform="scale(0.015625)"/>
       <path id="DejaVuSans-28" d="M 1984 4856 
Q 1566 4138 1362 3434 
Q 1159 2731 1159 2009 
Q 1159 1288 1364 580 
Q 1569 -128 1984 -844 
L 1484 -844 
Q 1016 -109 783 600 
Q 550 1309 550 2009 
Q 550 2706 781 3412 
Q 1013 4119 1484 4856 
L 1984 4856 
z
" transform="scale(0.015625)"/>
       <path id="DejaVuSans-72" d="M 2631 2963 
Q 2534 3019 2420 3045 
Q 2306 3072 2169 3072 
Q 1681 3072 1420 2755 
Q 1159 2438 1159 1844 
L 1159 0 
L 581 0 
L 581 3500 
L 1159 3500 
L 1159 2956 
Q 1341 3275 1631 3429 
Q 1922 3584 2338 3584 
Q 2397 3584 2469 3576 
Q 2541 3569 2628 3553 
L 2631 2963 
z
" transform="scale(0.015625)"/>
       <path id="DejaVuSans-29" d="M 513 4856 
L 1013 4856 
Q 1481 4119 1714 3412 
Q 1947 2706 1947 2009 
Q 1947 1309 1714 600 
Q 1481 -109 1013 -844 
L 513 -844 
Q 928 -128 1133 580 
Q 1338 1288 1338 2009 
Q 1338 2731 1133 3434 
Q 928 4138 513 4856 
z
" transform="scale(0.015625)"/>
      </defs>
      <use xlink:href="#DejaVuSans-43"/>
      <use xlink:href="#DejaVuSans-75" x="69.824219"/>
      <use xlink:href="#DejaVuSans-6d" x="133.203125"/>
      <use xlink:href="#DejaVuSans-75" x="230.615234"/>
      <use xlink:href="#DejaVuSans-6c" x="293.994141"/>
      <use xlink:href="#DejaVuSans-61" x="321.777344"/>
      <use xlink:href="#DejaVuSans-74" x="383.056641"/>
      <use xlink:href="#DejaVuSans-69" x="422.265625"/>
      <use xlink:href="#DejaVuSans-76" x="450.048828"/>
      <use xlink:href="#DejaVuSans-65" x="509.228516"/>
      <use xlink:href="#DejaVuSans-20" x="570.751953"/>
      <use xlink:href="#DejaVuSans-4e" x="602.539062"/>
      <use xlink:href="#DejaVuSans-65" x="677.34375"/>
      <use xlink:href="#DejaVuSans-74" x="738.867188"/>
      <use xlink:href="#DejaVuSans-20" x="778.076172"/>
      <use xlink:href="#DejaVuSans-42" x="809.863281"/>
      <use xlink:href="#DejaVuSans-69" x="878.466797"/>
      <use xlink:href="#DejaVuSans-6b" x="906.25"/>
      <use xlink:href="#DejaVuSans-65" x="960.535156"/>
      <use xlink:href="#DejaVuSans-73" x="1022.058594"/>
      <use xlink:href="#DejaVuSans-20" x="1074.158203"/>
      <use xlink:href="#DejaVuSans-28" x="1105.945312"/>
      <use xlink:href="#DejaVuSans-72" x="1144.958984"/>
      <use xlink:href="#DejaVuSans-65" x="1183.822266"/>
      <use xlink:href="#DejaVuSans-6c" x="1245.345703"/>
      <use xlink:href="#DejaVuSans-61" x="1273.128906"/>
      <use xlink:href="#DejaVuSans-74" x="1334.408203"/>
      <use xlink:href="#DejaVuSans-69" x="1373.617188"/>
      <use xlink:href="#DejaVuSans-76" x="1401.400391"/>
      <use xlink:href="#DejaVuSans-65" x="1460.580078"/>
      <use xlink:href="#DejaVuSans-29" x="1522.103516"/>
     </g>
    </g>
   </g>
   <g id="line2d_18">
    <path d="M 72.329261 233.998125 
L 72.330837 233.45619 
L 72.605266 232.914254 
L 72.609826 231.288448 
L 72.753347 230.746512 
L 72.767201 230.204577 
L 72.983025 229.662641 
L 72.984506 229.120706 
L 73.172563 229.662641 
L 73.263485 229.120706 
L 73.278189 229.662641 
L 73.336119 231.288448 
L 73.338652 230.746512 
L 73.677116 229.120706 
L 73.77343 228.036835 
L 73.887403 228.57877 
L 74.174863 229.120706 
L 74.2904 231.288448 
L 74.337129 232.372319 
L 74.486726 231.830383 
L 74.527836 228.57877 
L 74.536806 229.120706 
L 74.653469 230.204577 
L 74.66554 229.662641 
L 74.758118 228.57877 
L 74.762616 229.120706 
L 74.886221 228.57877 
L 74.951586 230.204577 
L 74.958828 230.746512 
L 75.001384 229.120706 
L 75.146118 228.57877 
L 75.159517 229.120706 
L 75.290404 228.036835 
L 75.316133 226.952964 
L 75.589322 227.494899 
L 75.596347 228.036835 
L 75.690398 226.952964 
L 75.770711 228.036835 
L 75.848727 227.494899 
L 75.981097 226.411028 
L 76.046573 226.952964 
L 76.060845 228.036835 
L 76.274689 228.57877 
L 76.292218 230.746512 
L 76.362164 229.120706 
L 76.408249 229.662641 
L 76.527836 228.57877 
L 76.587046 226.952964 
L 76.704224 227.494899 
L 76.778592 228.036835 
L 76.813905 227.494899 
L 76.873048 228.036835 
L 76.945136 226.952964 
L 76.964533 226.411028 
L 77.167535 226.952964 
L 77.233284 227.494899 
L 77.271742 226.952964 
L 77.391366 228.036835 
L 77.417912 228.57877 
L 77.457014 227.494899 
L 77.46381 228.036835 
L 77.477346 227.494899 
L 77.487042 229.120706 
L 77.573503 228.57877 
L 77.575028 229.120706 
L 77.646429 231.288448 
L 77.940279 230.746512 
L 77.956994 229.120706 
L 78.115223 229.662641 
L 78.117726 229.120706 
L 78.133174 230.746512 
L 78.251107 230.204577 
L 78.367831 231.288448 
L 78.735422 230.746512 
L 78.744458 231.288448 
L 80.677953 231.830383 
L 82.815105 231.288448 
L 82.821447 227.494899 
L 89.476955 226.952964 
L 89.48216 226.411028 
L 89.98216 226.952964 
L 90.117617 226.411028 
L 90.122078 225.869093 
L 90.253607 225.327157 
L 90.90521 224.785222 
L 91.150559 224.243286 
L 91.26871 223.159415 
L 91.505651 222.61748 
L 91.515436 223.701351 
L 91.884543 223.159415 
L 91.891407 223.701351 
L 92.345451 224.243286 
L 92.387678 224.785222 
L 92.535682 223.701351 
L 92.667666 224.785222 
L 93.153225 224.243286 
L 93.162244 222.61748 
L 93.589255 223.159415 
L 93.773389 223.701351 
L 93.809329 224.785222 
L 93.950972 224.243286 
L 94.081111 224.785222 
L 94.082222 224.243286 
L 94.168502 225.869093 
L 94.340714 225.327157 
L 94.402031 228.036835 
L 94.520524 229.120706 
L 94.872372 228.57877 
L 94.872985 228.036835 
L 95.441968 228.57877 
L 95.510284 227.494899 
L 98.299559 228.57877 
L 104.797231 228.036835 
L 105.059793 227.494899 
L 105.865769 226.952964 
L 105.942814 226.411028 
L 106.679304 226.952964 
L 106.711577 226.411028 
L 107.109886 225.869093 
L 107.111474 225.327157 
L 107.409839 225.869093 
L 108.950468 226.411028 
L 109.258248 226.952964 
L 109.325804 227.494899 
L 110.224519 228.036835 
L 110.323308 227.494899 
L 110.363628 228.036835 
L 110.522453 227.494899 
L 110.644582 228.036835 
L 110.831772 227.494899 
L 110.96053 224.785222 
L 110.97624 225.327157 
L 111.256536 224.785222 
L 111.263037 225.327157 
L 111.52096 224.785222 
L 111.53822 224.243286 
L 111.549601 225.327157 
L 112.124785 225.869093 
L 112.17523 225.327157 
L 112.187524 225.869093 
L 112.350136 225.327157 
L 112.92372 225.869093 
L 121.693104 225.327157 
L 122.164037 224.785222 
L 122.166312 224.243286 
L 122.243497 224.785222 
L 122.572125 223.701351 
L 123.098266 223.159415 
L 123.103115 222.61748 
L 123.104434 223.701351 
L 123.258804 223.159415 
L 123.301605 220.991673 
L 123.3737 221.533609 
L 123.438532 220.991673 
L 123.471122 223.701351 
L 123.480118 224.243286 
L 123.505293 223.159415 
L 123.690641 222.61748 
L 123.736035 220.991673 
L 124.09482 220.449738 
L 124.097929 219.907802 
L 124.30969 219.365867 
L 124.331387 218.281996 
L 124.551393 219.365867 
L 125.021579 219.907802 
L 125.166065 220.449738 
L 125.181051 219.907802 
L 125.23012 220.449738 
L 125.548214 223.701351 
L 125.703749 224.243286 
L 125.743641 224.785222 
L 125.750551 223.701351 
L 125.751276 222.61748 
L 125.847299 223.159415 
L 126.082481 222.61748 
L 126.08813 222.075544 
L 126.167646 222.61748 
L 126.326541 222.075544 
L 126.327179 221.533609 
L 126.439815 222.61748 
L 126.456721 223.159415 
L 127.073309 223.701351 
L 127.230409 225.327157 
L 127.515022 223.159415 
L 127.734796 223.701351 
L 127.832013 225.869093 
L 127.852839 224.785222 
L 127.873013 226.411028 
L 127.947325 225.869093 
L 128.087635 226.411028 
L 128.095777 227.494899 
L 128.344175 228.036835 
L 128.411748 227.494899 
L 128.420942 228.036835 
L 128.550781 228.57877 
L 128.650851 229.120706 
L 128.683412 229.662641 
L 128.899747 229.120706 
L 128.902901 228.57877 
L 129.034917 228.036835 
L 129.111955 226.952964 
L 129.321479 226.411028 
L 129.334195 226.952964 
L 130.296639 226.411028 
L 132.002598 225.869093 
L 138.1809 225.327157 
L 138.366331 224.785222 
L 138.429967 223.159415 
L 138.465361 222.075544 
L 138.595788 221.533609 
L 138.894387 220.991673 
L 140.402415 221.533609 
L 140.768499 222.61748 
L 141.047424 222.075544 
L 141.05358 222.61748 
L 141.088359 221.533609 
L 144.029998 220.449738 
L 144.723983 220.991673 
L 145.067415 220.449738 
L 145.294923 220.991673 
L 145.384986 220.449738 
L 145.392994 220.991673 
L 145.412406 221.533609 
L 145.720386 220.991673 
L 145.763368 221.533609 
L 145.774568 220.991673 
L 146.424263 221.533609 
L 147.061102 220.991673 
L 147.076152 221.533609 
L 154.409492 220.991673 
L 154.824043 220.449738 
L 155.183208 219.365867 
L 155.385913 217.198125 
L 156.04397 217.74006 
L 156.045088 218.281996 
L 156.478206 217.74006 
L 157.807375 217.198125 
L 157.975822 219.365867 
L 157.976462 218.823931 
L 158.161696 217.198125 
L 158.354926 218.281996 
L 158.915437 217.74006 
L 159.130621 218.281996 
L 159.15354 218.823931 
L 159.407652 218.281996 
L 160.729628 217.74006 
L 160.731366 217.198125 
L 161.010856 217.74006 
L 161.013938 218.281996 
L 161.199562 218.823931 
L 161.260555 218.281996 
L 161.281587 218.823931 
L 162.230949 218.281996 
L 162.237138 217.74006 
L 163.430775 218.281996 
L 171.380844 217.74006 
L 171.644207 217.198125 
L 171.92376 217.74006 
L 171.995283 217.198125 
L 172.126331 217.74006 
L 172.985257 218.281996 
L 173.719107 217.74006 
L 174.162873 217.198125 
L 174.389329 216.65619 
L 174.39683 216.114254 
L 174.497911 216.65619 
L 174.498425 217.198125 
L 174.933721 216.65619 
L 175.046882 214.488448 
L 175.304341 213.946512 
L 175.313106 213.404577 
L 175.352181 215.030383 
L 175.48863 214.488448 
L 175.489805 213.946512 
L 175.763218 214.488448 
L 175.822479 213.946512 
L 176.178106 213.404577 
L 176.31146 210.152964 
L 176.418035 209.611028 
L 176.437676 210.694899 
L 176.540617 210.152964 
L 176.544151 209.611028 
L 177.161997 210.152964 
L 177.455484 211.77877 
L 177.457756 212.320706 
L 177.640847 211.77877 
L 177.734148 213.946512 
L 177.95175 213.404577 
L 177.958704 213.946512 
L 178.292581 212.862641 
L 178.297691 213.404577 
L 178.693147 214.488448 
L 178.970587 212.320706 
L 178.973235 211.77877 
L 179.021122 212.320706 
L 179.101069 212.862641 
L 179.372756 213.404577 
L 179.44605 214.488448 
L 179.654135 215.030383 
L 179.657918 215.572319 
L 180.659919 215.030383 
L 180.661786 214.488448 
L 181.751426 213.946512 
L 181.868149 214.488448 
L 182.62919 213.946512 
L 182.630119 213.404577 
L 188.175287 212.862641 
L 188.332397 212.320706 
L 188.416485 211.236835 
L 188.650767 210.152964 
L 188.71602 210.694899 
L 188.868349 210.152964 
L 188.925706 211.236835 
L 189.146761 210.694899 
L 189.376502 209.611028 
L 189.749167 210.152964 
L 189.805955 212.320706 
L 189.985209 211.77877 
L 190.020429 210.694899 
L 190.367842 210.152964 
L 190.478946 210.694899 
L 190.54125 209.611028 
L 190.605785 210.152964 
L 190.734128 208.527157 
L 190.836786 209.069093 
L 191.040603 208.527157 
L 191.044909 209.069093 
L 191.046377 208.527157 
L 191.161197 207.985222 
L 191.294606 209.069093 
L 191.311108 210.152964 
L 191.555744 209.611028 
L 191.575493 207.443286 
L 191.983248 206.901351 
L 192.070759 205.275544 
L 192.185266 205.81748 
L 192.2488 205.275544 
L 192.5078 205.81748 
L 192.524661 206.359415 
L 192.638058 205.81748 
L 192.639057 206.359415 
L 192.640381 205.81748 
L 192.769457 205.275544 
L 192.777849 205.81748 
L 192.781112 205.275544 
L 193.106667 204.733609 
L 193.42508 205.275544 
L 193.463062 204.191673 
L 193.564346 205.275544 
L 193.671394 204.733609 
L 193.672356 204.191673 
L 193.956808 204.733609 
L 194.045993 205.275544 
L 194.07011 204.191673 
L 194.203294 204.733609 
L 194.307051 205.81748 
L 194.500542 207.443286 
L 194.556669 205.81748 
L 194.557068 205.275544 
L 194.638347 207.985222 
L 194.679264 208.527157 
L 194.843666 207.985222 
L 194.855318 208.527157 
L 195.045073 209.069093 
L 195.067416 210.694899 
L 195.334735 210.152964 
L 195.500557 205.275544 
L 195.579516 205.81748 
L 196.039264 205.275544 
L 196.040417 204.733609 
L 205.100966 204.191673 
L 205.888387 204.733609 
L 206.097995 205.275544 
L 206.303298 204.733609 
L 206.329733 204.191673 
L 206.411206 204.733609 
L 206.520584 205.81748 
L 206.524246 206.359415 
L 206.786673 205.81748 
L 207.126459 204.191673 
L 207.494819 204.733609 
L 207.679698 208.527157 
L 207.842496 206.901351 
L 207.904705 204.191673 
L 207.923966 204.733609 
L 208.18633 205.275544 
L 208.380712 204.733609 
L 208.535362 205.81748 
L 208.622015 204.191673 
L 208.998961 204.733609 
L 209.073137 205.275544 
L 209.163309 204.733609 
L 209.233991 205.275544 
L 209.300113 204.733609 
L 209.372069 205.275544 
L 209.560464 205.81748 
L 209.56835 207.443286 
L 209.669848 206.359415 
L 209.787032 204.191673 
L 209.791495 204.733609 
L 209.797234 203.649738 
L 209.89524 205.275544 
L 209.994015 204.733609 
L 209.926768 205.81748 
L 210.005453 205.275544 
L 210.163609 204.733609 
L 210.340917 205.275544 
L 210.436686 206.359415 
L 210.478452 206.901351 
L 210.650735 207.443286 
L 210.674163 208.527157 
L 210.849612 209.069093 
L 210.935141 206.901351 
L 210.945399 207.443286 
L 210.976071 206.901351 
L 211.004859 207.985222 
L 211.16959 210.694899 
L 211.239161 210.152964 
L 211.353924 211.236835 
L 211.439098 210.694899 
L 211.440924 209.611028 
L 211.546495 210.694899 
L 211.613552 211.77877 
L 211.650087 211.236835 
L 211.778167 210.152964 
L 211.89722 209.611028 
L 212.157112 210.152964 
L 212.23338 211.77877 
L 212.307937 212.862641 
L 212.327919 212.320706 
L 212.50284 209.611028 
L 220.807535 210.152964 
L 221.505329 209.611028 
L 221.679737 209.069093 
L 222.303097 208.527157 
L 222.305009 206.901351 
L 222.728131 205.81748 
L 223.223604 205.275544 
L 223.304622 206.359415 
L 223.30977 207.443286 
L 223.634123 206.901351 
L 223.634697 206.359415 
L 223.748887 206.901351 
L 223.767781 206.359415 
L 223.958092 207.443286 
L 224.121431 206.901351 
L 224.122271 205.81748 
L 224.303933 206.359415 
L 224.379608 205.81748 
L 224.457071 206.359415 
L 224.569713 205.275544 
L 224.680477 206.359415 
L 224.737751 206.901351 
L 224.861383 206.359415 
L 224.881485 205.275544 
L 224.995136 205.81748 
L 225.054548 205.275544 
L 225.284689 206.359415 
L 225.383015 205.275544 
L 225.879123 206.359415 
L 225.966128 205.81748 
L 226.08738 206.901351 
L 226.099542 206.359415 
L 226.333126 206.901351 
L 226.389214 205.81748 
L 226.425819 206.359415 
L 226.561874 206.901351 
L 226.629447 205.275544 
L 226.760326 205.81748 
L 226.894062 205.275544 
L 227.090304 205.81748 
L 227.1846 206.901351 
L 227.199192 206.359415 
L 227.230674 206.901351 
L 227.284008 206.359415 
L 227.512546 207.985222 
L 227.604243 207.443286 
L 227.720895 211.236835 
L 228.108113 210.152964 
L 228.112401 210.694899 
L 228.654437 209.611028 
L 228.757976 211.77877 
L 228.842693 211.236835 
L 228.927069 212.320706 
L 229.051115 211.77877 
L 229.162172 213.404577 
L 229.186635 212.862641 
L 229.216311 213.404577 
L 229.427964 212.862641 
L 229.428366 212.320706 
L 231.101953 211.77877 
L 231.119773 209.611028 
L 231.134006 211.77877 
L 237.600347 212.320706 
L 237.852685 211.236835 
L 238.218318 210.152964 
L 238.307079 209.611028 
L 238.675922 209.069093 
L 238.738857 209.611028 
L 238.814983 209.069093 
L 239.528173 208.527157 
L 239.743954 209.069093 
L 239.753424 210.152964 
L 240.215891 210.694899 
L 240.434824 210.152964 
L 240.44022 209.069093 
L 240.928846 208.527157 
L 241.027008 206.901351 
L 241.104856 205.275544 
L 241.543352 205.81748 
L 241.545409 206.359415 
L 241.614777 205.275544 
L 241.621094 205.81748 
L 241.727875 205.275544 
L 241.789232 206.359415 
L 241.791948 205.275544 
L 242.015424 205.81748 
L 242.134496 207.443286 
L 242.220892 209.611028 
L 242.284132 208.527157 
L 242.333 207.443286 
L 242.383927 209.611028 
L 242.440057 209.069093 
L 242.44393 209.611028 
L 242.551357 210.152964 
L 242.560223 209.069093 
L 242.639536 210.694899 
L 242.654445 211.236835 
L 242.856894 212.320706 
L 242.863471 212.862641 
L 242.930715 210.694899 
L 243.074851 212.862641 
L 243.088839 211.77877 
L 243.117801 211.236835 
L 243.172904 211.77877 
L 243.247296 212.320706 
L 243.308287 210.694899 
L 243.309282 209.611028 
L 243.386552 210.152964 
L 243.457706 209.069093 
L 243.459403 207.985222 
L 243.597318 208.527157 
L 243.639023 207.985222 
L 243.780825 208.527157 
L 243.794097 209.069093 
L 243.806861 206.901351 
L 243.818215 207.985222 
L 243.932489 206.359415 
L 244.073384 206.901351 
L 244.084607 206.359415 
L 244.120895 206.901351 
L 244.267721 207.443286 
L 244.290947 208.527157 
L 244.351568 207.443286 
L 244.419459 206.901351 
L 244.423321 207.443286 
L 244.567122 206.901351 
L 244.778354 209.069093 
L 244.901402 208.527157 
L 245.108631 209.069093 
L 245.168289 207.985222 
L 245.268595 206.901351 
L 245.273176 207.443286 
L 245.385223 207.985222 
L 245.494484 206.901351 
L 245.497697 206.359415 
L 245.531305 207.985222 
L 245.56152 207.443286 
L 245.88322 207.985222 
L 245.904712 210.152964 
L 246.245058 209.611028 
L 246.247483 209.069093 
L 246.26415 210.152964 
L 246.338616 210.152964 
L 247.5824 209.611028 
L 247.584129 209.069093 
L 253.959253 208.527157 
L 254.60132 207.443286 
L 254.746894 206.359415 
L 254.943046 205.275544 
L 255.004385 205.81748 
L 255.473229 204.733609 
L 255.500856 203.649738 
L 255.723856 203.107802 
L 255.822635 201.481996 
L 255.823728 202.023931 
L 255.929392 203.649738 
L 255.948874 204.191673 
L 256.064272 203.107802 
L 256.083455 203.649738 
L 256.399069 203.107802 
L 256.556749 202.565867 
L 256.557606 202.023931 
L 256.565862 202.565867 
L 256.703526 203.107802 
L 256.705049 203.649738 
L 256.992788 203.107802 
L 256.993321 202.565867 
L 257.102289 203.107802 
L 257.191675 204.191673 
L 257.213957 203.649738 
L 257.232377 201.481996 
L 257.493228 202.023931 
L 257.569682 201.481996 
L 258.081164 202.023931 
L 258.194332 203.107802 
L 258.493821 204.191673 
L 258.700499 203.649738 
L 258.806321 204.191673 
L 258.920524 201.481996 
L 258.92766 202.023931 
L 259.04754 202.565867 
L 259.079698 201.481996 
L 259.100044 203.107802 
L 259.280593 205.275544 
L 259.302773 204.733609 
L 259.382959 203.107802 
L 259.521059 205.275544 
L 259.581805 204.733609 
L 259.613027 203.107802 
L 259.687266 204.191673 
L 259.694031 204.733609 
L 259.762761 203.649738 
L 260.040219 204.733609 
L 260.302687 206.359415 
L 260.571395 211.236835 
L 260.600746 210.694899 
L 260.737084 210.152964 
L 260.822089 207.443286 
L 260.95396 207.985222 
L 261.039555 209.611028 
L 261.065201 209.069093 
L 261.093431 207.985222 
L 261.11688 209.069093 
L 261.285523 208.527157 
L 261.307542 210.694899 
L 261.377933 209.611028 
L 261.604211 212.862641 
L 261.745754 212.320706 
L 261.791303 211.77877 
L 261.803001 212.320706 
L 262.106201 211.236835 
L 262.218983 211.77877 
L 262.255258 211.236835 
L 262.467696 211.77877 
L 263.114517 211.236835 
L 263.157153 210.694899 
L 263.324107 210.152964 
L 265.037351 209.611028 
L 265.119009 210.152964 
L 270.610659 209.611028 
L 271.363566 209.069093 
L 271.377098 208.527157 
L 272.015233 207.985222 
L 272.245904 207.443286 
L 272.250956 206.901351 
L 272.393785 206.359415 
L 273.353995 205.81748 
L 273.361458 204.733609 
L 273.994255 205.275544 
L 274.08421 204.191673 
L 274.086755 202.565867 
L 274.442801 204.191673 
L 274.448225 205.275544 
L 274.684782 205.81748 
L 274.689308 206.359415 
L 274.74306 204.733609 
L 275.2267 204.191673 
L 275.235656 203.107802 
L 275.386992 203.649738 
L 275.888491 204.191673 
L 275.949706 205.275544 
L 276.247802 204.733609 
L 276.269141 204.191673 
L 276.291682 204.733609 
L 276.400694 205.81748 
L 276.431723 206.901351 
L 276.880288 206.359415 
L 276.887813 206.901351 
L 276.908336 206.359415 
L 277.06113 206.901351 
L 277.140732 207.985222 
L 277.402432 208.527157 
L 277.995467 207.443286 
L 278.039821 206.901351 
L 278.670059 207.443286 
L 278.829062 206.901351 
L 278.834563 207.443286 
L 280.812264 206.901351 
L 280.817051 206.359415 
L 281.029489 205.81748 
L 281.032389 205.275544 
L 283.611718 204.733609 
L 286.896088 205.275544 
L 286.919447 204.733609 
L 287.670393 204.191673 
L 287.874183 203.649738 
L 287.98937 202.565867 
L 288.047403 203.107802 
L 288.079897 202.565867 
L 288.139468 202.023931 
L 288.549888 201.481996 
L 288.551537 200.94006 
L 288.716992 201.481996 
L 288.725175 202.023931 
L 288.85111 201.481996 
L 289.268401 202.023931 
L 289.554697 200.398125 
L 289.934623 199.85619 
L 290.105508 200.94006 
L 290.155711 200.398125 
L 290.162037 197.688448 
L 290.182127 198.230383 
L 290.347119 198.772319 
L 290.447187 199.85619 
L 290.597689 197.688448 
L 290.707032 198.230383 
L 290.714234 198.772319 
L 291.088409 199.314254 
L 291.110004 200.94006 
L 291.241194 201.481996 
L 291.350677 200.398125 
L 291.454619 200.94006 
L 291.632076 202.565867 
L 291.855403 202.023931 
L 291.925968 200.94006 
L 292.149423 202.565867 
L 292.206751 205.81748 
L 292.23264 204.733609 
L 292.393622 203.649738 
L 292.626881 203.107802 
L 292.627277 202.565867 
L 292.741427 203.107802 
L 292.968981 202.565867 
L 292.971328 201.481996 
L 293.047744 204.733609 
L 293.065873 204.733609 
L 293.174272 205.81748 
L 293.617587 205.275544 
L 293.691279 203.649738 
L 293.751972 205.275544 
L 293.858267 206.901351 
L 293.90036 206.359415 
L 294.229635 206.901351 
L 302.903408 206.359415 
L 303.642846 205.275544 
L 303.7134 203.649738 
L 303.880854 199.314254 
L 304.023196 196.062641 
L 304.237905 195.520706 
L 304.837347 196.604577 
L 304.837576 197.146512 
L 304.922806 196.604577 
L 305.020893 198.230383 
L 305.047645 197.688448 
L 305.346741 198.230383 
L 305.544654 197.688448 
L 305.637157 196.604577 
L 305.644673 198.230383 
L 305.651242 198.772319 
L 305.703792 197.146512 
L 305.77354 197.688448 
L 305.793182 197.146512 
L 305.849168 196.062641 
L 305.856426 196.604577 
L 306.008693 196.062641 
L 306.31132 196.604577 
L 306.377862 196.062641 
L 306.498639 196.604577 
L 306.586838 197.688448 
L 306.702831 196.062641 
L 306.751879 196.604577 
L 306.861877 196.062641 
L 307.160701 197.688448 
L 307.304413 197.146512 
L 307.309988 194.97877 
L 307.389205 202.023931 
L 307.504051 205.81748 
L 307.629988 204.733609 
L 307.657164 203.107802 
L 307.706949 204.191673 
L 308.045513 205.275544 
L 308.131391 204.191673 
L 308.266245 194.97877 
L 308.316268 196.604577 
L 308.369256 198.772319 
L 308.382427 196.604577 
L 308.514522 196.062641 
L 308.584375 193.894899 
L 308.605161 194.436835 
L 308.734116 196.062641 
L 308.74069 197.146512 
L 308.740909 196.604577 
L 308.880725 197.146512 
L 308.92731 196.604577 
L 309.099479 197.146512 
L 309.221976 198.772319 
L 309.237018 198.230383 
L 309.301981 197.688448 
L 309.308856 198.230383 
L 309.3107 198.772319 
L 309.401928 196.604577 
L 309.554717 198.230383 
L 309.597768 198.772319 
L 309.629678 198.230383 
L 309.679138 197.688448 
L 309.999879 198.772319 
L 310.047372 198.230383 
L 310.080406 198.772319 
L 310.150288 199.85619 
L 310.154986 200.94006 
L 310.20488 199.85619 
L 310.3157 198.772319 
L 310.31813 198.230383 
L 310.396747 200.398125 
L 310.456006 198.772319 
L 310.530988 195.520706 
L 310.565225 198.772319 
L 310.656214 200.398125 
L 310.963167 200.94006 
L 311.058088 203.649738 
L 311.330925 204.733609 
L 311.683632 204.191673 
L 311.684217 203.649738 
L 312.075198 203.107802 
L 312.078845 203.649738 
L 312.55186 203.107802 
L 312.560381 203.649738 
L 314.212685 203.107802 
L 315.369076 203.649738 
L 315.719847 203.107802 
L 315.76137 203.649738 
L 319.971061 203.107802 
L 320.319442 202.565867 
L 320.423294 202.023931 
L 321.249303 202.565867 
L 321.259794 203.107802 
L 321.861267 202.565867 
L 322.294121 201.481996 
L 322.350381 200.398125 
L 322.510834 199.85619 
L 322.591823 197.688448 
L 322.694833 197.146512 
L 322.966779 196.604577 
L 322.969683 195.520706 
L 323.077069 196.604577 
L 323.095027 197.146512 
L 323.246435 196.604577 
L 323.255564 197.146512 
L 323.598855 196.604577 
L 323.606176 196.062641 
L 323.608242 196.604577 
L 323.815306 197.146512 
L 323.861703 198.230383 
L 323.884954 197.688448 
L 324.102616 196.604577 
L 324.110569 196.062641 
L 324.260883 195.520706 
L 324.520654 197.146512 
L 324.818229 196.604577 
L 324.954424 193.352964 
L 325.727312 194.436835 
L 325.750661 193.352964 
L 325.900221 193.894899 
L 325.975511 196.604577 
L 326.068655 196.062641 
L 326.386937 200.94006 
L 326.462766 201.481996 
L 326.533293 200.398125 
L 326.543069 199.85619 
L 326.546849 200.398125 
L 326.651495 200.94006 
L 326.738295 200.398125 
L 326.852749 201.481996 
L 326.868792 200.94006 
L 326.914584 201.481996 
L 326.976551 200.398125 
L 327.040617 200.94006 
L 327.066936 200.398125 
L 327.182217 199.314254 
L 327.222061 199.85619 
L 327.334277 200.398125 
L 327.385227 199.85619 
L 327.418077 200.398125 
L 327.464475 199.314254 
L 327.506438 202.023931 
L 327.823052 202.565867 
L 327.898405 201.481996 
L 327.977564 200.398125 
L 327.997202 200.94006 
L 328.166631 202.565867 
L 328.283323 204.191673 
L 328.477452 203.649738 
L 328.566216 204.191673 
L 328.741314 203.649738 
L 328.741966 203.107802 
L 328.903236 202.565867 
L 328.946846 203.649738 
L 329.718597 203.107802 
L 329.719763 202.565867 
L 330.405731 202.023931 
L 336.592442 202.565867 
L 337.029317 202.023931 
L 337.319666 202.565867 
L 337.366343 203.649738 
L 337.400207 202.565867 
L 337.47564 202.023931 
L 337.719757 202.565867 
L 337.7751 202.023931 
L 338.009587 202.565867 
L 338.368259 200.94006 
L 338.832939 200.398125 
L 338.833583 199.85619 
L 338.875052 200.398125 
L 338.991607 199.85619 
L 338.995928 198.230383 
L 339.081049 198.772319 
L 339.10387 199.314254 
L 339.172139 198.772319 
L 339.187323 198.230383 
L 339.210687 198.772319 
L 339.767534 198.230383 
L 339.829698 194.97877 
L 339.964884 194.436835 
L 340.080109 193.352964 
L 340.469827 192.811028 
L 340.561039 194.97877 
L 340.637699 194.436835 
L 340.680197 194.97877 
L 340.724951 194.436835 
L 340.909383 194.97877 
L 340.916892 195.520706 
L 341.115558 196.062641 
L 341.177709 197.146512 
L 341.280912 198.230383 
L 341.295601 198.772319 
L 341.328773 196.062641 
L 341.468558 193.352964 
L 341.543903 192.811028 
L 341.677983 196.062641 
L 341.838471 195.520706 
L 341.842963 194.97877 
L 341.858821 196.062641 
L 342.015374 195.520706 
L 342.017732 194.97877 
L 342.154778 195.520706 
L 342.175702 196.604577 
L 342.493059 196.062641 
L 342.612088 196.604577 
L 342.693986 196.062641 
L 342.701696 196.604577 
L 342.865309 198.230383 
L 343.210325 199.314254 
L 343.363635 202.023931 
L 343.469342 200.94006 
L 343.472186 200.398125 
L 343.587687 200.94006 
L 343.899643 200.398125 
L 343.988988 197.688448 
L 344.04014 198.230383 
L 344.041604 197.688448 
L 344.297014 196.062641 
L 344.302912 195.520706 
L 344.35475 196.062641 
L 344.876924 195.520706 
L 345.072481 196.062641 
L 345.387843 195.520706 
L 345.404046 194.97877 
L 345.413272 196.062641 
L 353.572707 196.604577 
L 354.239282 195.520706 
L 354.391011 194.97877 
L 354.472209 193.894899 
L 354.633999 193.352964 
L 354.862709 193.894899 
L 355.033132 192.811028 
L 355.23019 192.269093 
L 355.268047 193.352964 
L 355.764029 192.811028 
L 355.997728 193.894899 
L 356.02111 193.352964 
L 356.022642 192.269093 
L 356.361726 191.727157 
L 356.486118 192.811028 
L 356.715378 192.269093 
L 356.750098 191.185222 
L 356.885424 191.727157 
L 356.902187 191.185222 
L 356.950601 191.727157 
L 357.06789 192.811028 
L 357.251812 194.436835 
L 357.327688 193.894899 
L 357.382555 195.520706 
L 357.38614 196.062641 
L 357.585118 197.146512 
L 357.6948 196.604577 
L 357.733286 197.146512 
L 357.76875 196.604577 
L 358.10409 199.314254 
L 358.234012 198.772319 
L 358.338708 199.85619 
L 358.408446 200.398125 
L 358.678557 198.772319 
L 358.68855 197.146512 
L 358.721663 197.688448 
L 358.831812 197.146512 
L 359.014028 198.230383 
L 359.023546 198.772319 
L 359.156808 198.230383 
L 359.157796 197.688448 
L 359.322829 197.146512 
L 359.323854 196.604577 
L 359.528126 197.146512 
L 359.61632 198.772319 
L 359.652902 198.230383 
L 359.711702 196.604577 
L 359.791462 197.688448 
L 359.826517 198.772319 
L 359.951695 198.230383 
L 359.978857 196.062641 
L 360.056164 196.604577 
L 360.302991 198.772319 
L 360.339183 198.230383 
L 360.382716 198.772319 
L 360.430528 198.230383 
L 360.458956 199.85619 
L 360.509074 199.314254 
L 360.651179 200.398125 
L 360.776821 200.94006 
L 360.807573 198.230383 
L 360.850044 198.772319 
L 360.906916 198.230383 
L 360.911909 198.772319 
L 360.978805 199.85619 
L 361.017573 199.314254 
L 361.074625 198.772319 
L 361.086529 199.314254 
L 361.248959 198.230383 
L 361.341475 197.146512 
L 361.27721 198.772319 
L 361.345526 197.688448 
L 361.504102 198.772319 
L 361.72566 198.230383 
L 361.803334 199.314254 
L 361.870689 198.772319 
L 362.068728 198.230383 
L 362.178257 197.146512 
L 362.194557 197.688448 
L 362.492714 197.146512 
L 362.616984 197.688448 
L 363.026287 198.230383 
L 363.247595 196.604577 
L 363.337074 197.688448 
L 363.774575 198.230383 
L 370.54252 198.772319 
L 370.894177 197.688448 
L 370.981913 195.520706 
L 371.062801 196.604577 
L 371.163983 198.230383 
L 371.274684 196.062641 
L 371.750263 195.520706 
L 371.780261 193.894899 
L 371.868947 194.436835 
L 372.207378 192.269093 
L 372.2701 190.101351 
L 372.547472 190.643286 
L 372.551336 190.101351 
L 373.185654 190.643286 
L 373.252014 191.727157 
L 373.265662 190.643286 
L 373.266172 190.101351 
L 373.282966 191.185222 
L 373.32989 190.643286 
L 373.502209 191.185222 
L 373.544101 192.269093 
L 373.728286 192.811028 
L 373.982387 192.269093 
L 373.98961 192.811028 
L 374.073021 192.269093 
L 374.087201 191.727157 
L 374.293708 192.269093 
L 374.35761 191.727157 
L 374.5751 191.185222 
L 374.579147 190.643286 
L 374.59794 191.185222 
L 374.858081 192.811028 
L 374.947633 195.520706 
L 374.991514 193.894899 
L 375.198869 195.520706 
L 375.258522 197.688448 
L 375.346155 197.146512 
L 375.381944 197.688448 
L 375.404711 196.604577 
L 375.501433 195.520706 
L 375.520634 193.894899 
L 375.618784 194.97877 
L 375.631459 196.062641 
L 375.76301 195.520706 
L 375.76372 196.062641 
L 375.836767 193.894899 
L 375.873812 194.436835 
L 375.87827 193.352964 
L 375.8825 192.269093 
L 375.914282 195.520706 
L 376.020834 196.062641 
L 376.02485 195.520706 
L 376.063752 194.97877 
L 376.071208 195.520706 
L 376.208026 196.062641 
L 376.448417 193.352964 
L 376.487488 192.269093 
L 376.497224 192.811028 
L 376.877164 193.894899 
L 377.038176 191.727157 
L 377.054329 191.185222 
L 377.086695 193.352964 
L 377.130717 192.811028 
L 377.147579 193.352964 
L 377.254453 195.520706 
L 377.331907 194.97877 
L 377.438861 194.436835 
L 377.457809 194.97877 
L 377.519072 193.894899 
L 377.545233 193.352964 
L 377.567047 194.436835 
L 378.107825 200.398125 
L 378.156509 199.85619 
L 378.28596 199.314254 
L 378.33024 199.85619 
L 378.475621 199.314254 
L 378.498207 197.688448 
L 378.577209 199.314254 
L 378.917569 198.772319 
L 378.918144 198.230383 
L 379.368615 197.688448 
L 379.373347 194.97877 
L 379.844956 195.520706 
L 379.847311 196.062641 
L 381.620881 196.604577 
L 387.153471 196.062641 
L 387.157623 195.520706 
L 387.352878 194.97877 
L 387.385051 194.436835 
L 387.559562 194.97877 
L 387.73936 193.894899 
L 388.135954 193.352964 
L 388.381523 192.269093 
L 388.513742 189.559415 
L 388.5659 189.01748 
L 388.880511 191.185222 
L 388.895765 190.643286 
L 388.91673 187.933609 
L 388.990138 190.101351 
L 389.01455 189.01748 
L 389.02516 190.101351 
L 389.195865 190.643286 
L 389.305433 189.559415 
L 389.321731 190.101351 
L 389.509 192.269093 
L 389.579575 191.727157 
L 389.696584 192.811028 
L 389.747667 194.436835 
L 389.798949 192.811028 
L 389.890476 190.643286 
L 390.048277 190.101351 
L 390.143449 187.933609 
L 390.188452 189.559415 
L 390.256504 189.01748 
L 390.370721 188.475544 
L 390.429056 189.559415 
L 390.433838 188.475544 
L 390.628026 185.765867 
L 390.636856 186.849738 
L 390.655218 190.101351 
L 390.70684 188.475544 
L 390.854262 187.391673 
L 390.979467 187.933609 
L 391.048189 187.391673 
L 391.012355 188.475544 
L 391.083856 187.933609 
L 391.203555 187.391673 
L 391.223445 186.849738 
L 391.30086 189.01748 
L 391.37489 190.643286 
L 391.394836 188.475544 
L 391.504228 185.223931 
L 391.641583 186.849738 
L 391.661233 185.765867 
L 391.701344 184.681996 
L 391.753548 186.849738 
L 391.776526 186.307802 
L 391.795932 186.849738 
L 392.0178 188.475544 
L 392.053389 189.559415 
L 392.313989 187.933609 
L 392.325297 188.475544 
L 392.392856 190.101351 
L 392.530461 189.559415 
L 392.57886 187.933609 
L 392.638905 188.475544 
L 392.767761 187.933609 
L 392.80617 186.307802 
L 392.824612 187.391673 
L 392.980984 186.849738 
L 393.04543 187.933609 
L 393.209008 188.475544 
L 393.305682 191.727157 
L 393.319294 190.643286 
L 393.413786 191.185222 
L 393.584279 189.559415 
L 393.60749 190.101351 
L 393.696091 190.643286 
L 393.765853 190.101351 
L 396.551859 189.559415 
L 396.726438 190.101351 
L 396.729906 190.643286 
L 402.671395 190.101351 
L 402.896788 189.559415 
L 402.955923 189.01748 
L 403.259037 188.475544 
L 403.875583 187.933609 
L 404.264082 188.475544 
L 404.329573 189.01748 
L 404.804598 188.475544 
L 405.095378 187.391673 
L 405.105687 187.933609 
L 405.330997 187.391673 
L 405.336906 186.849738 
L 405.516375 186.307802 
L 405.605785 186.849738 
L 405.655704 185.765867 
L 405.78301 186.307802 
L 406.005065 185.765867 
L 406.033617 185.223931 
L 406.025981 186.307802 
L 406.109066 186.307802 
L 406.276169 185.765867 
L 406.314827 184.681996 
L 406.475989 185.223931 
L 406.601625 183.05619 
L 406.643449 184.14006 
L 406.654033 185.223931 
L 406.677057 184.681996 
L 406.791665 185.223931 
L 406.877735 183.598125 
L 406.889623 185.223931 
L 406.946724 184.681996 
L 406.956337 185.223931 
L 406.960147 185.765867 
L 406.999886 183.598125 
L 407.014351 184.14006 
L 407.15827 181.972319 
L 407.177934 182.514254 
L 407.284607 183.598125 
L 407.291284 183.05619 
L 407.302915 181.972319 
L 407.362073 183.598125 
L 407.56116 181.972319 
L 407.565589 183.05619 
L 407.754187 182.514254 
L 407.925877 183.05619 
L 408.01102 186.849738 
L 408.02971 186.307802 
L 408.252423 183.598125 
L 408.253261 183.05619 
L 408.348603 184.14006 
L 408.441798 184.681996 
L 408.555179 183.598125 
L 408.581055 182.514254 
L 408.632763 183.05619 
L 408.750745 183.598125 
L 408.751103 184.14006 
L 408.881144 184.681996 
L 409.054263 183.05619 
L 409.105928 184.14006 
L 409.304535 183.598125 
L 409.420229 184.14006 
L 409.50221 183.05619 
L 409.562721 182.514254 
L 409.693131 183.05619 
L 409.795019 182.514254 
L 410.14038 183.05619 
L 410.174432 182.514254 
L 410.317545 183.598125 
L 410.541836 186.307802 
L 410.548426 185.765867 
L 410.632933 187.933609 
L 410.637215 189.01748 
L 410.750728 189.559415 
L 410.795179 189.01748 
L 410.821999 189.559415 
L 411.030292 190.101351 
L 411.209358 189.559415 
L 411.212124 189.01748 
L 411.527887 188.475544 
L 411.56355 186.849738 
L 411.574157 187.391673 
L 411.760763 186.849738 
L 411.953479 187.391673 
L 411.95609 187.933609 
L 412.26166 187.391673 
L 418.915715 186.849738 
L 419.700796 186.307802 
L 419.705537 186.849738 
L 419.891975 186.307802 
L 420.054718 185.223931 
L 420.942452 184.681996 
L 421.375569 185.223931 
L 421.414529 184.681996 
L 421.535221 185.223931 
L 421.560871 183.598125 
L 421.597859 186.307802 
L 421.747618 184.14006 
L 421.7489 183.598125 
L 421.919903 183.05619 
L 421.934914 184.14006 
L 421.976488 183.598125 
L 422.151588 183.05619 
L 422.208154 182.514254 
L 422.502618 183.05619 
L 422.505083 183.598125 
L 422.549978 180.888448 
L 422.602146 180.888448 
L 422.684554 178.720706 
L 422.715723 179.262641 
L 422.94644 179.804577 
L 422.98349 180.346512 
L 423.000517 179.804577 
L 423.092145 178.720706 
L 423.129639 179.262641 
L 423.259904 179.804577 
L 423.359561 182.514254 
L 423.282289 178.720706 
L 423.410061 181.430383 
L 423.483735 178.720706 
L 423.575031 179.804577 
L 423.594786 180.888448 
L 423.653613 179.804577 
L 423.738233 180.346512 
L 423.747731 179.804577 
L 423.781193 178.17877 
L 423.856425 181.430383 
L 423.950214 178.720706 
L 423.970153 180.346512 
L 423.997326 181.430383 
L 424.038854 179.804577 
L 424.102458 181.430383 
L 424.113361 180.888448 
L 424.213621 181.972319 
L 424.24464 184.14006 
L 424.294157 181.430383 
L 424.308832 180.888448 
L 424.325977 184.14006 
L 424.337483 185.223931 
L 424.358873 183.05619 
L 424.413128 183.05619 
L 424.433362 179.262641 
L 424.583077 179.804577 
L 424.583319 180.346512 
L 424.639807 178.720706 
L 424.786727 180.346512 
L 424.824768 179.804577 
L 424.8672 178.720706 
L 425.035955 179.804577 
L 425.040797 179.262641 
L 425.153115 178.720706 
L 425.321232 181.430383 
L 425.335399 180.888448 
L 425.41995 178.720706 
L 425.505844 179.804577 
L 425.517858 180.346512 
L 425.552789 178.720706 
L 425.6813 179.262641 
L 425.683505 178.720706 
L 425.773906 180.888448 
L 425.848982 184.681996 
L 425.881517 181.430383 
L 425.921958 180.346512 
L 425.937836 181.972319 
L 426.01375 184.681996 
L 426.048791 183.05619 
L 426.103385 177.636835 
L 426.119917 178.17877 
L 426.232445 177.636835 
L 426.299083 178.720706 
L 426.41134 181.972319 
L 426.447789 183.598125 
L 426.557881 183.05619 
L 426.644552 184.14006 
L 426.750286 185.223931 
L 426.778333 184.681996 
L 426.778722 184.14006 
L 426.838802 187.391673 
L 426.913594 186.849738 
L 427.089057 189.01748 
L 427.14206 188.475544 
L 427.18271 186.849738 
L 427.272316 183.598125 
L 427.297732 184.14006 
L 427.332228 183.598125 
L 427.39396 184.14006 
L 427.494437 188.475544 
L 427.753936 187.933609 
L 427.805543 188.475544 
L 427.807071 187.933609 
L 427.918997 186.849738 
L 427.920489 186.307802 
L 428.201448 185.765867 
L 428.203735 185.223931 
L 428.36975 185.765867 
L 428.396037 185.223931 
L 428.418415 186.307802 
L 428.437429 185.765867 
L 428.564293 186.849738 
L 428.603103 186.307802 
L 428.616189 185.765867 
L 428.703074 186.307802 
L 428.773846 187.391673 
L 430.137698 186.849738 
L 430.765698 186.307802 
L 430.779076 186.849738 
L 430.941318 186.307802 
L 430.973268 184.14006 
L 431.702227 184.681996 
L 436.570334 185.223931 
L 436.576976 185.765867 
L 436.634567 185.223931 
L 437.512713 184.681996 
L 437.599209 183.598125 
L 437.738374 180.888448 
L 437.873392 180.346512 
L 437.898216 179.262641 
L 438.015548 178.720706 
L 438.017237 178.17877 
L 438.140954 177.636835 
L 438.193856 179.262641 
L 438.294706 178.720706 
L 438.390274 177.094899 
L 438.397144 178.17877 
L 438.533258 177.636835 
L 438.841849 177.094899 
L 438.950589 174.927157 
L 438.992631 175.469093 
L 439.139842 174.927157 
L 439.225003 173.301351 
L 439.302138 173.843286 
L 439.317552 173.301351 
L 439.428713 173.843286 
L 439.442959 173.301351 
L 439.629924 173.843286 
L 439.670141 174.385222 
L 439.6874 173.843286 
L 439.723569 173.301351 
L 439.985026 173.843286 
L 440.00449 173.301351 
L 440.293463 172.759415 
L 440.361143 171.675544 
L 440.302337 173.301351 
L 440.377895 172.21748 
L 440.425816 173.843286 
L 440.519905 172.759415 
L 440.561785 171.675544 
L 440.596746 172.21748 
L 440.700176 173.301351 
L 440.802273 172.759415 
L 440.885067 171.675544 
L 441.046812 172.759415 
L 441.050714 172.21748 
L 441.054653 171.675544 
L 441.252693 172.21748 
L 441.286425 171.675544 
L 441.357368 172.21748 
L 441.475545 171.675544 
L 441.575069 172.759415 
L 441.628583 173.843286 
L 441.63816 173.301351 
L 441.729468 172.21748 
L 441.730642 171.675544 
L 441.851597 172.21748 
L 441.917313 176.552964 
L 441.965418 174.927157 
L 442.064182 172.759415 
L 442.089339 171.675544 
L 442.204177 172.759415 
L 442.214149 173.301351 
L 442.215973 172.21748 
L 442.389437 172.759415 
L 442.493968 173.301351 
L 442.499389 172.759415 
L 442.573416 173.843286 
L 442.668328 174.927157 
L 442.686321 174.385222 
L 442.716784 172.21748 
L 442.806874 173.843286 
L 443.025462 172.21748 
L 443.028233 172.759415 
L 443.034024 173.301351 
L 443.055453 172.21748 
L 443.131526 172.759415 
L 443.301478 173.301351 
L 443.367761 175.469093 
L 443.400389 174.385222 
L 443.481266 172.759415 
L 443.481846 172.21748 
L 443.51317 172.759415 
L 443.711554 173.301351 
L 443.723595 173.843286 
L 443.871683 174.385222 
L 443.960757 173.843286 
L 443.987644 174.385222 
L 444.040294 173.301351 
L 444.218538 174.385222 
L 444.323112 175.469093 
L 444.368499 176.011028 
L 444.38332 175.469093 
L 445.217543 176.011028 
L 445.239299 175.469093 
L 445.244594 176.011028 
L 445.506791 175.469093 
L 445.54985 174.385222 
L 446.035703 174.927157 
L 446.157855 174.385222 
L 446.165843 174.927157 
L 453.503172 174.385222 
L 453.835732 173.843286 
L 453.932958 173.301351 
L 454.138922 174.927157 
L 454.39113 174.385222 
L 454.498967 173.843286 
L 454.787917 173.301351 
L 454.789319 172.759415 
L 455.063863 172.21748 
L 455.073708 171.675544 
L 456.528368 172.21748 
L 456.5385 171.675544 
L 456.800311 172.21748 
L 456.808812 172.759415 
L 457.32301 173.301351 
L 457.521906 172.759415 
L 457.682209 171.675544 
L 457.694688 172.21748 
L 457.732307 173.301351 
L 458.08804 172.21748 
L 458.116728 172.759415 
L 458.177536 172.21748 
L 458.320275 172.759415 
L 458.322267 173.301351 
L 458.348505 172.759415 
L 458.787529 173.843286 
L 458.915568 176.011028 
L 459.364776 176.552964 
L 459.479777 178.720706 
L 459.505851 179.804577 
L 459.732632 179.262641 
L 459.814954 179.804577 
L 460.154708 180.346512 
L 460.178251 179.804577 
L 460.194551 180.346512 
L 460.422031 179.804577 
L 460.429837 179.262641 
L 460.60363 178.720706 
L 460.61211 178.17877 
L 460.842082 178.720706 
L 460.846942 179.262641 
L 460.890052 177.636835 
L 461.024224 177.094899 
L 461.05635 178.720706 
L 461.107499 178.17877 
L 461.256462 179.262641 
L 461.364623 180.346512 
L 461.699016 179.804577 
L 461.700491 179.262641 
L 461.734298 180.346512 
L 463.674128 180.888448 
L 469.219019 180.346512 
L 469.299503 179.262641 
L 469.819627 179.804577 
L 469.90363 179.262641 
L 470.059757 179.804577 
L 470.130149 179.262641 
L 470.339951 179.804577 
L 470.581582 176.552964 
L 470.748573 176.011028 
L 470.912719 176.552964 
L 470.913359 177.094899 
L 471.079752 176.552964 
L 471.127034 174.927157 
L 471.145664 174.385222 
L 471.463914 173.843286 
L 471.508589 174.927157 
L 471.58311 172.21748 
L 471.729889 172.759415 
L 471.762971 172.21748 
L 471.908467 178.17877 
L 472.092451 177.636835 
L 472.309886 178.17877 
L 472.547279 177.636835 
L 472.748789 174.927157 
L 472.762544 175.469093 
L 472.852268 174.385222 
L 472.876427 172.759415 
L 472.899272 174.927157 
L 472.961177 174.927157 
L 473.1191 175.469093 
L 473.131422 176.011028 
L 473.176468 173.301351 
L 473.188624 173.843286 
L 473.195721 174.385222 
L 473.265887 172.759415 
L 473.345341 173.843286 
L 473.382744 173.301351 
L 473.386996 172.759415 
L 473.403959 173.301351 
L 473.53422 174.385222 
L 473.560618 174.927157 
L 473.645139 174.385222 
L 473.724113 175.469093 
L 473.744145 174.385222 
L 473.765133 173.301351 
L 473.877528 173.843286 
L 473.941898 173.301351 
L 474.083166 173.843286 
L 474.413342 173.301351 
L 474.536837 173.843286 
L 474.644861 175.469093 
L 474.650302 176.011028 
L 474.786767 176.552964 
L 474.849417 177.094899 
L 474.825082 176.011028 
L 474.869478 176.552964 
L 474.977286 177.636835 
L 475.017361 177.094899 
L 475.085457 174.927157 
L 475.122987 175.469093 
L 475.228445 174.385222 
L 475.276367 174.927157 
L 475.555426 175.469093 
L 475.557789 176.011028 
L 475.591656 175.469093 
L 475.783807 176.011028 
L 475.851869 175.469093 
L 475.866643 176.011028 
L 475.952585 176.552964 
L 475.992721 176.011028 
L 476.022577 176.552964 
L 476.123708 180.346512 
L 476.168348 178.17877 
L 476.290828 179.262641 
L 476.383883 180.346512 
L 476.407825 179.804577 
L 476.701886 177.094899 
L 476.719587 177.636835 
L 476.785553 178.720706 
L 476.91526 178.17877 
L 476.97006 179.262641 
L 476.99537 177.636835 
L 477.063594 176.552964 
L 477.094873 177.094899 
L 477.170293 178.17877 
L 477.194074 177.094899 
L 477.210877 176.011028 
L 477.400319 176.552964 
L 477.429463 176.011028 
L 477.438006 177.636835 
L 477.444125 177.636835 
L 477.60245 180.888448 
L 477.741494 179.262641 
L 477.798864 179.804577 
L 477.803956 181.430383 
L 478.034685 180.888448 
L 478.052069 176.011028 
L 478.144521 177.094899 
L 478.257675 178.17877 
L 478.43027 177.636835 
L 478.432282 176.011028 
L 479.481182 176.552964 
L 479.481567 177.094899 
L 480.304884 177.636835 
L 480.992607 177.094899 
L 485.502579 176.552964 
L 485.716941 176.011028 
L 486.060023 176.552964 
L 486.081525 177.094899 
L 486.319682 176.011028 
L 486.428825 176.552964 
L 486.438788 176.011028 
L 487.010282 176.552964 
L 487.011067 177.094899 
L 487.197249 177.636835 
L 487.262608 176.011028 
L 487.30226 176.552964 
L 487.342302 176.011028 
L 487.537175 176.552964 
L 487.582735 176.011028 
L 487.841251 176.552964 
L 487.868669 177.094899 
L 487.919568 176.552964 
L 488.046261 177.094899 
L 488.049496 177.636835 
L 488.120411 176.011028 
L 488.402469 177.094899 
L 488.473376 176.011028 
L 489.384584 175.469093 
L 489.46401 176.011028 
L 489.469986 175.469093 
L 489.623501 176.011028 
L 489.665727 175.469093 
L 489.701762 176.552964 
L 489.795923 177.094899 
L 489.881051 176.011028 
L 489.957732 175.469093 
L 489.936822 176.552964 
L 489.980262 176.552964 
L 490.017285 177.094899 
L 490.177151 177.636835 
L 490.17824 178.17877 
L 490.30196 177.636835 
L 490.303852 176.552964 
L 490.409388 177.636835 
L 490.506046 177.094899 
L 490.666733 178.720706 
L 490.791865 178.17877 
L 491.037431 178.720706 
L 491.264365 181.430383 
L 491.26855 180.888448 
L 491.495496 180.346512 
L 491.500145 179.804577 
L 491.546853 180.346512 
L 491.632945 180.888448 
L 491.802097 178.17877 
L 491.812989 177.636835 
L 491.828932 178.720706 
L 492.077283 178.17877 
L 492.077611 177.636835 
L 492.162994 178.17877 
L 492.393086 179.262641 
L 492.500082 180.888448 
L 492.612777 181.972319 
L 492.621087 181.430383 
L 492.695418 181.972319 
L 492.840098 179.804577 
L 492.84333 179.262641 
L 492.926089 180.888448 
L 492.982673 180.346512 
L 493.013744 180.888448 
L 493.068198 184.14006 
L 493.123854 182.514254 
L 493.220709 183.598125 
L 493.230399 183.05619 
L 493.317873 183.598125 
L 493.330881 181.972319 
L 493.505078 179.804577 
L 493.563945 180.346512 
L 493.679012 181.430383 
L 493.828341 180.346512 
L 493.889241 179.262641 
L 494.010147 180.346512 
L 494.012818 179.804577 
L 494.124937 179.262641 
L 494.301439 181.430383 
L 494.358676 182.514254 
L 494.501265 183.05619 
L 494.516348 181.972319 
L 494.691286 182.514254 
L 494.721619 184.14006 
L 494.782238 181.972319 
L 494.786797 182.514254 
L 495.094692 183.05619 
L 495.103849 183.598125 
L 495.918124 183.05619 
L 495.932972 183.598125 
L 496.62529 183.05619 
L 496.635616 183.598125 
L 496.907662 183.05619 
L 497.422045 182.514254 
L 497.430844 183.05619 
L 501.968271 182.514254 
L 502.04444 181.430383 
L 502.344132 180.888448 
L 502.381335 179.804577 
L 503.045955 180.346512 
L 503.290708 180.888448 
L 503.304866 181.430383 
L 503.310391 179.804577 
L 503.464844 180.346512 
L 503.504481 179.804577 
L 504.753806 180.346512 
L 504.964903 181.430383 
L 505.085855 180.888448 
L 505.235105 181.972319 
L 505.25552 183.05619 
L 505.301599 181.972319 
L 505.373127 181.430383 
L 505.380783 181.972319 
L 505.453871 183.05619 
L 505.484625 181.972319 
L 505.535186 180.888448 
L 505.826388 181.430383 
L 505.85049 180.888448 
L 505.96916 181.430383 
L 506.009136 180.888448 
L 506.535858 181.972319 
L 506.62771 183.598125 
L 506.681689 183.05619 
L 506.690722 183.598125 
L 506.74938 184.681996 
L 506.782569 183.05619 
L 506.835916 184.681996 
L 506.864587 183.598125 
L 507.091341 180.888448 
L 507.092799 181.430383 
L 507.213311 182.514254 
L 507.280983 181.972319 
L 507.267438 183.05619 
L 507.29097 182.514254 
L 507.428556 183.05619 
L 507.439938 182.514254 
L 507.531996 184.14006 
L 507.648741 180.888448 
L 508.088259 181.430383 
L 508.125188 183.598125 
L 508.18352 181.972319 
L 508.237801 180.888448 
L 508.284307 181.972319 
L 508.357767 184.681996 
L 508.428353 183.598125 
L 508.487759 180.346512 
L 508.549462 179.804577 
L 508.564798 180.346512 
L 508.568265 180.888448 
L 508.571227 180.346512 
L 508.789088 180.888448 
L 508.8268 180.346512 
L 508.848763 181.430383 
L 508.893932 180.888448 
L 509.022031 180.346512 
L 509.082133 180.888448 
L 509.085898 180.346512 
L 509.101537 179.804577 
L 509.125426 181.430383 
L 509.250112 181.972319 
L 509.315686 179.804577 
L 509.350553 180.346512 
L 509.535802 180.888448 
L 509.64275 184.681996 
L 509.68674 182.514254 
L 509.73467 183.598125 
L 509.828691 179.804577 
L 509.900646 180.888448 
L 509.922549 179.262641 
L 510.030934 178.720706 
L 510.089262 179.262641 
L 510.153038 178.720706 
L 510.20742 179.262641 
L 510.213661 178.720706 
L 510.358708 179.262641 
L 510.364402 178.720706 
L 510.51991 179.262641 
L 510.615507 179.804577 
L 510.721882 178.720706 
L 510.818385 179.262641 
L 510.948568 178.720706 
L 511.04173 179.804577 
L 511.097937 180.346512 
L 511.107228 178.720706 
L 511.142078 179.262641 
L 511.153406 178.720706 
L 511.169386 181.430383 
L 511.294857 183.598125 
L 511.325665 185.765867 
L 511.430742 185.223931 
L 511.539477 186.849738 
L 511.609099 188.475544 
L 511.936067 189.01748 
L 511.94499 189.559415 
L 512.211623 189.01748 
L 512.213346 188.475544 
L 512.229503 189.559415 
L 512.230359 189.01748 
L 513.504237 189.559415 
L 513.522524 189.01748 
L 513.525837 189.559415 
L 518.266601 189.01748 
L 518.4954 188.475544 
L 518.564728 187.391673 
L 518.792949 186.849738 
L 518.845986 183.598125 
L 518.929346 182.514254 
L 519.031416 180.346512 
L 519.41826 180.888448 
L 519.446841 181.430383 
L 519.471519 180.346512 
L 519.524927 180.888448 
L 519.563407 181.430383 
L 519.624418 180.346512 
L 519.79396 183.598125 
L 519.888797 181.430383 
L 519.927139 182.514254 
L 520.038107 183.598125 
L 520.044287 184.14006 
L 520.108111 183.05619 
L 520.190568 183.598125 
L 520.202037 183.05619 
L 520.202757 182.514254 
L 520.344435 181.430383 
L 520.370666 180.888448 
L 520.482198 181.972319 
L 520.60643 184.14006 
L 520.631556 184.681996 
L 520.688542 183.598125 
L 520.695757 184.14006 
L 520.757546 183.598125 
L 520.763487 184.14006 
L 520.902523 185.223931 
L 520.904316 185.765867 
L 521.002427 183.598125 
L 521.130895 183.05619 
L 521.18015 181.430383 
L 521.271573 181.972319 
L 521.295416 181.430383 
L 521.303905 181.972319 
L 521.492736 180.888448 
L 521.496359 180.346512 
L 521.522681 183.05619 
L 521.700334 182.514254 
L 521.713125 183.598125 
L 521.744857 181.430383 
L 521.769118 181.972319 
L 521.89207 181.430383 
L 521.893395 180.888448 
L 522.100372 181.430383 
L 522.125086 180.888448 
L 522.153 181.972319 
L 522.227033 180.888448 
L 522.338739 179.804577 
L 522.471328 177.094899 
L 522.621085 177.636835 
L 522.68594 176.011028 
L 522.799227 174.927157 
L 522.859997 173.301351 
L 522.967382 172.21748 
L 522.981905 171.133609 
L 523.144792 171.675544 
L 523.196729 174.385222 
L 523.271843 172.21748 
L 523.298534 171.675544 
L 523.375483 172.21748 
L 523.398816 171.675544 
L 523.491847 173.301351 
L 523.520326 171.133609 
L 523.62036 171.675544 
L 523.711695 169.507802 
L 523.779094 170.049738 
L 523.795769 168.423931 
L 524.009646 165.172319 
L 524.047631 166.25619 
L 524.194349 165.172319 
L 524.217174 165.714254 
L 524.346106 166.25619 
L 524.360644 167.34006 
L 524.444613 165.172319 
L 524.605677 166.798125 
L 524.793456 164.088448 
L 524.906652 165.172319 
L 524.926838 166.25619 
L 524.999861 163.546512 
L 525.077352 164.088448 
L 525.204481 164.630383 
L 525.387851 164.088448 
L 525.41334 163.004577 
L 525.497186 164.088448 
L 525.518478 163.004577 
L 525.598327 163.546512 
L 525.882892 172.759415 
L 525.977961 173.843286 
L 525.994094 173.301351 
L 526.315425 168.965867 
L 526.408271 171.133609 
L 526.566471 170.591673 
L 526.568606 170.049738 
L 526.65481 172.21748 
L 526.662016 171.675544 
L 526.756931 171.133609 
L 527.011655 172.759415 
L 527.039021 174.385222 
L 527.104158 173.843286 
L 527.166187 172.21748 
L 527.243368 167.881996 
L 527.310441 168.965867 
L 527.322245 169.507802 
L 527.35273 168.423931 
L 527.536905 167.881996 
L 527.542534 166.798125 
L 527.711482 166.25619 
L 527.827574 167.881996 
L 527.873794 168.965867 
L 528.15558 168.423931 
L 528.19028 169.507802 
L 528.35041 168.965867 
L 528.351215 168.423931 
L 528.381763 170.049738 
L 528.749741 168.965867 
L 528.844763 166.798125 
L 528.891296 167.34006 
L 529.385666 166.798125 
L 529.456243 166.25619 
L 530.074063 166.798125 
L 530.149633 167.34006 
L 530.327379 167.881996 
L 530.346331 169.507802 
L 530.6421 168.965867 
L 530.746303 168.423931 
L 533.561317 167.881996 
L 533.572229 168.423931 
L 535.16649 167.881996 
L 535.22248 165.714254 
L 535.535885 165.172319 
L 535.681991 158.669093 
L 535.821357 159.211028 
L 535.92893 155.41748 
L 536.046458 153.791673 
L 536.118538 154.333609 
L 536.163004 156.501351 
L 536.22709 154.333609 
L 536.341865 155.41748 
L 536.347928 154.875544 
L 536.34854 154.333609 
L 536.387071 156.501351 
L 536.447953 155.959415 
L 536.558611 154.875544 
L 536.645633 154.333609 
L 536.638331 155.41748 
L 536.662006 154.875544 
L 536.717851 154.333609 
L 536.80919 157.585222 
L 536.910105 154.333609 
L 537.067065 154.875544 
L 537.16138 154.333609 
L 537.072448 155.41748 
L 537.173425 154.875544 
L 537.223683 154.333609 
L 537.279952 154.875544 
L 537.354975 155.959415 
L 537.376668 154.333609 
L 537.38162 154.875544 
L 537.397553 153.791673 
L 537.514618 154.333609 
L 537.536401 153.791673 
L 537.731816 154.333609 
L 537.736544 153.791673 
L 537.776864 154.333609 
L 537.961298 154.875544 
L 537.965379 154.333609 
L 538.092647 153.791673 
L 538.316127 154.333609 
L 538.357209 154.875544 
L 538.373695 153.791673 
L 538.574808 154.333609 
L 538.670784 153.791673 
L 538.708364 154.875544 
L 538.717828 153.791673 
L 538.833931 153.249738 
L 538.84237 153.791673 
L 538.87785 149.998125 
L 539.014727 147.830383 
L 539.153719 144.57877 
L 539.280096 145.120706 
L 539.358787 144.57877 
L 539.485376 145.120706 
L 539.587046 144.036835 
L 539.662798 144.57877 
L 539.713229 144.036835 
L 539.750232 144.57877 
L 539.756314 145.120706 
L 539.760725 144.036835 
L 539.880501 145.120706 
L 539.881352 144.57877 
L 539.940173 145.120706 
L 540.001406 144.036835 
L 540.251805 144.57877 
L 540.257001 144.036835 
L 540.384599 144.57877 
L 540.499857 143.494899 
L 540.63487 144.57877 
L 540.637029 144.036835 
L 540.673628 141.869093 
L 541.005976 142.411028 
L 541.11312 141.327157 
L 541.238403 141.869093 
L 541.330099 140.785222 
L 541.565487 140.243286 
L 541.604849 135.365867 
L 541.730912 134.823931 
L 541.827473 131.572319 
L 541.970978 130.488448 
L 542.082102 126.694899 
L 542.108645 125.611028 
L 542.222732 126.152964 
L 542.361795 121.275544 
L 542.438011 120.733609 
L 542.474518 121.275544 
L 542.50524 120.191673 
L 542.510268 119.649738 
L 542.538629 121.275544 
L 542.564242 120.191673 
L 542.640019 119.107802 
L 542.668304 119.649738 
L 542.676485 120.191673 
L 542.692758 119.107802 
L 542.819865 117.481996 
L 542.919605 116.398125 
L 543.153387 121.81748 
L 543.172872 120.191673 
L 543.182406 118.565867 
L 543.251734 122.359415 
L 543.362103 125.069093 
L 543.367854 122.901351 
L 543.397584 123.985222 
L 543.47625 117.481996 
L 543.529762 119.107802 
L 543.560052 117.481996 
L 543.683153 113.688448 
L 543.821657 112.062641 
L 543.857621 111.520706 
L 543.926878 113.146512 
L 544.088418 116.398125 
L 544.10966 115.85619 
L 544.185354 116.398125 
L 544.213625 115.85619 
L 544.316548 113.688448 
L 544.505522 114.772319 
L 544.522845 114.230383 
L 544.523196 113.688448 
L 544.766265 115.314254 
L 544.793341 114.772319 
L 544.910334 109.894899 
L 544.979309 110.436835 
L 545.05306 109.894899 
L 545.057013 110.436835 
L 545.077375 112.604577 
L 545.344022 113.146512 
L 545.352215 113.688448 
L 545.360368 113.146512 
L 545.498475 113.688448 
L 545.516618 112.604577 
L 545.62108 113.146512 
L 545.624671 113.688448 
L 545.632885 113.146512 
L 545.82257 113.688448 
L 545.849906 115.85619 
L 545.953432 115.314254 
L 545.991385 114.230383 
L 546.012318 114.772319 
L 546.184373 113.688448 
L 546.240514 112.604577 
L 546.259537 113.688448 
L 546.459013 116.94006 
L 546.491103 117.481996 
L 546.524497 116.398125 
L 546.592142 115.314254 
L 546.698964 114.230383 
L 546.708991 114.772319 
L 546.714722 115.85619 
L 547.078471 115.314254 
L 547.090718 114.230383 
L 547.35235 113.688448 
L 547.359465 111.520706 
L 547.373833 114.230383 
L 547.375345 113.688448 
L 547.57225 114.230383 
L 547.594165 114.772319 
L 547.663734 114.230383 
L 547.665223 113.146512 
L 548.033948 112.604577 
L 550.603195 112.062641 
L 551.626858 111.520706 
L 551.757033 110.97877 
L 551.757766 110.436835 
L 552.037162 109.352964 
L 552.05153 109.894899 
L 552.090125 108.269093 
L 552.153121 108.811028 
L 552.180522 107.727157 
L 552.513022 108.269093 
L 552.564997 107.727157 
L 552.739891 107.185222 
L 553.051518 107.727157 
L 553.055279 107.185222 
L 553.118005 109.894899 
L 553.143999 108.811028 
L 553.205119 109.894899 
L 553.222191 109.352964 
L 553.29705 108.269093 
L 553.345524 107.185222 
L 553.621937 107.727157 
L 553.708877 108.269093 
L 553.721094 107.185222 
L 553.847209 108.269093 
L 553.849057 107.727157 
L 553.85087 107.185222 
L 553.953013 107.727157 
L 553.971327 108.269093 
L 553.985942 107.727157 
L 554.08115 106.643286 
L 554.267456 102.307802 
L 554.29373 103.391673 
L 554.346006 104.475544 
L 554.404924 103.933609 
L 554.516999 102.849738 
L 554.599478 101.765867 
L 554.698175 94.720706 
L 554.871453 89.843286 
L 554.975075 84.423931 
L 555.285923 75.752964 
L 555.317505 76.836835 
L 555.444541 79.004577 
L 555.448755 77.920706 
L 555.620155 73.585222 
L 555.627245 74.127157 
L 555.631507 74.669093 
L 555.697178 71.959415 
L 555.720716 73.043286 
L 555.840456 65.998125 
L 555.876736 67.623931 
L 556.047304 69.791673 
L 556.176325 65.998125 
L 556.081362 70.875544 
L 556.22035 67.623931 
L 556.343122 69.791673 
L 556.343565 69.249738 
L 556.407354 66.54006 
L 556.502915 64.372319 
L 556.564101 60.57877 
L 556.660828 55.159415 
L 556.830354 51.907802 
L 556.89192 52.449738 
L 557.001975 52.991673 
L 557.119347 50.823931 
L 557.161912 51.365867 
L 557.250035 53.533609 
L 557.269223 52.991673 
L 557.356159 50.823931 
L 557.39946 52.449738 
L 557.459961 53.533609 
L 557.503553 52.449738 
L 557.572163 52.991673 
L 557.548981 51.907802 
L 557.577929 52.449738 
L 557.590287 51.365867 
L 557.690336 51.907802 
L 557.771777 52.449738 
L 557.717636 51.365867 
L 557.784481 51.365867 
L 557.816674 50.823931 
L 557.829415 51.907802 
L 557.928108 52.991673 
L 557.835893 51.365867 
L 557.930515 52.449738 
L 557.958651 54.075544 
L 557.96854 53.533609 
L 558.103971 52.991673 
L 558.224574 49.74006 
L 558.432295 51.907802 
L 558.432856 51.365867 
L 558.484116 51.907802 
L 558.550078 50.281996 
L 558.576503 50.823931 
L 558.729942 50.281996 
L 558.802903 47.572319 
L 558.920914 47.030383 
L 558.967949 44.862641 
L 559.033345 45.404577 
L 559.040908 45.946512 
L 559.106548 44.320706 
L 559.278117 41.069093 
L 559.367165 37.81748 
L 559.41585 38.359415 
L 559.578072 41.069093 
L 559.581688 41.611028 
L 559.630666 40.527157 
L 559.707836 39.985222 
L 559.779968 40.527157 
L 559.782644 39.985222 
L 559.791401 39.443286 
L 559.869211 41.069093 
L 559.870929 41.611028 
L 559.954588 36.733609 
L 559.972864 37.275544 
L 560.007894 35.649738 
L 560.08818 33.481996 
L 560.155403 34.023931 
L 560.179059 33.481996 
L 560.220377 34.565867 
L 560.2541 35.649738 
L 560.284235 32.398125 
L 560.427589 32.94006 
L 560.490507 32.398125 
L 560.433733 33.481996 
L 560.502025 32.94006 
L 560.603805 34.565867 
L 560.605895 35.107802 
L 560.708662 33.481996 
L 560.711147 32.94006 
L 560.761422 36.191673 
L 560.779425 35.107802 
L 560.816709 35.649738 
L 560.841598 35.107802 
L 560.857913 34.565867 
L 560.9377 35.107802 
L 561.02251 38.901351 
L 561.0458 37.81748 
L 561.063511 36.191673 
L 561.131644 38.901351 
L 561.132779 39.443286 
L 561.219072 37.275544 
L 561.23019 37.81748 
L 561.295081 38.359415 
L 561.343042 37.81748 
L 561.34911 38.901351 
L 561.386979 38.359415 
L 561.545111 41.069093 
L 561.915888 42.694899 
L 561.958153 41.611028 
L 562.185141 42.152964 
L 562.193411 41.069093 
L 562.439217 40.527157 
L 562.447175 41.069093 
L 562.669078 40.527157 
L 563.138252 41.069093 
L 563.141777 42.152964 
L 563.257783 41.069093 
L 564.635993 41.611028 
L 568.563878 42.152964 
L 568.632025 42.694899 
L 568.643371 40.527157 
L 568.696972 38.901351 
L 568.730018 39.443286 
L 568.979767 40.527157 
L 569.232185 39.443286 
L 569.280324 39.985222 
L 569.281041 39.443286 
L 569.296565 38.901351 
L 569.376352 39.443286 
L 569.54268 39.985222 
L 569.7125 34.565867 
L 570.044587 35.107802 
L 570.165067 34.565867 
L 570.332382 35.649738 
L 570.463751 35.107802 
L 570.4642 34.565867 
L 570.497866 35.649738 
L 570.570382 35.107802 
L 570.58877 35.649738 
L 570.628929 34.565867 
L 570.793924 35.107802 
L 570.820545 36.191673 
L 570.891932 35.107802 
L 570.892942 34.565867 
L 570.94322 36.191673 
L 570.986663 36.191673 
L 571.053122 34.565867 
L 571.061397 34.023931 
L 571.169363 35.107802 
L 571.258861 35.649738 
L 571.319539 34.023931 
L 571.476682 34.565867 
L 571.538355 37.275544 
L 571.571033 36.191673 
L 571.648935 35.107802 
L 571.821415 35.649738 
L 571.955517 33.481996 
L 572.112644 34.023931 
L 572.145171 34.565867 
L 572.167744 33.481996 
L 572.387659 34.023931 
L 572.449752 33.481996 
L 572.549181 34.023931 
L 572.553408 33.481996 
L 572.761225 34.565867 
L 572.831469 37.275544 
L 572.881361 35.107802 
L 573.006734 35.649738 
L 573.069376 38.359415 
L 573.120938 37.81748 
L 573.196375 38.359415 
L 573.226393 37.81748 
L 573.31838 34.023931 
L 573.457082 33.481996 
L 573.520026 32.94006 
L 573.633745 35.107802 
L 573.737155 34.023931 
L 573.87266 34.565867 
L 573.903177 36.733609 
L 573.934922 34.023931 
L 573.955942 34.565867 
L 574.109377 33.481996 
L 574.263216 34.023931 
L 574.270732 33.481996 
L 574.304078 34.023931 
L 574.394171 34.565867 
L 574.524835 33.481996 
L 574.571998 35.107802 
L 574.634603 34.023931 
L 574.63735 33.481996 
L 574.729808 36.733609 
L 574.734846 37.275544 
L 574.779973 33.481996 
L 574.798128 33.481996 
L 574.915141 34.023931 
L 575.010974 33.481996 
L 574.93552 34.565867 
L 575.020206 34.565867 
L 575.067502 35.107802 
L 575.090428 32.94006 
L 575.107615 33.481996 
L 575.148077 32.398125 
L 575.387996 32.94006 
L 575.408196 32.398125 
L 575.52446 32.94006 
L 575.526868 33.481996 
L 575.528882 32.398125 
L 575.689202 32.94006 
L 575.804879 32.398125 
L 575.887075 33.481996 
L 575.901568 32.398125 
L 576.137805 33.481996 
L 576.142902 34.023931 
L 576.179824 32.398125 
L 576.245987 32.94006 
L 576.300179 32.398125 
L 576.305149 33.481996 
L 576.370717 35.107802 
L 576.455144 34.565867 
L 576.457807 34.023931 
L 576.487063 35.107802 
L 576.551334 34.565867 
L 576.689109 32.94006 
L 576.709688 33.481996 
L 576.713613 34.023931 
L 576.84912 33.481996 
L 576.86966 32.398125 
L 576.899027 33.481996 
L 577.043008 34.565867 
L 577.150001 35.649738 
L 577.269722 36.733609 
L 577.332447 37.81748 
L 577.368127 36.733609 
L 577.467986 35.649738 
L 577.561087 32.94006 
L 578.724811 33.481996 
L 579.601989 34.023931 
L 579.601989 34.023931 
" clip-path="url(#p94addce3e1)" style="fill: none; stroke: #1f77b4; stroke-width: 1.5; stroke-linecap: square"/>
   </g>
   <g id="patch_3">
    <path d="M 46.965625 244.078125 
L 46.965625 22.318125 
" style="fill: none; stroke: #000000; stroke-width: 0.8; stroke-linejoin: miter; stroke-linecap: square"/>
   </g>
   <g id="patch_4">
    <path d="M 604.965625 244.078125 
L 604.965625 22.318125 
" style="fill: none; stroke: #000000; stroke-width: 0.8; stroke-linejoin: miter; stroke-linecap: square"/>
   </g>
   <g id="patch_5">
    <path d="M 46.965625 244.078125 
L 604.965625 244.078125 
" style="fill: none; stroke: #000000; stroke-width: 0.8; stroke-linejoin: miter; stroke-linecap: square"/>
   </g>
   <g id="patch_6">
    <path d="M 46.965625 22.318125 
L 604.965625 22.318125 
" style="fill: none; stroke: #000000; stroke-width: 0.8; stroke-linejoin: miter; stroke-linecap: square"/>
   </g>
   <g id="text_20">
    <!-- Capacity Curve (Relative) - Jefferson Dr &amp; 14th St SW -->
    <g transform="translate(165.934375 16.318125) scale(0.12 -0.12)">
     <defs>
      <path id="DejaVuSans-70" d="M 1159 525 
L 1159 -1331 
L 581 -1331 
L 581 3500 
L 1159 3500 
L 1159 2969 
Q 1341 3281 1617 3432 
Q 1894 3584 2278 3584 
Q 2916 3584 3314 3078 
Q 3713 2572 3713 1747 
Q 3713 922 3314 415 
Q 2916 -91 2278 -91 
Q 1894 -91 1617 61 
Q 1341 213 1159 525 
z
M 3116 1747 
Q 3116 2381 2855 2742 
Q 2594 3103 2138 3103 
Q 1681 3103 1420 2742 
Q 1159 2381 1159 1747 
Q 1159 1113 1420 752 
Q 1681 391 2138 391 
Q 2594 391 2855 752 
Q 3116 1113 3116 1747 
z
" transform="scale(0.015625)"/>
      <path id="DejaVuSans-63" d="M 3122 3366 
L 3122 2828 
Q 2878 2963 2633 3030 
Q 2388 3097 2138 3097 
Q 1578 3097 1268 2742 
Q 959 2388 959 1747 
Q 959 1106 1268 751 
Q 1578 397 2138 397 
Q 2388 397 2633 464 
Q 2878 531 3122 666 
L 3122 134 
Q 2881 22 2623 -34 
Q 2366 -91 2075 -91 
Q 1284 -91 818 406 
Q 353 903 353 1747 
Q 353 2603 823 3093 
Q 1294 3584 2113 3584 
Q 2378 3584 2631 3529 
Q 2884 3475 3122 3366 
z
" transform="scale(0.015625)"/>
      <path id="DejaVuSans-79" d="M 2059 -325 
Q 1816 -950 1584 -1140 
Q 1353 -1331 966 -1331 
L 506 -1331 
L 506 -850 
L 844 -850 
Q 1081 -850 1212 -737 
Q 1344 -625 1503 -206 
L 1606 56 
L 191 3500 
L 800 3500 
L 1894 763 
L 2988 3500 
L 3597 3500 
L 2059 -325 
z
" transform="scale(0.015625)"/>
      <path id="DejaVuSans-52" d="M 2841 2188 
Q 3044 2119 3236 1894 
Q 3428 1669 3622 1275 
L 4263 0 
L 3584 0 
L 2988 1197 
Q 2756 1666 2539 1819 
Q 2322 1972 1947 1972 
L 1259 1972 
L 1259 0 
L 628 0 
L 628 4666 
L 2053 4666 
Q 2853 4666 3247 4331 
Q 3641 3997 3641 3322 
Q 3641 2881 3436 2590 
Q 3231 2300 2841 2188 
z
M 1259 4147 
L 1259 2491 
L 2053 2491 
Q 2509 2491 2742 2702 
Q 2975 2913 2975 3322 
Q 2975 3731 2742 3939 
Q 2509 4147 2053 4147 
L 1259 4147 
z
" transform="scale(0.015625)"/>
      <path id="DejaVuSans-4a" d="M 628 4666 
L 1259 4666 
L 1259 325 
Q 1259 -519 939 -900 
Q 619 -1281 -91 -1281 
L -331 -1281 
L -331 -750 
L -134 -750 
Q 284 -750 456 -515 
Q 628 -281 628 325 
L 628 4666 
z
" transform="scale(0.015625)"/>
      <path id="DejaVuSans-66" d="M 2375 4863 
L 2375 4384 
L 1825 4384 
Q 1516 4384 1395 4259 
Q 1275 4134 1275 3809 
L 1275 3500 
L 2222 3500 
L 2222 3053 
L 1275 3053 
L 1275 0 
L 697 0 
L 697 3053 
L 147 3053 
L 147 3500 
L 697 3500 
L 697 3744 
Q 697 4328 969 4595 
Q 1241 4863 1831 4863 
L 2375 4863 
z
" transform="scale(0.015625)"/>
      <path id="DejaVuSans-6f" d="M 1959 3097 
Q 1497 3097 1228 2736 
Q 959 2375 959 1747 
Q 959 1119 1226 758 
Q 1494 397 1959 397 
Q 2419 397 2687 759 
Q 2956 1122 2956 1747 
Q 2956 2369 2687 2733 
Q 2419 3097 1959 3097 
z
M 1959 3584 
Q 2709 3584 3137 3096 
Q 3566 2609 3566 1747 
Q 3566 888 3137 398 
Q 2709 -91 1959 -91 
Q 1206 -91 779 398 
Q 353 888 353 1747 
Q 353 2609 779 3096 
Q 1206 3584 1959 3584 
z
" transform="scale(0.015625)"/>
      <path id="DejaVuSans-6e" d="M 3513 2113 
L 3513 0 
L 2938 0 
L 2938 2094 
Q 2938 2591 2744 2837 
Q 2550 3084 2163 3084 
Q 1697 3084 1428 2787 
Q 1159 2491 1159 1978 
L 1159 0 
L 581 0 
L 581 3500 
L 1159 3500 
L 1159 2956 
Q 1366 3272 1645 3428 
Q 1925 3584 2291 3584 
Q 2894 3584 3203 3211 
Q 3513 2838 3513 2113 
z
" transform="scale(0.015625)"/>
      <path id="DejaVuSans-44" d="M 1259 4147 
L 1259 519 
L 2022 519 
Q 2988 519 3436 956 
Q 3884 1394 3884 2338 
Q 3884 3275 3436 3711 
Q 2988 4147 2022 4147 
L 1259 4147 
z
M 628 4666 
L 1925 4666 
Q 3281 4666 3915 4102 
Q 4550 3538 4550 2338 
Q 4550 1131 3912 565 
Q 3275 0 1925 0 
L 628 0 
L 628 4666 
z
" transform="scale(0.015625)"/>
      <path id="DejaVuSans-26" d="M 1556 2509 
Q 1272 2256 1139 2004 
Q 1006 1753 1006 1478 
Q 1006 1022 1337 719 
Q 1669 416 2169 416 
Q 2466 416 2725 514 
Q 2984 613 3213 813 
L 1556 2509 
z
M 1997 2859 
L 3584 1234 
Q 3769 1513 3872 1830 
Q 3975 2147 3994 2503 
L 4575 2503 
Q 4538 2091 4375 1687 
Q 4213 1284 3922 891 
L 4794 0 
L 4006 0 
L 3559 459 
Q 3234 181 2878 45 
Q 2522 -91 2113 -91 
Q 1359 -91 881 339 
Q 403 769 403 1441 
Q 403 1841 612 2192 
Q 822 2544 1241 2853 
Q 1091 3050 1012 3245 
Q 934 3441 934 3628 
Q 934 4134 1281 4442 
Q 1628 4750 2203 4750 
Q 2463 4750 2720 4694 
Q 2978 4638 3244 4525 
L 3244 3956 
Q 2972 4103 2725 4179 
Q 2478 4256 2266 4256 
Q 1938 4256 1733 4082 
Q 1528 3909 1528 3634 
Q 1528 3475 1620 3314 
Q 1713 3153 1997 2859 
z
" transform="scale(0.015625)"/>
      <path id="DejaVuSans-68" d="M 3513 2113 
L 3513 0 
L 2938 0 
L 2938 2094 
Q 2938 2591 2744 2837 
Q 2550 3084 2163 3084 
Q 1697 3084 1428 2787 
Q 1159 2491 1159 1978 
L 1159 0 
L 581 0 
L 581 4863 
L 1159 4863 
L 1159 2956 
Q 1366 3272 1645 3428 
Q 1925 3584 2291 3584 
Q 2894 3584 3203 3211 
Q 3513 2838 3513 2113 
z
" transform="scale(0.015625)"/>
      <path id="DejaVuSans-53" d="M 3425 4513 
L 3425 3897 
Q 3066 4069 2747 4153 
Q 2428 4238 2131 4238 
Q 1616 4238 1336 4038 
Q 1056 3838 1056 3469 
Q 1056 3159 1242 3001 
Q 1428 2844 1947 2747 
L 2328 2669 
Q 3034 2534 3370 2195 
Q 3706 1856 3706 1288 
Q 3706 609 3251 259 
Q 2797 -91 1919 -91 
Q 1588 -91 1214 -16 
Q 841 59 441 206 
L 441 856 
Q 825 641 1194 531 
Q 1563 422 1919 422 
Q 2459 422 2753 634 
Q 3047 847 3047 1241 
Q 3047 1584 2836 1778 
Q 2625 1972 2144 2069 
L 1759 2144 
Q 1053 2284 737 2584 
Q 422 2884 422 3419 
Q 422 4038 858 4394 
Q 1294 4750 2059 4750 
Q 2388 4750 2728 4690 
Q 3069 4631 3425 4513 
z
" transform="scale(0.015625)"/>
      <path id="DejaVuSans-57" d="M 213 4666 
L 850 4666 
L 1831 722 
L 2809 4666 
L 3519 4666 
L 4500 722 
L 5478 4666 
L 6119 4666 
L 4947 0 
L 4153 0 
L 3169 4050 
L 2175 0 
L 1381 0 
L 213 4666 
z
" transform="scale(0.015625)"/>
     </defs>
     <use xlink:href="#DejaVuSans-43"/>
     <use xlink:href="#DejaVuSans-61" x="69.824219"/>
     <use xlink:href="#DejaVuSans-70" x="131.103516"/>
     <use xlink:href="#DejaVuSans-61" x="194.580078"/>
     <use xlink:href="#DejaVuSans-63" x="255.859375"/>
     <use xlink:href="#DejaVuSans-69" x="310.839844"/>
     <use xlink:href="#DejaVuSans-74" x="338.623047"/>
     <use xlink:href="#DejaVuSans-79" x="377.832031"/>
     <use xlink:href="#DejaVuSans-20" x="437.011719"/>
     <use xlink:href="#DejaVuSans-43" x="468.798828"/>
     <use xlink:href="#DejaVuSans-75" x="538.623047"/>
     <use xlink:href="#DejaVuSans-72" x="602.001953"/>
     <use xlink:href="#DejaVuSans-76" x="643.115234"/>
     <use xlink:href="#DejaVuSans-65" x="702.294922"/>
     <use xlink:href="#DejaVuSans-20" x="763.818359"/>
     <use xlink:href="#DejaVuSans-28" x="795.605469"/>
     <use xlink:href="#DejaVuSans-52" x="834.619141"/>
     <use xlink:href="#DejaVuSans-65" x="899.601562"/>
     <use xlink:href="#DejaVuSans-6c" x="961.125"/>
     <use xlink:href="#DejaVuSans-61" x="988.908203"/>
     <use xlink:href="#DejaVuSans-74" x="1050.1875"/>
     <use xlink:href="#DejaVuSans-69" x="1089.396484"/>
     <use xlink:href="#DejaVuSans-76" x="1117.179688"/>
     <use xlink:href="#DejaVuSans-65" x="1176.359375"/>
     <use xlink:href="#DejaVuSans-29" x="1237.882812"/>
     <use xlink:href="#DejaVuSans-20" x="1276.896484"/>
     <use xlink:href="#DejaVuSans-2d" x="1308.683594"/>
     <use xlink:href="#DejaVuSans-20" x="1344.767578"/>
     <use xlink:href="#DejaVuSans-4a" x="1376.554688"/>
     <use xlink:href="#DejaVuSans-65" x="1406.046875"/>
     <use xlink:href="#DejaVuSans-66" x="1467.570312"/>
     <use xlink:href="#DejaVuSans-66" x="1502.775391"/>
     <use xlink:href="#DejaVuSans-65" x="1537.980469"/>
     <use xlink:href="#DejaVuSans-72" x="1599.503906"/>
     <use xlink:href="#DejaVuSans-73" x="1640.617188"/>
     <use xlink:href="#DejaVuSans-6f" x="1692.716797"/>
     <use xlink:href="#DejaVuSans-6e" x="1753.898438"/>
     <use xlink:href="#DejaVuSans-20" x="1817.277344"/>
     <use xlink:href="#DejaVuSans-44" x="1849.064453"/>
     <use xlink:href="#DejaVuSans-72" x="1926.066406"/>
     <use xlink:href="#DejaVuSans-20" x="1967.179688"/>
     <use xlink:href="#DejaVuSans-26" x="1998.966797"/>
     <use xlink:href="#DejaVuSans-20" x="2076.945312"/>
     <use xlink:href="#DejaVuSans-31" x="2108.732422"/>
     <use xlink:href="#DejaVuSans-34" x="2172.355469"/>
     <use xlink:href="#DejaVuSans-74" x="2235.978516"/>
     <use xlink:href="#DejaVuSans-68" x="2275.1875"/>
     <use xlink:href="#DejaVuSans-20" x="2338.566406"/>
     <use xlink:href="#DejaVuSans-53" x="2370.353516"/>
     <use xlink:href="#DejaVuSans-74" x="2433.830078"/>
     <use xlink:href="#DejaVuSans-20" x="2473.039062"/>
     <use xlink:href="#DejaVuSans-53" x="2504.826172"/>
     <use xlink:href="#DejaVuSans-57" x="2568.302734"/>
    </g>
   </g>
  </g>
 </g>
 <defs>
  <clipPath id="p94addce3e1">
   <rect x="46.965625" y="22.318125" width="558" height="221.76"/>
  </clipPath>
 </defs>
</svg>
